<?xml version="1.0" encoding="utf-8"?>
<!-- Generator: Adobe Illustrator 16.0.5, SVG Export Plug-In . SVG Version: 6.00 Build 0)  -->
<!DOCTYPE svg PUBLIC "-//W3C//DTD SVG 1.1//EN" "http://www.w3.org/Graphics/SVG/1.1/DTD/svg11.dtd">
<svg version="1.1" xmlns="http://www.w3.org/2000/svg" xmlns:xlink="http://www.w3.org/1999/xlink" x="0px" y="0px" width="54.25px"
	 height="42.01px" viewBox="0 0 54.25 42.01" enable-background="new 0 0 54.25 42.01" xml:space="preserve">
<symbol  id="Schlüssel_Schwarz" viewBox="-55.49 -27.448 110.98 54.896">
	<g>
		<path d="M28.045-24.948c-9.479,0-18.049,5.323-22.279,13.697l-10.737-0.021l-5.056,5.562l-0.167,0.413
			c-0.549,1.358-1.484,2.009-2.941,2.048l-0.104,0.001c-1.523,0-2.618-0.808-3.083-2.274l-0.237-0.748l-7.498-5.752l-6.861,6.206
			l-0.187-0.031l-2.418-3.4l-7.64-0.016l-0.728,0.696C-43.818-6.724-49-1.775-49.833-1.039c-1.654,1.458-3.144,2.938-3.157,4.961
			c-0.005,0.823,0.253,2.045,1.52,3.191l0.259,0.234l3.134,1.547l2.823,1.682H5.435c4.067,8.663,12.943,14.372,22.61,14.372
			c13.755,0,24.945-11.186,24.945-24.935C52.99-13.75,41.8-24.948,28.045-24.948z"/>
		<path fill="#FFFFFF" d="M28.045,22.448c12.396,0,22.445-10.043,22.445-22.435c0-12.408-10.049-22.462-22.445-22.462
			c-9.295,0-17.271,5.648-20.686,13.699L-3.867-8.771l-4.01,4.412c-0.923,2.282-2.727,3.542-5.191,3.608
			c-0.057,0.001-0.114,0.002-0.17,0.002c-2.609,0-4.666-1.492-5.466-4.018l-5.221-4.005l-6.209,5.615l-2.404-0.395l-2.276-3.202
			l-5.347-0.01c0,0-6.963,6.666-8.014,7.596c-1.996,1.76-3.129,3.058-1.617,4.427l2.91,1.437l2.316,1.38h51.65
			C10.322,16.48,18.484,22.448,28.045,22.448 M28.045,27.448c-10.09,0-19.396-5.653-24.145-14.372h-48.466h-1.376l-1.183-0.704
			l-2.147-1.28l-2.732-1.348l-0.626-0.309l-0.518-0.469c-1.522-1.38-2.354-3.177-2.341-5.062c0.022-3.31,2.517-5.509,4.007-6.823
			c0.706-0.624,5.198-4.906,7.863-7.456l1.454-1.393l2.014,0.004l5.347,0.01l2.573,0.006l1.491,2.098l0.13,0.183l3.331-3.012
			l3.09-2.795l3.307,2.535l5.221,4.003l1.248,0.958l0.475,1.499c0.146,0.46,0.288,0.529,0.701,0.529
			c0.493-0.013,0.541-0.026,0.727-0.486l0.335-0.828l0.6-0.659l4.01-4.411l1.492-1.642l2.218,0.004l8.136,0.018
			c4.867-8.417,13.866-13.694,23.766-13.694c15.133,0,27.445,12.318,27.445,27.462C55.49,15.142,43.178,27.448,28.045,27.448
			L28.045,27.448z"/>
	</g>
	<g>
		<path fill="#FFFFFF" d="M38.152-8.905c-4.523,0-8.203,3.676-8.203,8.193c0,4.52,3.68,8.196,8.203,8.196s8.203-3.677,8.203-8.196
			C46.355-5.229,42.676-8.905,38.152-8.905z"/>
		<path d="M38.152,4.484c2.877,0,5.203-2.322,5.203-5.196c0-2.873-2.326-5.193-5.203-5.193c-2.87,0-5.203,2.32-5.203,5.193
			C32.949,2.162,35.282,4.484,38.152,4.484 M38.152,10.484c-6.177,0-11.203-5.022-11.203-11.196c0-6.172,5.026-11.193,11.203-11.193
			S49.355-6.884,49.355-0.712C49.355,5.462,44.33,10.484,38.152,10.484L38.152,10.484z"/>
	</g>
</symbol>
<g id="Ebene_1">
	<g>
		<path fill="#FFFFFF" stroke="#000000" stroke-width="0.0889" d="M4.011,41.005c-1.959,0-3.556-1.592-3.556-3.556V4.561
			c0-1.964,1.597-3.556,3.556-3.556h46.229c1.959,0,3.556,1.592,3.556,3.556v32.888c0,1.964-1.597,3.556-3.556,3.556H4.011z"/>
		<path d="M4.011,40.116c-1.466,0-2.661-1.191-2.661-2.667V4.561c0-1.476,1.195-2.667,2.661-2.667h46.229
			c1.466,0,2.661,1.191,2.661,2.667v32.888c0,1.476-1.195,2.667-2.661,2.667H4.011z"/>
		<path fill="#FFFFFF" d="M4.011,38.786c-0.732,0-1.329-0.603-1.329-1.336V4.561c0-0.734,0.597-1.336,1.329-1.336h46.229
			c0.733,0,1.329,0.603,1.329,1.336v32.888c0,0.733-0.596,1.336-1.329,1.336H4.011z"/>
		<path d="M20.192,34.513V30.05h-0.537v-0.87h0.537v-0.8c0-0.733,0.595-1.33,1.336-1.33h0.8v0.996h-0.739
			c-0.178,0-0.333,0.156-0.333,0.334v0.8h1.072v0.87h-1.072v4.463H20.192z M23.521,34.513V29.18h1.073v0.604
			c0.625-0.773,1.759-0.896,2.527-0.271c0.001,0.001,0.002,0.002,0.003,0.002l-0.755,0.934c-0.446-0.392-1.115-0.353-1.508,0.094
			c-0.172,0.195-0.268,0.447-0.268,0.706v3.264H23.521z M32.057,32.246h-3.332v0.136c0,0.468,0.285,0.879,0.715,1.055l0,0
			c0.588,0.234,1.27,0.07,1.682-0.412l0.814,0.689c-0.718,0.836-1.876,1.117-2.893,0.713l0,0c-0.834-0.335-1.381-1.146-1.381-2.045
			v-1.066c0-1.217,0.979-2.196,2.196-2.196c1.217,0,2.198,0.979,2.198,2.196V32.246z M28.725,31.315h2.268
			c0-0.626-0.508-1.134-1.134-1.134C29.231,30.182,28.725,30.689,28.725,31.315z M33.521,34.513V29.18h1.073v5.333H33.521z
			 M33.521,28.117V27.05h1.073v1.067H33.521z"/>
		<path d="M45.846,12.053v1.105h-0.736l2.494,4.985c0.052,0.098,0.078,0.215,0.078,0.327v2.393c0,0.816-0.66,1.47-1.466,1.47H8.035
			c-0.806,0-1.467-0.654-1.467-1.47V18.47c0-0.112,0.026-0.229,0.078-0.327l2.494-4.985H8.404v-1.105h6.605l0.367-0.364h3.008
			l-4.4-2.939l5.064-3.378l5.066,3.378l-4.402,2.939h3.008l0.37,0.364H45.846z"/>
		<path fill="#FFFFFF" d="M42.91,13.158h1.548l1.639,3.278c0.315,0.633,0.062,1.407-0.579,1.727c-0.18,0.084-0.375,0.135-0.57,0.135
			H42.91V13.158z"/>
		<path fill="#FFFFFF" d="M41.44,13.158c0.402,0,0.733,0.327,0.733,0.729v6.975c0,0.406-0.331,0.738-0.733,0.738h-2.938
			c-0.405,0-0.731-0.332-0.731-0.738v-6.975c0-0.403,0.326-0.729,0.731-0.729H41.44z"/>
		<path fill="#FFFFFF" d="M36.3,13.158c0.405,0,0.737,0.327,0.737,0.729v3.67c0,0.41-0.332,0.741-0.737,0.741h-5.14
			c-0.403,0-0.729-0.331-0.729-0.741v-3.67c0-0.403,0.326-0.729,0.729-0.729H36.3z"/>
		<path fill="#FFFFFF" d="M28.96,13.158c0.403,0,0.733,0.327,0.733,0.729v3.67c0,0.41-0.33,0.741-0.733,0.741h-5.14
			c-0.403,0-0.729-0.331-0.729-0.741v-3.67c0-0.403,0.326-0.729,0.729-0.729H28.96z"/>
		<path fill="#FFFFFF" d="M21.62,13.158c0.403,0,0.729,0.327,0.729,0.729v3.67c0,0.41-0.326,0.741-0.729,0.741h-5.14
			c-0.402,0-0.732-0.331-0.732-0.741v-3.67c0-0.403,0.33-0.729,0.732-0.729H21.62z"/>
		<path fill="#FFFFFF" d="M14.281,13.158c0.402,0,0.729,0.327,0.729,0.729v6.975c0,0.406-0.326,0.738-0.729,0.738h-1.471
			c-0.403,0-0.734-0.332-0.734-0.738v-6.975c0-0.403,0.331-0.729,0.734-0.729H14.281z"/>
		<path fill="#FFFFFF" d="M11.34,13.158v5.14H9.303c-0.704,0-1.284-0.58-1.284-1.288c0-0.197,0.05-0.394,0.135-0.574l1.64-3.278
			H11.34z"/>
		<path d="M13.912,23.065c0,1.016-0.82,1.836-1.836,1.836s-1.836-0.82-1.836-1.836H13.912z M17.213,23.065
			c0,0.384,0.085,0.762,0.253,1.103H14.4c0.156-0.341,0.245-0.719,0.245-1.103H17.213z M21.62,23.065
			c0,1.016-0.822,1.836-1.835,1.836s-1.835-0.82-1.835-1.836H21.62z"/>
		<path d="M36.3,23.065c0,1.016-0.822,1.836-1.835,1.836c-1.012,0-1.835-0.82-1.835-1.836H36.3z M39.605,23.065
			c0,0.384,0.088,0.762,0.244,1.103h-3.064c0.167-0.341,0.252-0.719,0.252-1.103H39.605z M44.01,23.065h-3.672
			c0,1.016,0.82,1.836,1.836,1.836S44.01,24.081,44.01,23.065z"/>
		<path fill="#FFFFFF" d="M19.049,11.688l-4.403-2.939l4.403-2.931l4.406,2.931L19.049,11.688z"/>
	</g>
</g>
<g id="Legende">
</g>
<g id="Symbole">
</g>
</svg>
