<?xml version="1.0" encoding="utf-8"?>
<!-- Generator: Adobe Illustrator 16.0.5, SVG Export Plug-In . SVG Version: 6.00 Build 0)  -->
<!DOCTYPE svg PUBLIC "-//W3C//DTD SVG 1.1//EN" "http://www.w3.org/Graphics/SVG/1.1/DTD/svg11.dtd">
<svg version="1.1" xmlns="http://www.w3.org/2000/svg" xmlns:xlink="http://www.w3.org/1999/xlink" x="0px" y="0px" width="54.25px"
	 height="42.01px" viewBox="0 0 54.25 42.01" enable-background="new 0 0 54.25 42.01" xml:space="preserve">
<symbol  id="Schlüssel_Schwarz" viewBox="-55.49 -27.448 110.98 54.896">
	<g>
		<path d="M28.045-24.948c-9.479,0-18.049,5.323-22.279,13.697l-10.737-0.021l-5.056,5.562l-0.167,0.413
			c-0.549,1.358-1.484,2.009-2.941,2.048l-0.104,0.001c-1.523,0-2.618-0.808-3.083-2.274l-0.237-0.748l-7.498-5.752l-6.861,6.206
			l-0.187-0.031l-2.418-3.4l-7.64-0.016l-0.728,0.696C-43.818-6.724-49-1.775-49.833-1.039c-1.654,1.458-3.144,2.938-3.157,4.961
			c-0.005,0.823,0.253,2.045,1.52,3.191l0.259,0.234l3.134,1.547l2.823,1.682H5.435c4.067,8.663,12.943,14.372,22.61,14.372
			c13.755,0,24.945-11.186,24.945-24.935C52.99-13.75,41.8-24.948,28.045-24.948z"/>
		<path fill="#FFFFFF" d="M28.045,22.448c12.396,0,22.445-10.043,22.445-22.435c0-12.408-10.049-22.462-22.445-22.462
			c-9.295,0-17.271,5.648-20.686,13.699L-3.867-8.771l-4.01,4.412c-0.923,2.282-2.727,3.542-5.191,3.608
			c-0.057,0.001-0.114,0.002-0.17,0.002c-2.609,0-4.666-1.492-5.466-4.018l-5.221-4.005l-6.209,5.615l-2.404-0.395l-2.276-3.202
			l-5.347-0.01c0,0-6.963,6.666-8.014,7.596c-1.996,1.76-3.129,3.058-1.617,4.427l2.91,1.437l2.316,1.38h51.65
			C10.322,16.48,18.484,22.448,28.045,22.448 M28.045,27.448c-10.09,0-19.396-5.653-24.145-14.372h-48.466h-1.376l-1.183-0.704
			l-2.147-1.28l-2.732-1.348l-0.626-0.309l-0.518-0.469c-1.522-1.38-2.354-3.177-2.341-5.062c0.022-3.31,2.517-5.509,4.007-6.823
			c0.706-0.624,5.198-4.906,7.863-7.456l1.454-1.393l2.014,0.004l5.347,0.01l2.573,0.006l1.491,2.098l0.13,0.183l3.331-3.012
			l3.09-2.795l3.307,2.535l5.221,4.003l1.248,0.958l0.475,1.499c0.146,0.46,0.288,0.529,0.701,0.529
			c0.493-0.013,0.541-0.026,0.727-0.486l0.335-0.828l0.6-0.659l4.01-4.411l1.492-1.642l2.218,0.004l8.136,0.018
			c4.867-8.417,13.866-13.694,23.766-13.694c15.133,0,27.445,12.318,27.445,27.462C55.49,15.142,43.178,27.448,28.045,27.448
			L28.045,27.448z"/>
	</g>
	<g>
		<path fill="#FFFFFF" d="M38.152-8.905c-4.523,0-8.203,3.676-8.203,8.193c0,4.52,3.68,8.196,8.203,8.196s8.203-3.677,8.203-8.196
			C46.355-5.229,42.676-8.905,38.152-8.905z"/>
		<path d="M38.152,4.484c2.877,0,5.203-2.322,5.203-5.196c0-2.873-2.326-5.193-5.203-5.193c-2.87,0-5.203,2.32-5.203,5.193
			C32.949,2.162,35.282,4.484,38.152,4.484 M38.152,10.484c-6.177,0-11.203-5.022-11.203-11.196c0-6.172,5.026-11.193,11.203-11.193
			S49.355-6.884,49.355-0.712C49.355,5.462,44.33,10.484,38.152,10.484L38.152,10.484z"/>
	</g>
</symbol>
<g id="Ebene_1">
	<g>
		<path fill="#FFFFFF" stroke="#000000" stroke-width="0.0889" d="M4.011,41.005c-1.959,0-3.556-1.592-3.556-3.556V4.561
			c0-1.964,1.597-3.556,3.556-3.556H50.24c1.958,0,3.555,1.592,3.555,3.556v32.888c0,1.964-1.597,3.556-3.555,3.556H4.011z"/>
		<path d="M4.011,40.116c-1.467,0-2.661-1.191-2.661-2.667V4.561c0-1.476,1.194-2.667,2.661-2.667H50.24
			c1.466,0,2.661,1.191,2.661,2.667v32.888c0,1.476-1.195,2.667-2.661,2.667H4.011z"/>
		<path fill="#FFFFFF" d="M4.011,38.786c-0.733,0-1.329-0.603-1.329-1.336V4.561c0-0.734,0.596-1.336,1.329-1.336H50.24
			c0.732,0,1.328,0.603,1.328,1.336v32.888c0,0.733-0.596,1.336-1.328,1.336H4.011z"/>
		<path d="M20.192,35.05v-4.465h-0.537v-0.869h0.537v-0.799c0-0.734,0.596-1.336,1.336-1.336h0.8v1.002h-0.739
			c-0.178,0-0.332,0.147-0.332,0.334v0.799h1.071v0.869h-1.071v4.465H20.192z M23.522,35.05v-5.334h1.073v0.6
			c0.624-0.769,1.758-0.891,2.526-0.266c0.001,0.001,0.002,0.002,0.004,0.003l-0.755,0.934c-0.446-0.393-1.115-0.353-1.508,0.087
			c-0.173,0.195-0.268,0.449-0.268,0.708v3.27H23.522z M32.057,32.783h-3.333v0.132c0,0.463,0.286,0.881,0.716,1.051l0,0
			c0.588,0.238,1.269,0.077,1.682-0.412l0.814,0.697c-0.719,0.826-1.876,1.117-2.894,0.709l0,0
			c-0.834-0.332-1.381-1.146-1.381-2.045v-1.063c0-1.217,0.979-2.205,2.196-2.205c1.217,0,2.199,0.987,2.199,2.205V32.783z
			 M28.724,31.852h2.268c0-0.626-0.508-1.133-1.134-1.133S28.724,31.226,28.724,31.852z M33.522,35.05v-5.334h1.073v5.334H33.522z
			 M33.522,28.651v-1.071h1.073v1.071H33.522z"/>
		<path d="M12.506,22.312h-4.61c-0.429,0-0.771-0.34-0.771-0.77v-3.906c0-0.266,0.049-0.527,0.133-0.78l1.997-5.587
			c0.068-0.195-0.031-0.415-0.231-0.488c-0.016-0.003-0.034-0.011-0.053-0.016l0,0c-0.177-0.036-0.31-0.194-0.31-0.375V9.622
			c0-0.211,0.172-0.384,0.388-0.384h34.94c0.685,0,1.289,0.451,1.477,1.113l1.57,5.497c0.06,0.206,0.089,0.421,0.089,0.636v4.293
			c0,0.844-0.692,1.536-1.536,1.536h-5c0-1.91-1.554-3.464-3.464-3.464s-3.465,1.554-3.465,3.464H19.435
			c0-1.91-1.554-3.464-3.465-3.464C14.06,18.848,12.506,20.402,12.506,22.312z M39.816,22.312c0,1.488-1.202,2.69-2.69,2.69
			c-1.489,0-2.691-1.202-2.691-2.69c0-1.489,1.202-2.69,2.691-2.69C38.614,19.622,39.816,20.823,39.816,22.312z M18.662,22.312
			c0,1.488-1.202,2.69-2.691,2.69c-1.487,0-2.69-1.202-2.69-2.69c0-1.489,1.203-2.69,2.69-2.69
			C17.459,19.622,18.662,20.823,18.662,22.312z"/>
		<path fill="#FFFFFF" d="M9.098,16.157c-0.322,0-0.577-0.26-0.577-0.572c0-0.07,0.012-0.137,0.035-0.195l1.509-4.235
			c0.079-0.227,0.299-0.378,0.547-0.378H13.7c0.321,0,0.583,0.258,0.583,0.572v4.237c0,0.313-0.262,0.572-0.583,0.572H9.098z
			 M15.857,16.157c-0.322,0-0.577-0.26-0.577-0.572v-4.237c0-0.314,0.255-0.572,0.577-0.572h2.835c0.26,0,0.48,0.167,0.553,0.414
			l1.211,4.236c0.084,0.302-0.094,0.625-0.396,0.708c-0.053,0.018-0.109,0.023-0.16,0.023H15.857z M22.096,16.157
			c-0.254,0-0.482-0.168-0.549-0.416l-1.209-4.233c-0.092-0.303,0.086-0.626,0.391-0.708c0.058-0.02,0.108-0.023,0.158-0.023h3.883
			c0.256,0,0.481,0.167,0.548,0.414l1.211,4.236c0.089,0.302-0.089,0.625-0.391,0.708c-0.058,0.018-0.11,0.023-0.16,0.023H22.096z
			 M28.173,16.157c-0.257,0-0.481-0.168-0.551-0.416l-1.211-4.233c-0.086-0.303,0.092-0.626,0.395-0.708
			c0.056-0.02,0.109-0.023,0.159-0.023h3.881c0.253,0,0.483,0.167,0.551,0.414l1.207,4.236c0.093,0.302-0.085,0.625-0.391,0.708
			c-0.057,0.018-0.106,0.023-0.157,0.023H28.173z M34.252,16.157c-0.26,0-0.481-0.168-0.555-0.416l-1.211-4.233
			c-0.083-0.303,0.095-0.626,0.397-0.708c0.051-0.02,0.109-0.023,0.16-0.023h3.875c0.256,0,0.488,0.167,0.556,0.414l1.208,4.236
			c0.092,0.302-0.086,0.625-0.396,0.708c-0.051,0.018-0.102,0.023-0.156,0.023H34.252z M40.331,16.157
			c-0.261,0-0.481-0.168-0.56-0.416l-1.207-4.233c-0.082-0.303,0.095-0.626,0.399-0.708c0.048-0.02,0.104-0.023,0.159-0.023h3.872
			c0.259,0,0.487,0.167,0.559,0.414l1.208,4.236c0.088,0.302-0.087,0.625-0.399,0.708c-0.048,0.018-0.099,0.023-0.156,0.023H40.331z
			"/>
	</g>
</g>
<g id="Legende">
</g>
<g id="Symbole">
</g>
</svg>
