<?xml version="1.0" encoding="utf-8"?>
<!-- Generator: Adobe Illustrator 16.0.5, SVG Export Plug-In . SVG Version: 6.00 Build 0)  -->
<!DOCTYPE svg PUBLIC "-//W3C//DTD SVG 1.1//EN" "http://www.w3.org/Graphics/SVG/1.1/DTD/svg11.dtd">
<svg version="1.1" xmlns="http://www.w3.org/2000/svg" xmlns:xlink="http://www.w3.org/1999/xlink" x="0px" y="0px" width="42.01px"
	 height="42.01px" viewBox="0 0 42.01 42.01" enable-background="new 0 0 42.01 42.01" xml:space="preserve">
<symbol  id="Schlüssel_Schwarz" viewBox="-55.49 -27.448 110.98 54.896">
	<g>
		<path d="M28.045-24.948c-9.479,0-18.049,5.323-22.279,13.697l-10.737-0.021l-5.056,5.562l-0.167,0.413
			c-0.549,1.358-1.484,2.009-2.941,2.048l-0.104,0.001c-1.523,0-2.618-0.808-3.083-2.274l-0.237-0.748l-7.498-5.752l-6.861,6.206
			l-0.187-0.031l-2.418-3.4l-7.64-0.016l-0.728,0.696C-43.818-6.724-49-1.775-49.833-1.039c-1.654,1.458-3.144,2.938-3.157,4.961
			c-0.005,0.823,0.253,2.045,1.52,3.191l0.259,0.234l3.134,1.547l2.823,1.682H5.435c4.067,8.663,12.943,14.372,22.61,14.372
			c13.755,0,24.945-11.186,24.945-24.935C52.99-13.75,41.8-24.948,28.045-24.948z"/>
		<path fill="#FFFFFF" d="M28.045,22.448c12.396,0,22.445-10.043,22.445-22.435c0-12.408-10.049-22.462-22.445-22.462
			c-9.295,0-17.271,5.648-20.686,13.699L-3.867-8.771l-4.01,4.412c-0.923,2.282-2.727,3.542-5.191,3.608
			c-0.057,0.001-0.114,0.002-0.17,0.002c-2.609,0-4.666-1.492-5.466-4.018l-5.221-4.005l-6.209,5.615l-2.404-0.395l-2.276-3.202
			l-5.347-0.01c0,0-6.963,6.666-8.014,7.596c-1.996,1.76-3.129,3.058-1.617,4.427l2.91,1.437l2.316,1.38h51.65
			C10.322,16.48,18.484,22.448,28.045,22.448 M28.045,27.448c-10.09,0-19.396-5.653-24.145-14.372h-48.466h-1.376l-1.183-0.704
			l-2.147-1.28l-2.732-1.348l-0.626-0.309l-0.518-0.469c-1.522-1.38-2.354-3.177-2.341-5.062c0.022-3.31,2.517-5.509,4.007-6.823
			c0.706-0.624,5.198-4.906,7.863-7.456l1.454-1.393l2.014,0.004l5.347,0.01l2.573,0.006l1.491,2.098l0.13,0.183l3.331-3.012
			l3.09-2.795l3.307,2.535l5.221,4.003l1.248,0.958l0.475,1.499c0.146,0.46,0.288,0.529,0.701,0.529
			c0.493-0.013,0.541-0.026,0.727-0.486l0.335-0.828l0.6-0.659l4.01-4.411l1.492-1.642l2.218,0.004l8.136,0.018
			c4.867-8.417,13.866-13.694,23.766-13.694c15.133,0,27.445,12.318,27.445,27.462C55.49,15.142,43.178,27.448,28.045,27.448
			L28.045,27.448z"/>
	</g>
	<g>
		<path fill="#FFFFFF" d="M38.152-8.905c-4.523,0-8.203,3.676-8.203,8.193c0,4.52,3.68,8.196,8.203,8.196s8.203-3.677,8.203-8.196
			C46.355-5.229,42.676-8.905,38.152-8.905z"/>
		<path d="M38.152,4.484c2.877,0,5.203-2.322,5.203-5.196c0-2.873-2.326-5.193-5.203-5.193c-2.87,0-5.203,2.32-5.203,5.193
			C32.949,2.162,35.282,4.484,38.152,4.484 M38.152,10.484c-6.177,0-11.203-5.022-11.203-11.196c0-6.172,5.026-11.193,11.203-11.193
			S49.355-6.884,49.355-0.712C49.355,5.462,44.33,10.484,38.152,10.484L38.152,10.484z"/>
	</g>
</symbol>
<g id="Ebene_1">
	<g>
		<path fill="#FFFFFF" stroke="#000000" stroke-width="0.0667" d="M3.671,41.005c-1.473,0-2.666-1.193-2.666-2.666V3.671
			c0-1.473,1.193-2.666,2.666-2.666h34.668c1.473,0,2.666,1.193,2.666,2.666v34.668c0,1.473-1.193,2.666-2.666,2.666H3.671z"/>
		<path d="M3.671,40.339c-1.104,0-2-0.896-2-2V3.671c0-1.104,0.896-2,2-2h34.668c1.104,0,2,0.896,2,2v34.668c0,1.104-0.896,2-2,2
			H3.671z"/>
		<path fill="#FFFFFF" d="M3.671,39.338c-0.552,0-0.999-0.447-0.999-0.999V3.671c0-0.552,0.447-0.999,0.999-0.999h34.668
			c0.552,0,0.999,0.447,0.999,0.999v34.668c0,0.552-0.447,0.999-0.999,0.999H3.671z"/>
		<path fill="#C20E1A" d="M33.671,17.216c0,6.996-5.671,12.667-12.666,12.667c-6.996,0-12.667-5.67-12.667-12.667
			c0-6.996,5.671-12.666,12.667-12.666C28,4.55,33.671,10.22,33.671,17.216z"/>
		<path fill="#FFFFFF" d="M30.338,17.216c0,5.155-4.179,9.334-9.333,9.334c-5.155,0-9.334-4.179-9.334-9.334
			c0-5.155,4.179-9.333,9.334-9.333C26.159,7.882,30.338,12.061,30.338,17.216z"/>
		<path d="M13.833,19.938h1.578c0.215,0.887,1.109,1.431,1.996,1.217c0.741-0.18,1.264-0.844,1.264-1.606v-0.195
			c0-0.913-0.74-1.653-1.652-1.653h-0.681v-1.36h0.681c0.859,0,1.555-0.697,1.555-1.556c0-0.859-0.696-1.556-1.555-1.556
			c-0.747,0-1.388,0.531-1.529,1.264h-1.569c0.16-1.71,1.679-2.966,3.389-2.806c1.599,0.15,2.82,1.493,2.82,3.098l0,0
			c0,0.886-0.431,1.716-1.155,2.226l0,0c0.783,0.524,1.252,1.403,1.252,2.344v0.195c0,1.772-1.438,3.207-3.208,3.207
			C15.397,22.757,14.03,21.547,13.833,19.938z"/>
		<path d="M21.782,19.647v-4.862c0-1.719,1.393-3.111,3.112-3.111c1.718,0,3.111,1.392,3.111,3.111v4.862
			c0,1.718-1.393,3.11-3.111,3.11C23.175,22.757,21.782,21.365,21.782,19.647z M23.338,19.647c0,0.859,0.696,1.555,1.556,1.555
			s1.555-0.696,1.555-1.555v-4.862c0-0.859-0.696-1.556-1.555-1.556s-1.556,0.696-1.556,1.556V19.647z"/>
		<path d="M11.705,37.46v-0.7l2.55-4.149h-2.451v-0.75h3.5v0.65l-2.551,4.149h2.551v0.8H11.705z M16.105,35.511V33.81
			c0-1.104,0.895-2,2-2c1.105,0,2,0.896,2,2v1.701c0,1.105-0.896,2-2,2C17,37.511,16.105,36.616,16.105,35.511z M16.955,35.511
			c0,0.635,0.515,1.149,1.15,1.149c0.635,0,1.151-0.514,1.151-1.149V33.81c0-0.634-0.516-1.149-1.151-1.149
			c-0.635,0-1.15,0.515-1.15,1.149V35.511z M21.205,37.46v-5.599h0.8l2.55,4v-4h0.85v5.599h-0.8l-2.551-4v4H21.205z M26.705,37.46
			v-5.599h3.601v0.8h-2.75v1.599h2.35v0.75h-2.35v1.649h2.75v0.8H26.705z"/>
	</g>
</g>
<g id="Legende">
</g>
<g id="Symbole">
</g>
</svg>
