<?xml version="1.0" encoding="utf-8"?>
<!-- Generator: Adobe Illustrator 16.0.5, SVG Export Plug-In . SVG Version: 6.00 Build 0)  -->
<!DOCTYPE svg PUBLIC "-//W3C//DTD SVG 1.1//EN" "http://www.w3.org/Graphics/SVG/1.1/DTD/svg11.dtd">
<svg version="1.1" xmlns="http://www.w3.org/2000/svg" xmlns:xlink="http://www.w3.org/1999/xlink" x="0px" y="0px" width="42.01px"
	 height="42.01px" viewBox="0 0 42.01 42.01" enable-background="new 0 0 42.01 42.01" xml:space="preserve">
<symbol  id="Schlüssel_Schwarz" viewBox="-55.49 -27.448 110.98 54.896">
	<g>
		<path d="M28.045-24.948c-9.479,0-18.049,5.323-22.279,13.697l-10.737-0.021l-5.056,5.562l-0.167,0.413
			c-0.549,1.358-1.484,2.009-2.941,2.048l-0.104,0.001c-1.523,0-2.618-0.808-3.083-2.274l-0.237-0.748l-7.498-5.752l-6.861,6.206
			l-0.187-0.031l-2.418-3.4l-7.64-0.016l-0.728,0.696C-43.818-6.724-49-1.775-49.833-1.039c-1.654,1.458-3.144,2.938-3.157,4.961
			c-0.005,0.823,0.253,2.045,1.52,3.191l0.259,0.234l3.134,1.547l2.823,1.682H5.435c4.067,8.663,12.943,14.372,22.61,14.372
			c13.755,0,24.945-11.186,24.945-24.935C52.99-13.75,41.8-24.948,28.045-24.948z"/>
		<path fill="#FFFFFF" d="M28.045,22.448c12.396,0,22.445-10.043,22.445-22.435c0-12.408-10.049-22.462-22.445-22.462
			c-9.295,0-17.271,5.648-20.686,13.699L-3.867-8.771l-4.01,4.412c-0.923,2.282-2.727,3.542-5.191,3.608
			c-0.057,0.001-0.114,0.002-0.17,0.002c-2.609,0-4.666-1.492-5.466-4.018l-5.221-4.005l-6.209,5.615l-2.404-0.395l-2.276-3.202
			l-5.347-0.01c0,0-6.963,6.666-8.014,7.596c-1.996,1.76-3.129,3.058-1.617,4.427l2.91,1.437l2.316,1.38h51.65
			C10.322,16.48,18.484,22.448,28.045,22.448 M28.045,27.448c-10.09,0-19.396-5.653-24.145-14.372h-48.466h-1.376l-1.183-0.704
			l-2.147-1.28l-2.732-1.348l-0.626-0.309l-0.518-0.469c-1.522-1.38-2.354-3.177-2.341-5.062c0.022-3.31,2.517-5.509,4.007-6.823
			c0.706-0.624,5.198-4.906,7.863-7.456l1.454-1.393l2.014,0.004l5.347,0.01l2.573,0.006l1.491,2.098l0.13,0.183l3.331-3.012
			l3.09-2.795l3.307,2.535l5.221,4.003l1.248,0.958l0.475,1.499c0.146,0.46,0.288,0.529,0.701,0.529
			c0.493-0.013,0.541-0.026,0.727-0.486l0.335-0.828l0.6-0.659l4.01-4.411l1.492-1.642l2.218,0.004l8.136,0.018
			c4.867-8.417,13.866-13.694,23.766-13.694c15.133,0,27.445,12.318,27.445,27.462C55.49,15.142,43.178,27.448,28.045,27.448
			L28.045,27.448z"/>
	</g>
	<g>
		<path fill="#FFFFFF" d="M38.152-8.905c-4.523,0-8.203,3.676-8.203,8.193c0,4.52,3.68,8.196,8.203,8.196s8.203-3.677,8.203-8.196
			C46.355-5.229,42.676-8.905,38.152-8.905z"/>
		<path d="M38.152,4.484c2.877,0,5.203-2.322,5.203-5.196c0-2.873-2.326-5.193-5.203-5.193c-2.87,0-5.203,2.32-5.203,5.193
			C32.949,2.162,35.282,4.484,38.152,4.484 M38.152,10.484c-6.177,0-11.203-5.022-11.203-11.196c0-6.172,5.026-11.193,11.203-11.193
			S49.355-6.884,49.355-0.712C49.355,5.462,44.33,10.484,38.152,10.484L38.152,10.484z"/>
	</g>
</symbol>
<g id="Ebene_1">
	<g>
		<path fill="#FFFFFF" stroke="#000000" stroke-width="0.0491" d="M22.393,40.433c-0.768,0.763-2.007,0.763-2.775,0l-18.04-18.04
			c-0.763-0.768-0.763-2.007,0-2.775l18.04-18.04c0.768-0.763,2.007-0.763,2.775,0l18.04,18.04c0.763,0.768,0.763,2.007,0,2.775
			L22.393,40.433z"/>
		<path d="M22.048,40.083c-0.579,0.577-1.507,0.577-2.085,0L1.927,22.047c-0.577-0.578-0.577-1.507,0-2.085L19.962,1.927
			c0.578-0.577,1.507-0.577,2.085,0l18.035,18.035c0.577,0.579,0.577,1.507,0,2.085L22.048,40.083z"/>
		<path fill="#FFFFFF" d="M13.721,32.798l3.712-3.712l3.572,3.573l11.654-11.654l-3.573-3.572l3.712-3.712l6.767,6.767
			c0.285,0.285,0.285,0.75,0,1.035L21.522,39.564c-0.285,0.285-0.75,0.285-1.035,0L13.721,32.798z"/>
		<path fill="#FFFFFF" d="M12.054,31.134l3.712-3.712l0.485,0.487l-3.712,3.712L12.054,31.134z"/>
		<path fill="#FFFFFF" d="M10.388,29.471l3.712-3.712l0.487,0.485l-3.712,3.712L10.388,29.471z"/>
		<path fill="#FFFFFF" d="M9.212,28.289l-6.767-6.767c-0.285-0.285-0.285-0.75,0-1.035L20.487,2.445c0.285-0.285,0.75-0.285,1.035,0
			l6.767,6.767l-3.712,3.712l-3.572-3.573L9.351,21.005l3.573,3.572L9.212,28.289z"/>
		<path fill="#FFFFFF" d="M25.76,14.1l3.711-3.712l0.485,0.487l-3.712,3.712L25.76,14.1z"/>
		<path fill="#FFFFFF" d="M27.422,15.766l3.712-3.712l0.487,0.485L27.91,16.25L27.422,15.766z"/>
		<path fill="#FFED00" d="M13.201,24.298l-3.298-3.293L21.005,9.903l3.293,3.297L13.201,24.298z"/>
		<path fill="#FFED00" d="M14.378,25.48L25.48,14.378l0.484,0.485L14.863,25.965L14.378,25.48z"/>
		<path fill="#FFED00" d="M16.045,27.147l11.102-11.102l0.485,0.484L16.529,27.632L16.045,27.147z"/>
		<path fill="#FFED00" d="M17.712,28.81L28.81,17.712l3.298,3.293L21.005,32.107L17.712,28.81z"/>
	</g>
</g>
<g id="Legende">
</g>
<g id="Symbole">
</g>
</svg>
