<?xml version="1.0" encoding="utf-8"?>
<!-- Generator: Adobe Illustrator 16.0.5, SVG Export Plug-In . SVG Version: 6.00 Build 0)  -->
<!DOCTYPE svg PUBLIC "-//W3C//DTD SVG 1.1//EN" "http://www.w3.org/Graphics/SVG/1.1/DTD/svg11.dtd">
<svg version="1.1" xmlns="http://www.w3.org/2000/svg" xmlns:xlink="http://www.w3.org/1999/xlink" x="0px" y="0px" width="76.21px"
	 height="29.024px" viewBox="0 0 76.21 29.024" enable-background="new 0 0 76.21 29.024" xml:space="preserve">
<symbol  id="Schlüssel_Schwarz" viewBox="-55.49 -27.448 110.98 54.896">
	<g>
		<path d="M28.045-24.948c-9.479,0-18.049,5.323-22.279,13.697l-10.737-0.021l-5.056,5.562l-0.167,0.413
			c-0.549,1.358-1.484,2.009-2.941,2.048l-0.104,0.001c-1.523,0-2.618-0.808-3.083-2.274l-0.237-0.748l-7.498-5.752l-6.861,6.206
			l-0.187-0.031l-2.418-3.4l-7.64-0.016l-0.728,0.696C-43.818-6.724-49-1.775-49.833-1.039c-1.654,1.458-3.144,2.938-3.157,4.961
			c-0.005,0.823,0.253,2.045,1.52,3.191l0.259,0.234l3.134,1.547l2.823,1.682H5.435c4.067,8.663,12.943,14.372,22.61,14.372
			c13.755,0,24.945-11.186,24.945-24.935C52.99-13.75,41.8-24.948,28.045-24.948z"/>
		<path fill="#FFFFFF" d="M28.045,22.448c12.396,0,22.445-10.043,22.445-22.435c0-12.408-10.049-22.462-22.445-22.462
			c-9.295,0-17.271,5.648-20.686,13.699L-3.867-8.771l-4.01,4.412c-0.923,2.282-2.727,3.542-5.191,3.608
			c-0.057,0.001-0.114,0.002-0.17,0.002c-2.609,0-4.666-1.492-5.466-4.018l-5.221-4.005l-6.209,5.615l-2.404-0.395l-2.276-3.202
			l-5.347-0.01c0,0-6.963,6.666-8.014,7.596c-1.996,1.76-3.129,3.058-1.617,4.427l2.91,1.437l2.316,1.38h51.65
			C10.322,16.48,18.484,22.448,28.045,22.448 M28.045,27.448c-10.09,0-19.396-5.653-24.145-14.372h-48.466h-1.376l-1.183-0.704
			l-2.147-1.28l-2.732-1.348l-0.626-0.309l-0.518-0.469c-1.522-1.38-2.354-3.177-2.341-5.062c0.022-3.31,2.517-5.509,4.007-6.823
			c0.706-0.624,5.198-4.906,7.863-7.456l1.454-1.393l2.014,0.004l5.347,0.01l2.573,0.006l1.491,2.098l0.13,0.183l3.331-3.012
			l3.09-2.795l3.307,2.535l5.221,4.003l1.248,0.958l0.475,1.499c0.146,0.46,0.288,0.529,0.701,0.529
			c0.493-0.013,0.541-0.026,0.727-0.486l0.335-0.828l0.6-0.659l4.01-4.411l1.492-1.642l2.218,0.004l8.136,0.018
			c4.867-8.417,13.866-13.694,23.766-13.694c15.133,0,27.445,12.318,27.445,27.462C55.49,15.142,43.178,27.448,28.045,27.448
			L28.045,27.448z"/>
	</g>
	<g>
		<path fill="#FFFFFF" d="M38.152-8.905c-4.523,0-8.203,3.676-8.203,8.193c0,4.52,3.68,8.196,8.203,8.196s8.203-3.677,8.203-8.196
			C46.355-5.229,42.676-8.905,38.152-8.905z"/>
		<path d="M38.152,4.484c2.877,0,5.203-2.322,5.203-5.196c0-2.873-2.326-5.193-5.203-5.193c-2.87,0-5.203,2.32-5.203,5.193
			C32.949,2.162,35.282,4.484,38.152,4.484 M38.152,10.484c-6.177,0-11.203-5.022-11.203-11.196c0-6.172,5.026-11.193,11.203-11.193
			S49.355-6.884,49.355-0.712C49.355,5.462,44.33,10.484,38.152,10.484L38.152,10.484z"/>
	</g>
</symbol>
<g id="Ebene_1">
	<g>
		<path fill="#FFED00" stroke="#000000" stroke-width="0.0367" d="M3.59,23.692c-1.217,0-2.203-0.987-2.203-2.203V7.536
			c0-1.216,0.986-2.203,2.203-2.203h55.765c1.16,0,2.3,0.305,3.304,0.887l11.062,6.385c1.054,0.608,1.414,1.956,0.807,3.009
			c-0.194,0.335-0.472,0.613-0.807,0.807L62.66,22.806c-1.004,0.58-2.145,0.886-3.304,0.886H3.59z"/>
		<path d="M3.59,23.141c-0.914,0-1.652-0.74-1.652-1.652V7.536c0-0.912,0.739-1.652,1.652-1.652h55.765
			c1.064,0,2.109,0.28,3.029,0.812l11.062,6.386c0.79,0.456,1.061,1.467,0.605,2.257c-0.145,0.251-0.353,0.459-0.605,0.605
			l-11.062,6.385c-0.92,0.533-1.965,0.813-3.029,0.813H3.59z"/>
		<path fill="#FFED00" d="M3.59,22.223c-0.406,0-0.735-0.329-0.735-0.734V7.536c0-0.405,0.329-0.734,0.735-0.734h55.765
			c0.903,0,1.789,0.238,2.571,0.689l11.06,6.385c0.353,0.204,0.472,0.652,0.269,1.004c-0.063,0.112-0.157,0.204-0.269,0.27
			l-11.06,6.385c-0.782,0.452-1.668,0.689-2.571,0.689H3.59z"/>
		<path d="M10.004,10.657h1.17v5.025c0,0.875,0.709,1.583,1.583,1.583c0.876,0,1.584-0.708,1.584-1.583v-5.025h1.17v5.025
			c0,1.521-1.233,2.754-2.755,2.754c-1.521,0-2.753-1.233-2.753-2.754V10.657z"/>
		<path d="M17.027,18.368V12.86h1.101v0.622c0.645-0.799,1.815-0.923,2.614-0.277c0.125,0.099,0.236,0.217,0.33,0.345l0,0
			c0.724-0.884,2.022-1.014,2.907-0.294c0.48,0.394,0.759,0.979,0.759,1.601v3.511h-1.101v-3.373c0-0.61-0.494-1.102-1.103-1.102
			c-0.609,0-1.103,0.492-1.103,1.102v3.373h-1.101v-3.373c0-0.61-0.493-1.102-1.103-1.102c-0.607,0-1.1,0.492-1.1,1.102v3.373
			H17.027z"/>
		<path d="M28.179,18.368h-0.688c-0.684,0-1.239-0.555-1.239-1.24v-6.471h1.101v6.333c0,0.191,0.155,0.345,0.346,0.345h0.481V18.368
			z"/>
		<path d="M33.825,16.026h-3.443v0.138c0,0.478,0.292,0.91,0.737,1.087l0,0c0.612,0.246,1.312,0.073,1.742-0.428l0.836,0.718
			c-0.735,0.858-1.938,1.152-2.987,0.733l0,0c-0.863-0.346-1.428-1.18-1.428-2.11v-1.102c0-1.254,1.016-2.272,2.271-2.272
			c1.255,0,2.272,1.018,2.272,2.272V16.026z M30.381,15.063h2.343c0-0.646-0.525-1.169-1.171-1.169S30.381,14.417,30.381,15.063z"/>
		<path d="M35.34,18.368V12.86h1.101v5.508H35.34z M35.34,11.758v-1.101h1.101v1.101H35.34z"/>
		<path d="M40.434,18.368h-0.689c-0.684,0-1.238-0.555-1.238-1.24v-3.373h-0.551V12.86h0.551v-1.652h1.101v1.652h0.826v0.896h-0.826
			v3.234c0,0.191,0.154,0.345,0.345,0.345h0.481V18.368z"/>
		<path d="M46.079,18.368h-1.1v-0.622c-0.646,0.798-1.816,0.922-2.615,0.277c-0.437-0.353-0.691-0.886-0.691-1.445V12.86h1.101
			v3.373c0,0.609,0.494,1.102,1.102,1.102c0.609,0,1.103-0.493,1.103-1.102V12.86h1.1V18.368z"/>
		<path d="M47.732,18.368V12.86h1.101v0.622c0.646-0.799,1.817-0.923,2.614-0.277c0.437,0.353,0.691,0.883,0.691,1.445v3.718h-1.102
			v-3.373c0-0.61-0.493-1.102-1.101-1.102c-0.609,0-1.103,0.492-1.103,1.102v3.373H47.732z"/>
		<path d="M58.059,12.86v5.577c0,0.834-0.472,1.597-1.218,1.971l0,0c-1.052,0.526-2.33,0.25-3.072-0.663l0.854-0.694
			c0.417,0.511,1.134,0.667,1.726,0.37l0,0c0.373-0.185,0.608-0.566,0.608-0.984v-0.69c-0.645,0.798-1.815,0.922-2.615,0.277
			c-0.435-0.353-0.689-0.886-0.689-1.445v-1.929c0-1.026,0.833-1.859,1.86-1.859c0.56,0,1.091,0.254,1.444,0.691V12.86H58.059z
			 M56.957,16.233v-1.238c0-0.61-0.493-1.102-1.101-1.102c-0.609,0-1.103,0.492-1.103,1.102v1.238c0,0.609,0.494,1.102,1.103,1.102
			C56.464,17.335,56.957,16.842,56.957,16.233z"/>
	</g>
</g>
<g id="Legende">
</g>
<g id="Symbole">
</g>
</svg>
