<?xml version="1.0" encoding="UTF-8" standalone="no"?>
<!-- Created with Inkscape (http://www.inkscape.org/) -->

<svg
   xmlns:dc="http://purl.org/dc/elements/1.1/"
   xmlns:cc="http://creativecommons.org/ns#"
   xmlns:rdf="http://www.w3.org/1999/02/22-rdf-syntax-ns#"
   xmlns:svg="http://www.w3.org/2000/svg"
   xmlns="http://www.w3.org/2000/svg"
   xmlns:sodipodi="http://sodipodi.sourceforge.net/DTD/sodipodi-0.dtd"
   xmlns:inkscape="http://www.inkscape.org/namespaces/inkscape"
   version="1.1"
   width="18"
   height="18"
   id="svg4619"
   inkscape:version="0.91 r13725"
   sodipodi:docname="620_parken_old.svg">
  <sodipodi:namedview
     pagecolor="#ffffff"
     bordercolor="#666666"
     borderopacity="1"
     objecttolerance="10"
     gridtolerance="10"
     guidetolerance="10"
     inkscape:pageopacity="0"
     inkscape:pageshadow="2"
     inkscape:window-width="1680"
     inkscape:window-height="1028"
     id="namedview10"
     showgrid="false"
     inkscape:zoom="26.222222"
     inkscape:cx="14.691935"
     inkscape:cy="7.0429354"
     inkscape:window-x="1672"
     inkscape:window-y="-8"
     inkscape:window-maximized="1"
     inkscape:current-layer="svg4619" />
  <defs
     id="defs4621" />
  <metadata
     id="metadata4624">
    <rdf:RDF>
      <cc:Work
         rdf:about="">
        <dc:format>image/svg+xml</dc:format>
        <dc:type
           rdf:resource="http://purl.org/dc/dcmitype/StillImage" />
        <dc:title />
      </cc:Work>
    </rdf:RDF>
  </metadata>
  <path
     inkscape:connector-curvature="0"
     style="fill:#f2f2f0;stroke:#f2f2f0;stroke-width:1.37747562;stroke-miterlimit:10"
     stroke-miterlimit="10"
     d="m 13.582098,17.283658 -9.0408974,0 c -0.5565631,0 -1.0190605,-0.454135 -1.0190605,-1.00063 l 0,-14.5219741 c 0,-0.5464996 0.4624974,-1.000632 1.0190605,-1.000632 l 9.0330564,0 c 0.556565,0 1.019063,0.4541324 1.019063,1.000632 l 0,14.5219741 c -0.0025,0.546495 -0.454659,1.00063 -1.011222,1.00063 z"
     id="path3" />
  <path
     inkscape:connector-curvature="0"
     style="fill:#005387;stroke:#282727;stroke-width:0.47124168;stroke-miterlimit:10"
     stroke-miterlimit="10"
     d="m 13.608226,17.283658 -9.0408947,0 c -0.5565646,0 -1.0190619,-0.454135 -1.0190619,-1.00063 l 0,-14.5219741 c 0,-0.5464996 0.4624973,-1.000632 1.0190619,-1.000632 l 9.0330567,0 c 0.556564,0 1.019061,0.4541324 1.019061,1.000632 l 0,14.5219741 c -0.0025,0.546495 -0.454658,1.00063 -1.011223,1.00063 z"
     id="path5" />
  <path
     inkscape:connector-curvature="0"
     style="fill:#ffffff;stroke:#282727;stroke-width:0.47124168;stroke-miterlimit:10"
     stroke-miterlimit="10"
     d="m 13.608226,17.283658 -9.0408947,0 c -0.5565646,0 -1.0190619,-0.472095 -1.0190619,-1.051945 l 0,-5.464983 11.0685646,0 0,5.470114 c 0,0.567025 -0.452043,1.046814 -1.008608,1.046814 z"
     id="path7" />
  <g
     transform="matrix(0.02612975,0,0,0.0256572,-0.07592699,0.04202198)"
     id="g9">
    <path
       style="fill:#faf8f8"
       inkscape:connector-curvature="0"
       d="m 278,157.5 57.1,0 c 22.6,0 38.2,0.7 47,1.7 8.9,1.2 17.2,3.8 25.1,8.9 7.9,4.6 15,11.9 21,21.9 6.2,10 9.4,23.1 9.4,38.9 0,16.2 -3.3,29.7 -9.8,39.6 -6.4,10 -13.9,17.5 -22.4,22.4 -8.4,4.8 -18,8.1 -28.2,9.4 -10.5,1.2 -23.6,2 -40.4,2 l -17,0 0,87.6 -41.8,0 0,-232.4 0,0 z m 42.1,108.9 12.4,0 c 26,0 42.7,-2.8 50.3,-8.4 7.6,-5.5 11,-15 11,-28.2 0,-9.8 -2.3,-17.2 -7.1,-23.1 -4.6,-5.8 -11,-9.4 -19.1,-11.4 -8.1,-1.7 -20.8,-2.6 -37.8,-2.6 l -9.8,0 c 0.1,0.1 0.1,73.7 0.1,73.7 z"
       id="path11" />
    <line
       style="fill:none;stroke:#faf8f8;stroke-width:25.41329956;stroke-miterlimit:10"
       stroke-miterlimit="10"
       x1="171.5"
       y1="136.89999"
       x2="355.70001"
       y2="70.099998"
       id="line13" />
    <line
       style="fill:none;stroke:#faf8f8;stroke-width:25.41329956;stroke-miterlimit:10"
       stroke-miterlimit="10"
       x1="528.5"
       y1="136.89999"
       x2="344.29999"
       y2="70.099998"
       id="line15" />
  </g>
</svg>
