<?xml version="1.0" encoding="utf-8"?>
<!-- Generator: Adobe Illustrator 14.0.0, SVG Export Plug-In . SVG Version: 6.00 Build 43363)  -->
<!DOCTYPE svg PUBLIC "-//W3C//DTD SVG 1.1//EN" "http://www.w3.org/Graphics/SVG/1.1/DTD/svg11.dtd">
<svg version="1.1" id="Ebene_1" xmlns="http://www.w3.org/2000/svg" xmlns:xlink="http://www.w3.org/1999/xlink" x="0px" y="0px"
	 width="22px" height="22px" viewBox="0 0 22 22" enable-background="new 0 0 22 22" xml:space="preserve">
<g>
	<path fill="#FFFFFF" stroke="#FFFFFF" stroke-width="0.5" d="M19.5,6.692c0,0.094-0.035,0.184-0.102,0.25L7.013,19.396
		c-0.138,0.139-0.362,0.139-0.502,0.002L2.606,15.56c-0.14-0.14-0.141-0.361-0.003-0.502L14.988,2.605
		c0.137-0.139,0.359-0.14,0.502-0.003l3.904,3.84C19.463,6.508,19.5,6.598,19.5,6.692z M6.758,18.647L18.643,6.696l-3.4-3.343
		L3.357,15.303L6.758,18.647z"/>
	<g>
		<path fill="#FFFFFF" stroke="#FFFFFF" stroke-width="0.5" d="M5.566,14.623c0,0.079-0.028,0.157-0.088,0.216
			c-0.118,0.122-0.31,0.122-0.428,0.003l-0.84-0.833c-0.119-0.119-0.12-0.311-0.002-0.432c0.118-0.119,0.309-0.12,0.428-0.002
			l0.84,0.832C5.535,14.469,5.565,14.547,5.566,14.623z"/>
		<path fill="#FFFFFF" stroke="#FFFFFF" stroke-width="0.5" d="M8.625,13.866c0.001,0.092-0.033,0.183-0.102,0.254
			c-0.139,0.137-0.363,0.138-0.502,0.001l-1.935-1.902c-0.14-0.137-0.141-0.36-0.002-0.5c0.138-0.138,0.362-0.139,0.501-0.001
			l1.934,1.9C8.59,13.688,8.625,13.776,8.625,13.866z"/>
		<path fill="#FFFFFF" stroke="#FFFFFF" stroke-width="0.5" d="M12.348,10.123c0,0.091-0.031,0.181-0.102,0.25
			c-0.139,0.139-0.363,0.14-0.502,0.003L9.81,8.475C9.67,8.338,9.669,8.114,9.808,7.976c0.137-0.139,0.363-0.14,0.502-0.003
			l1.935,1.901C12.312,9.943,12.348,10.033,12.348,10.123z"/>
		<path fill="#FFFFFF" stroke="#FFFFFF" stroke-width="0.5" d="M16.072,6.38c0,0.091-0.033,0.181-0.102,0.25
			c-0.141,0.139-0.363,0.14-0.504,0.003l-1.934-1.901c-0.141-0.137-0.143-0.361-0.002-0.499c0.139-0.139,0.363-0.14,0.502-0.003
			l1.934,1.901C16.037,6.199,16.072,6.29,16.072,6.38z"/>
		<path fill="#FFFFFF" stroke="#FFFFFF" stroke-width="0.5" d="M9.472,10.81c0,0.078-0.028,0.156-0.087,0.217
			c-0.119,0.119-0.311,0.121-0.429,0.002l-0.84-0.833c-0.12-0.118-0.12-0.31-0.003-0.431c0.118-0.12,0.31-0.122,0.429-0.002
			l0.84,0.833C9.442,10.654,9.472,10.733,9.472,10.81z"/>
		<path fill="#FFFFFF" stroke="#FFFFFF" stroke-width="0.5" d="M12.988,7.261c0,0.078-0.029,0.155-0.088,0.215
			c-0.117,0.12-0.311,0.121-0.43,0.003l-0.84-0.834c-0.119-0.118-0.119-0.311,0-0.431c0.117-0.119,0.311-0.121,0.426-0.002
			L12.9,7.045C12.957,7.105,12.988,7.183,12.988,7.261z"/>
	</g>
</g>
</svg>
