<svg xmlns="http://www.w3.org/2000/svg" viewBox="0 0 223.36 187.18"><defs><style>.cls-1{fill:#1d1d1b;}</style></defs><title>Element 9</title><g id="Ebene_2" data-name="Ebene 2"><g id="Ebene_1-2" data-name="Ebene 1"><path class="cls-1" d="M133.92,94.53a7.51,7.51,0,1,0,7.51,7.51,7.52,7.52,0,0,0-7.51-7.51m0,3a4.55,4.55,0,1,1-4.55,4.56,4.56,4.56,0,0,1,4.55-4.56M81.1,102a7.51,7.51,0,1,0-7.51,7.51A7.52,7.52,0,0,0,81.1,102m-3,0a4.55,4.55,0,1,1-4.56-4.55A4.56,4.56,0,0,1,78.14,102M95.71,69.33H81.63a1.48,1.48,0,0,1,0-3H95.71a1.48,1.48,0,0,1,0,3m24.13,28.51A1.83,1.83,0,1,1,121.68,96a1.84,1.84,0,0,1-1.83,1.83m-8,0A1.83,1.83,0,1,1,113.63,96a1.84,1.84,0,0,1-1.83,1.83m-8,0A1.83,1.83,0,1,1,105.59,96a1.83,1.83,0,0,1-1.83,1.83m-8,0A1.83,1.83,0,1,1,97.54,96a1.83,1.83,0,0,1-1.83,1.83m-8,0A1.83,1.83,0,1,1,89.5,96a1.83,1.83,0,0,1-1.83,1.83m32.18,12.07a1.83,1.83,0,1,1,1.83-1.83,1.84,1.84,0,0,1-1.83,1.83m-8,0a1.83,1.83,0,1,1,1.83-1.83,1.84,1.84,0,0,1-1.83,1.83m-8,0a1.83,1.83,0,1,1,1.83-1.83,1.83,1.83,0,0,1-1.83,1.83m-8,0a1.83,1.83,0,1,1,1.83-1.83,1.83,1.83,0,0,1-1.83,1.83m-8,0a1.83,1.83,0,1,1,1.83-1.83,1.84,1.84,0,0,1-1.83,1.83M184,31.72,178.51,4.47a5.55,5.55,0,0,0-10.74-.59l-.09.28-.28.07-37.19,9.7a2.52,2.52,0,0,0-1.41,1l-9.47,13.26H102a5.5,5.5,0,0,0-5.5,5.5V51.29a1,1,0,0,1-1,1H85c.87-1.06,1.72-2.13,2.5-3.23h0l0,0a43.27,43.27,0,0,0,2.52-4l.19-.36q.4-.74.76-1.49l.26-.57q.29-.64.55-1.29l.24-.61c.15-.41.29-.83.42-1.25.06-.2.13-.4.19-.6.12-.42.22-.84.31-1.26,0-.19.09-.37.13-.56.09-.44.15-.89.2-1.33,0-.15.05-.31.07-.46.06-.59.09-1.18.09-1.76A17.13,17.13,0,0,0,76.36,16.39,17.73,17.73,0,0,0,66.9,19a16.67,16.67,0,0,0-4.31,3.88A16.67,16.67,0,0,0,58.29,19a17.73,17.73,0,0,0-9.46-2.61A17.13,17.13,0,0,0,31.73,33.5c0,.59,0,1.17.09,1.76,0,.16,0,.31.07.47.06.44.11.88.2,1.32,0,.19.09.38.13.57.09.42.19.83.31,1.24.06.2.13.41.19.62.13.41.26.82.42,1.23.08.21.16.42.25.63q.25.63.54,1.27l.27.59q.35.73.74,1.45l.21.4a43.28,43.28,0,0,0,2.51,4l0,0h0c8.52,12,23.26,21.63,24.13,22.19a1.45,1.45,0,0,0,.79.23h0a1.45,1.45,0,0,0,.79-.23c.3-.19,2.22-1.45,4.95-3.49V80.89a2.51,2.51,0,0,0,2.51,2.51H90.46v5.09H74.17a13.76,13.76,0,0,0-13.87,13,13.51,13.51,0,0,0,5.12,11.11H43a1.48,1.48,0,0,0,0,3H167a1.48,1.48,0,1,0,0-3H142.59a13.51,13.51,0,0,0,5.12-11.11,13.76,13.76,0,0,0-13.87-13H117.55V83.41h9.55a2.51,2.51,0,0,0,2.51-2.51V54.26a41.68,41.68,0,0,0-1.38-10.62l-.06-.24.15-.2,8.31-11.63a2,2,0,0,1,1.18-.79l31.61-7.44.57-.13.08.58.81,5.7v.1l0,.1L161.24,72l-.09.41h-1.29a8.61,8.61,0,0,1-8.25-6.22l-1.68-5.89-.07-.24.14-.21,2.39-3.59a1.48,1.48,0,0,0-2.46-1.64l-2.85,4.27v0l0,0L139.45,68a11.82,11.82,0,0,0,9.08,19.38H162a7.76,7.76,0,0,0,7.78-6.76,7.06,7.06,0,0,0-.08-2.1l.22-.74ZM167.69,7.21l.44,3.06-23,2.63ZM68.33,57.79v6.3c-2.57,2-4.66,3.47-5.74,4.2A118.05,118.05,0,0,1,49.32,57.71l0,0-1.11-1.05-.23-.22-1-.94L46.5,55l-.73-.75q-.61-.64-1.21-1.29h0a58.86,58.86,0,0,1-4.49-5.5l0-.05a34.2,34.2,0,0,1-4-7.26l0,0c-.2-.52-.38-1-.54-1.56l-.08-.25c-.13-.45-.24-.89-.34-1.33,0-.11-.05-.22-.08-.34-.08-.42-.14-.83-.19-1.24,0-.11,0-.23,0-.34a15,15,0,0,1-.08-1.52A14.23,14.23,0,0,1,48.84,19.29a14.9,14.9,0,0,1,7.67,2,13.94,13.94,0,0,1,4.85,4.85,1.45,1.45,0,0,0,1.24.7h0a1.44,1.44,0,0,0,.3,0H63a1.45,1.45,0,0,0,.87-.66,13.88,13.88,0,0,1,7.59-6.1l.73-.22a15.46,15.46,0,0,1,3.2-.53l1,0A14.23,14.23,0,0,1,90.57,33.5,15,15,0,0,1,90.49,35c0,.12,0,.23,0,.35-.05.41-.11.82-.19,1.23,0,.12-.05.23-.08.35-.09.43-.2.87-.33,1.31l-.08.27c-.15.5-.33,1-.52,1.51l0,.09a34.24,34.24,0,0,1-4,7.24v0a57,57,0,0,1-4,4.89H73.83A5.5,5.5,0,0,0,68.33,57.79Zm65.84,33.66a10.59,10.59,0,0,1,0,21.18H73.83a10.59,10.59,0,0,1,0-21.18Zm-40.76-3V83.41h21.18v5.09H93.41Zm33.24-9.05a1,1,0,0,1-1,1H72.3a1,1,0,0,1-1-1V57.79a2.54,2.54,0,0,1,2.54-2.54h23.1a2.51,2.51,0,0,0,2.51-2.52V33.66A2.54,2.54,0,0,1,102,31.11h4.55V53.77a9.52,9.52,0,0,0,9.52,9.52h10.59Zm0-19.11H116.07a6.57,6.57,0,0,1-6.57-6.57V31.11h9.7a2.54,2.54,0,0,1,2.41,1.74L124.67,42a38.7,38.7,0,0,1,2,12.25Zm42.42-40-32.85,7.73a2.52,2.52,0,0,0-1.47,1L127.67,39l-.61.85-.33-1-2.31-6.94a5.49,5.49,0,0,0-1.74-2.5l-.39-.32.29-.4,7.85-11a2,2,0,0,1,1.44-.83L168,13.26l.51-.05.07.51.87,6.07.07.48Zm-6.75,64.1h-13.8a8.86,8.86,0,0,1-6.8-14.53L147,63.67l.64-.77.28,1,.89,3.13a11.59,11.59,0,0,0,11.09,8.37h2.47a4.55,4.55,0,1,1,0,9.11ZM168,73.93l-.24.78-.62-.52a7.45,7.45,0,0,0-2.57-1.42l-.47-.15.11-.48,9.64-42.44L170.49,5.92a2.6,2.6,0,0,1,2.58-3,2.7,2.7,0,0,1,2.56,2.21l5.25,26.27,0,.13,0,.13ZM41.58,175.29H30.94V158.22l-8.48,9.84h-3.4l-8.42-9.84v17.08H0V133.71H3.4l17.39,21.22,17.39-21.22h3.4Zm37-14.42a16.31,16.31,0,0,1-1.14,6.25,14.15,14.15,0,0,1-3.16,4.76,13.94,13.94,0,0,1-4.8,3.06,16.44,16.44,0,0,1-6,1.08A16.6,16.6,0,0,1,57.42,175a13.94,13.94,0,0,1-4.8-3.06,14.13,14.13,0,0,1-3.16-4.76,16.3,16.3,0,0,1-1.14-6.25V144.35H59v17.39a4.34,4.34,0,0,0,4.52,4.52A4.32,4.32,0,0,0,66.67,165a4.4,4.4,0,0,0,1.27-3.25V144.35H78.59Zm17.64-17.33a18,18,0,0,1,6.37,1.11,14.27,14.27,0,0,1,5.26,3.47l-5,6.5A10.09,10.09,0,0,0,96.28,152q-2.17,0-2.17,1.18a1,1,0,0,0,.53.93,13,13,0,0,0,1.58.74l3.09,1.24q2,.87,3.71,1.73a11.9,11.9,0,0,1,2.85,2,8.38,8.38,0,0,1,1.83,2.6,8.2,8.2,0,0,1,.65,3.37,9.56,9.56,0,0,1-1,4.33,9.3,9.3,0,0,1-2.69,3.25,12.21,12.21,0,0,1-4.05,2,18.11,18.11,0,0,1-5.11.68,19,19,0,0,1-7.64-1.52,13.7,13.7,0,0,1-5.66-4.42l5-6.31a14.59,14.59,0,0,0,4.08,2.85,10.59,10.59,0,0,0,4.46,1,5.9,5.9,0,0,0,1.92-.28,1.07,1.07,0,0,0,.8-1.08,1,1,0,0,0-.46-.87,8.61,8.61,0,0,0-1.33-.68l-3.47-1.42a36,36,0,0,1-3.77-1.79,12.07,12.07,0,0,1-2.82-2.1,8.41,8.41,0,0,1-1.76-2.66,8.78,8.78,0,0,1-.62-3.4,9.47,9.47,0,0,1,.87-4.11,8.71,8.71,0,0,1,2.44-3.09,10.85,10.85,0,0,1,3.81-1.92A17.39,17.39,0,0,1,96.22,143.55Zm28,0a18,18,0,0,1,6.37,1.11,14.28,14.28,0,0,1,5.26,3.47l-5,6.5a10.09,10.09,0,0,0-6.56-2.66q-2.17,0-2.17,1.18a1,1,0,0,0,.53.93,12.93,12.93,0,0,0,1.58.74l3.09,1.24q2,.87,3.71,1.73a11.92,11.92,0,0,1,2.85,2,8.39,8.39,0,0,1,1.83,2.6,8.2,8.2,0,0,1,.65,3.37,9.55,9.55,0,0,1-1,4.33,9.31,9.31,0,0,1-2.69,3.25,12.21,12.21,0,0,1-4.05,2,18.11,18.11,0,0,1-5.11.68,19,19,0,0,1-7.64-1.52,13.7,13.7,0,0,1-5.66-4.42l5-6.31a14.59,14.59,0,0,0,4.08,2.85,10.59,10.59,0,0,0,4.46,1,5.9,5.9,0,0,0,1.92-.28,1.07,1.07,0,0,0,.8-1.08,1,1,0,0,0-.46-.87,8.66,8.66,0,0,0-1.33-.68l-3.46-1.42a36.07,36.07,0,0,1-3.78-1.79,12.07,12.07,0,0,1-2.82-2.1,8.41,8.41,0,0,1-1.76-2.66,8.78,8.78,0,0,1-.62-3.4,9.47,9.47,0,0,1,.87-4.11,8.73,8.73,0,0,1,2.44-3.09,10.86,10.86,0,0,1,3.81-1.92A17.4,17.4,0,0,1,124.19,143.55Zm44.37,31.06q0,6.37-3.5,9.47t-9.5,3.09a17.71,17.71,0,0,1-2.94-.22,15.12,15.12,0,0,1-2.2-.53v-8.91l1.24.09c.37,0,.76,0,1.18,0a6.19,6.19,0,0,0,3.93-1,3.86,3.86,0,0,0,1.14-3.12V144.35h10.64Zm-5.38-47.52a6.48,6.48,0,0,1,2.54.49,7,7,0,0,1,2.07,1.33,6.26,6.26,0,0,1,1.42,2,6,6,0,0,1,.53,2.51,5.8,5.8,0,0,1-.53,2.45,6.25,6.25,0,0,1-1.42,2,7,7,0,0,1-2.07,1.33,6.76,6.76,0,0,1-5.07,0,7,7,0,0,1-2.07-1.33,5.81,5.81,0,0,1-1.39-2,6.08,6.08,0,0,1-.5-2.45,6,6,0,0,1,1.89-4.52A6.44,6.44,0,0,1,163.17,127.09Zm25.68,16.52a18.13,18.13,0,0,1,5.76.87A11.94,11.94,0,0,1,199,147a11.57,11.57,0,0,1,2.85,4.3,16.34,16.34,0,0,1,1,6v17.94h-9.71v-2.47a11.94,11.94,0,0,1-3.87,2.35,14,14,0,0,1-5,.87,12.79,12.79,0,0,1-4.61-.77,9.43,9.43,0,0,1-3.34-2.1,8.87,8.87,0,0,1-2-3.06,9.89,9.89,0,0,1-.68-3.65,8,8,0,0,1,3.25-6.81q3.25-2.41,8.88-2.41h6.5v-.5a3.94,3.94,0,0,0-1.08-2.81,4.82,4.82,0,0,0-3.62-1.14,8,8,0,0,0-4,1,21,21,0,0,0-3.74,2.78l-5-6.74a22,22,0,0,1,6.34-4.64A17.86,17.86,0,0,1,188.85,143.61Zm-1.3,24.88a4.93,4.93,0,0,0,3.34-1.18,4.18,4.18,0,0,0,1.36-3.34v-.25h-5q-2.85,0-2.85,2.35a2.14,2.14,0,0,0,.8,1.76A3.67,3.67,0,0,0,187.55,168.49Zm28.94-6.31a6.81,6.81,0,0,1,4.92,2,7.06,7.06,0,0,1,1.95,4.89,7.13,7.13,0,0,1-.53,2.75,7,7,0,0,1-1.42,2.2,6.36,6.36,0,0,1-2.17,1.45,7.14,7.14,0,0,1-2.75.53,6.85,6.85,0,0,1-5.11-2,6.95,6.95,0,0,1,5.11-11.88ZM220.7,159H212l-2-24.5h12.69Z"/></g></g></svg>