<?xml version="1.0" encoding="utf-8"?>
<!-- Generator: Adobe Illustrator 22.1.0, SVG Export Plug-In . SVG Version: 6.00 Build 0)  -->
<svg version="1.1" id="Ebene_1" xmlns="http://www.w3.org/2000/svg" xmlns:xlink="http://www.w3.org/1999/xlink" x="0px" y="0px"
	 viewBox="0 0 504 278" style="enable-background:new 0 0 504 278;" xml:space="preserve">
<style type="text/css">
	.st0{fill:#E30613;}
	.st1{fill:#1E1E1C;}
</style>
<title>Zeichenfläche 2</title>
<path class="st0" d="M189,17.2h-36.9v31.8h-30.9V17.2H86v31.8H55.1V17.2H18.2v68.3H189V17.2z M95.1,211.2c0-8.7-5.6-12.9-14.2-12.9
	H53.6v25.8h27.3C89.5,224.1,95.1,219.8,95.1,211.2 M53.6,167.5h14.3c8.8,0,14.2-5.1,14.2-12.9s-5.4-12.9-14.2-12.9H53.6V167.5z
	 M132.1,212.7c0,25.8-20.6,43.6-47.9,43.6H18.2V109.5h51.1c27,0,47.8,17.4,47.8,43.4c0,10-3.2,18.5-8.6,24.7
	C122.9,183.6,132.1,195.4,132.1,212.7 M189,256.3h-36.9V109.5H189V256.3z"/>
<g id="Ebene_2_1_">
	<g id="Ebene_1-2">
		<path class="st1" d="M372.4,140c-5.2,0-9.5,4.2-9.5,9.5s4.2,9.5,9.5,9.5s9.5-4.2,9.5-9.5c0,0,0,0,0,0l0,0
			C381.9,144.2,377.6,140,372.4,140 M372.4,143.8c3.2,0,5.7,2.6,5.7,5.7s-2.6,5.7-5.7,5.7s-5.7-2.6-5.7-5.7S369.2,143.8,372.4,143.8
			L372.4,143.8 M305.9,149.4c0-5.2-4.2-9.5-9.5-9.4s-9.5,4.2-9.4,9.5c0,5.2,4.2,9.4,9.5,9.4C301.6,158.9,305.9,154.6,305.9,149.4
			C305.9,149.4,305.9,149.4,305.9,149.4 M302.1,149.4c-2.3,0-4.2-1.9-4.2-4.2c0-2.3,1.9-4.2,4.2-4.2s4.2,1.9,4.2,4.2
			C306.3,147.5,304.4,149.4,302.1,149.4L302.1,149.4 M324.3,108.3h-17.7c-1,0-1.9-0.8-1.9-1.9s0.8-1.9,1.9-1.9c0,0,0,0,0,0h17.7
			c1,0,1.9,0.8,1.9,1.9S325.3,108.2,324.3,108.3C324.3,108.3,324.3,108.3,324.3,108.3 M354.7,144.2c-1.3,0-2.3-1-2.3-2.3
			c0-1.3,1-2.3,2.3-2.3c1.3,0,2.3,1,2.3,2.3C357,143.1,356,144.2,354.7,144.2C354.7,144.2,354.7,144.2,354.7,144.2 M344.6,144.2
			c-1.3,0-2.3-1-2.4-2.2c0-1.3,1-2.3,2.2-2.4c1.3,0,2.3,1,2.4,2.2c0,0,0,0,0,0v0.1C346.8,143.1,345.8,144.2,344.6,144.2
			 M334.5,144.2c-1.3,0-2.3-1-2.4-2.2c0-1.3,1-2.3,2.2-2.4c1.3,0,2.3,1,2.4,2.2c0,0,0,0,0,0l0,0
			C336.7,143.1,335.7,144.1,334.5,144.2C334.4,144.1,334.4,144.1,334.5,144.2L334.5,144.2 M324.3,144.1c-1.3,0-2.3-1-2.4-2.2
			c0-1.3,1-2.3,2.2-2.4c1.3,0,2.3,1,2.4,2.2c0,0,0,0,0,0v0.1C326.6,143.1,325.6,144.1,324.3,144.1
			C324.3,144.1,324.3,144.1,324.3,144.1L324.3,144.1 M314.2,144.1c-1.3,0-2.3-1-2.4-2.3c0-1.3,1-2.3,2.3-2.4c1.3,0,2.3,1,2.4,2.3
			l0,0C316.4,143,315.4,144.1,314.2,144.1C314.1,144.1,314.1,144.1,314.2,144.1L314.2,144.1 M354.7,159.3c-1.3,0-2.3-1-2.3-2.3
			s1-2.3,2.3-2.3c1.3,0,2.3,1,2.3,2.3c0,0,0,0.1,0,0.1c0,1.3-1,2.3-2.3,2.3 M344.6,159.4c-1.3,0-2.3-1-2.3-2.3s1-2.3,2.3-2.3
			s2.3,1,2.3,2.3l0,0C346.9,158.4,345.9,159.4,344.6,159.4 M334.5,159.4c-1.3,0-2.3-1-2.3-2.3s1-2.3,2.3-2.3s2.3,1,2.3,2.3l0,0
			C336.8,158.4,335.8,159.4,334.5,159.4L334.5,159.4 M324.5,159.4c-1.3,0-2.3-1-2.3-2.3c0-1.3,1-2.3,2.3-2.3c1.3,0,2.3,1,2.3,2.3
			c0,0,0,0,0,0C326.7,158.4,325.7,159.4,324.5,159.4L324.5,159.4 M314.4,159.4c-1.3,0-2.3-1-2.3-2.3c0-1.3,1-2.3,2.3-2.3
			c1.3,0,2.3,1,2.3,2.3c0,0,0,0,0,0C316.7,158.4,315.6,159.4,314.4,159.4 M435.5,60.9l-6.9-34.3c-0.8-3.8-4.5-6.2-8.2-5.5
			c-2.5,0.5-4.5,2.3-5.3,4.7l-0.1,0.3l-0.4,0.1l-46.9,12.2c-0.7,0.2-1.3,0.6-1.8,1.3l-12,16.7h-21.8c-3.8,0-6.9,3.1-6.9,6.9l0,0
			v22.2c0,0.7-0.6,1.3-1.3,1.3h-13.2c1.1-1.3,2.2-2.7,3.1-4.1l0,0c1.1-1.6,2.2-3.3,3.2-5l0.2-0.5c0.3-0.6,0.7-1.2,1-1.9l0.3-0.7
			c0.2-0.5,0.5-1.1,0.7-1.6l0.3-0.8c0.2-0.5,0.4-1,0.5-1.6c0.1-0.3,0.2-0.5,0.2-0.8c0.2-0.5,0.3-1.1,0.4-1.6c0-0.2,0.1-0.5,0.2-0.7
			c0.1-0.6,0.2-1.1,0.3-1.7c0-0.2,0-0.4,0.1-0.6c0.1-0.7,0.1-1.5,0.1-2.2c0-11.9-9.6-21.6-21.5-21.6c-4.2-0.1-8.3,1.1-11.9,3.3
			c-2.1,1.3-3.9,3-5.4,4.9c-1.5-1.9-3.3-3.6-5.4-4.9c-3.6-2.2-7.7-3.3-11.9-3.3c-11.9,0-21.5,9.7-21.5,21.6c0,0.7,0,1.5,0.1,2.2
			c0,0.2,0,0.4,0.1,0.6c0.1,0.6,0.1,1.1,0.3,1.7c0,0.2,0.1,0.5,0.2,0.7c0.1,0.5,0.2,1,0.4,1.6c0.1,0.3,0.2,0.5,0.2,0.8
			c0.2,0.5,0.3,1,0.5,1.6c0.1,0.3,0.2,0.5,0.3,0.8c0.2,0.5,0.4,1.1,0.7,1.6l0.3,0.7c0.3,0.6,0.6,1.2,0.9,1.8l0.3,0.5
			c1,1.7,2,3.4,3.2,5l0,0c10.7,15.1,29.3,27.3,30.4,28c0.3,0.2,0.6,0.3,1,0.3l0,0c0.4,0,0.7-0.1,1-0.3c0.4-0.2,2.8-1.8,6.2-4.4v16.6
			c0,1.7,1.4,3.2,3.2,3.2h24.7v6.4h-20.6c-9.3-0.1-17,7.1-17.5,16.4c-0.2,5.4,2.2,10.6,6.5,14h-28.3c-1,0-1.9,0.8-1.9,1.9
			c0,1,0.8,1.9,1.9,1.9h156.2c1,0,1.9-0.8,1.9-1.9s-0.8-1.9-1.9-1.9c0,0,0,0,0,0h-30.8c4.3-3.4,6.7-8.6,6.5-14
			c-0.5-9.3-8.2-16.5-17.5-16.4h-20.5V126h12c1.7,0,3.2-1.4,3.2-3.2V89.3c0-4.5-0.6-9-1.7-13.4l-0.1-0.3l0.2-0.3l10.5-14.6
			c0.4-0.5,0.9-0.9,1.5-1l39.8-9.4l0.7-0.2l0.1,0.7l1,7.2v0.3l-12.1,53.3l-0.1,0.5h-1.6c-4.8,0-9.1-3.2-10.4-7.8l-2.1-7.4l-0.1-0.3
			l0.2-0.3l3-4.5c0.5-0.9,0.2-2-0.7-2.5c-0.8-0.4-1.8-0.2-2.4,0.5l-3.6,5.4l0,0l-9.6,11.5c-5.2,6.3-4.4,15.7,2,21
			c2.7,2.2,6,3.4,9.5,3.4h17c5,0.1,9.2-3.6,9.8-8.5c0.1-0.9,0.1-1.8-0.1-2.6l0.3-0.9L435.5,60.9z M415,30l0.5,3.9l-29,3.3L415,30z
			 M289.8,93.7v7.9c-3.2,2.5-5.9,4.4-7.2,5.3c-5.9-4-11.5-8.5-16.7-13.3l0,0l-1.4-1.3l-0.3-0.3l-1.3-1.2l-0.6-0.6l-0.9-0.9
			c-0.5-0.5-1-1.1-1.5-1.6l0,0c-2-2.2-3.9-4.5-5.7-6.9v-0.1c-2-2.8-3.7-5.9-5-9.1l0,0c-0.3-0.7-0.5-1.3-0.7-2l-0.1-0.3
			c-0.2-0.6-0.3-1.1-0.4-1.7c0-0.1,0-0.3-0.1-0.4c-0.1-0.5-0.2-1-0.2-1.6v-0.4c-0.1-0.6-0.1-1.3-0.1-1.9c0-9.9,7.9-17.9,17.7-18
			c3.4,0,6.7,0.8,9.7,2.5c2.5,1.5,4.6,3.6,6.1,6.1c0.3,0.5,0.9,0.9,1.6,0.9h0.5c0.5-0.1,0.9-0.4,1.1-0.8c2.2-3.6,5.6-6.4,9.6-7.7
			l0.9-0.3c1.3-0.4,2.6-0.6,4-0.7h1.3c9.8,0,17.8,8,17.9,17.9c0,0.6,0,1.3-0.1,1.9v0.4c-0.1,0.5-0.1,1-0.2,1.6
			c0,0.1-0.1,0.3-0.1,0.4c-0.1,0.5-0.3,1.1-0.4,1.6l-0.1,0.3c-0.2,0.6-0.4,1.3-0.7,1.9v0.1c-1.3,3.2-3,6.3-5,9.1l0,0
			c-1.5,2.1-3.2,4.2-5,6.2h-9.4c-3.8,0-6.9,3.1-6.9,6.9L289.8,93.7z M372.8,136.2c7.4-0.2,13.5,5.6,13.7,13
			c0.2,7.4-5.6,13.5-13,13.7c-0.2,0-0.5,0-0.7,0h-76c-7.4-0.2-13.2-6.3-13-13.7c0.2-7.1,5.9-12.8,13-13H372.8z M321.4,132.4V126
			h26.7v6.4L321.4,132.4L321.4,132.4z M363.3,121c0,0.7-0.6,1.3-1.3,1.3h-67.2c-0.7,0-1.3-0.6-1.3-1.3l0,0V93.8
			c0-1.8,1.4-3.2,3.2-3.2l0,0h29.1c1.8,0,3.2-1.4,3.2-3.2c0,0,0,0,0,0l0,0v-24c0-1.8,1.4-3.2,3.2-3.2c0,0,0,0,0,0h5.8v28.6
			c0,6.6,5.4,12,12,12h13.3L363.3,121z M363.3,96.9h-13.3c-4.6,0-8.3-3.7-8.3-8.3V60.1h12.2c1.4,0,2.6,0.9,3,2.2l3.9,11.5
			c1.7,5,2.5,10.2,2.5,15.4L363.3,96.9z M416.7,46.5l-41.4,9.7c-0.8,0.2-1.4,0.6-1.9,1.3l-8.9,12.6l-0.8,1.1l-0.4-1.3l-2.9-8.7
			c-0.4-1.2-1.2-2.3-2.2-3.1l-0.5-0.4l0.4-0.5l9.9-13.9c0.4-0.6,1.1-0.9,1.8-1l45.5-4.5l0.6-0.1l0.1,0.7l1.1,7.7l0.1,0.6L416.7,46.5
			z M408.2,127.3h-17.4c-6.2,0-11.2-5-11.2-11.1c0-2.6,0.9-5.1,2.6-7.2l6.6-7.8l0.8-1l0.4,1.3l1.1,3.9c1.8,6.2,7.5,10.5,14,10.6h3.1
			c3.2,0,5.7,2.6,5.7,5.7c0,3.2-2.6,5.7-5.7,5.7c0,0,0,0,0,0L408.2,127.3z M415.4,114.1l-0.3,1l-0.8-0.7c-1-0.8-2.1-1.4-3.2-1.8
			l-0.6-0.2l0.1-0.6l12.1-53.5l-4.2-30c-0.3-1.8,0.9-3.5,2.7-3.7c0,0,0,0,0,0c0.2,0,0.3,0,0.5,0c1.6,0.1,2.9,1.2,3.2,2.8l6.6,33.1
			v0.3L415.4,114.1z M256.1,241.8h-13.4v-21.5L232,232.7h-4.3l-10.6-12.4v21.5h-13.4v-52.4h4.3l21.9,26.7l21.9-26.7h4.3L256.1,241.8
			z M302.7,223.6c0,2.7-0.5,5.4-1.4,7.9c-1.8,4.5-5.4,8.1-10,9.9c-4.9,1.8-10.3,1.8-15.2,0.1c-4.6-1.7-8.2-5.3-10-9.9
			c-1-2.5-1.5-5.2-1.4-7.9v-20.9H278v21.9c-0.1,3,2.2,5.6,5.2,5.7h0.5c1.5,0,2.9-0.5,4-1.6c1.1-1.1,1.7-2.6,1.6-4.1v-21.9h13.4
			L302.7,223.6z M324.9,201.8c2.7,0,5.4,0.5,8,1.4c2.5,0.9,4.8,2.4,6.6,4.4l-6.3,8.2c-2.3-2.1-5.2-3.2-8.3-3.3
			c-1.8,0-2.7,0.5-2.7,1.5c0,0.5,0.2,0.9,0.7,1.2c0.6,0.4,1.3,0.7,2,0.9l3.9,1.6c1.7,0.7,3.2,1.5,4.7,2.2c1.3,0.7,2.5,1.5,3.6,2.5
			c2.1,1.9,3.2,4.7,3.1,7.5c0,1.9-0.4,3.8-1.3,5.5c-0.8,1.6-2,3-3.4,4.1c-1.5,1.2-3.3,2-5.1,2.5c-2.1,0.6-4.3,0.9-6.4,0.9
			c-3.3,0-6.6-0.6-9.6-1.9c-2.8-1.2-5.3-3.1-7.1-5.6l6.3-8c1.5,1.5,3.2,2.7,5.1,3.6c1.8,0.8,3.7,1.3,5.6,1.3c0.8,0,1.6-0.1,2.4-0.4
			c0.6-0.2,1-0.7,1-1.4c0-0.4-0.2-0.9-0.6-1.1c-0.5-0.3-1.1-0.6-1.7-0.9l-4.4-1.8c-1.6-0.7-3.2-1.4-4.8-2.3
			c-1.3-0.7-2.5-1.6-3.5-2.6c-0.9-1-1.7-2.1-2.2-3.4c-0.5-1.4-0.8-2.8-0.8-4.3c0-1.8,0.4-3.6,1.1-5.2c0.7-1.5,1.8-2.8,3.1-3.9
			c1.4-1.1,3.1-1.9,4.8-2.4C320.8,202.1,322.8,201.8,324.9,201.8L324.9,201.8z M360.2,201.8c2.7,0,5.4,0.5,8,1.4
			c2.5,0.9,4.8,2.4,6.6,4.4l-6.3,8.2c-2.3-2.1-5.2-3.3-8.3-3.4c-1.8,0-2.7,0.5-2.7,1.5c0,0.5,0.2,0.9,0.7,1.2c0.6,0.4,1.3,0.7,2,0.9
			l3.9,1.6c1.7,0.7,3.2,1.5,4.7,2.2c1.3,0.7,2.5,1.5,3.6,2.5c2.1,1.9,3.2,4.7,3.1,7.5c0,1.9-0.4,3.8-1.3,5.5c-0.8,1.6-2,3-3.4,4.1
			c-1.5,1.2-3.3,2-5.1,2.5c-2.1,0.6-4.3,0.9-6.4,0.9c-3.3,0-6.6-0.6-9.6-1.9c-2.8-1.2-5.3-3.1-7.1-5.6l6.3-8
			c1.5,1.5,3.2,2.7,5.1,3.6c1.8,0.8,3.7,1.3,5.6,1.3c0.8,0,1.6-0.1,2.4-0.4c0.6-0.2,1-0.7,1-1.4c0-0.4-0.2-0.9-0.6-1.1
			c-0.5-0.3-1.1-0.6-1.7-0.9l-4.4-1.8c-1.6-0.7-3.2-1.4-4.8-2.3c-1.3-0.7-2.5-1.6-3.5-2.6c-0.9-1-1.7-2.1-2.2-3.4
			c-0.5-1.4-0.8-2.8-0.8-4.3c0-1.8,0.3-3.6,1.1-5.2c0.7-1.5,1.8-2.8,3.1-3.9c1.4-1.1,3.1-1.9,4.8-2.4
			C356,202,358.1,201.8,360.2,201.8L360.2,201.8z M416.1,240.9c0,5.3-1.5,9.3-4.4,11.9s-6.9,3.9-12,3.9c-1.2,0-2.5-0.1-3.7-0.3
			c-0.9-0.2-1.9-0.4-2.8-0.7v-11.2l1.6,0.1h1.5c1.7,0.1,3.5-0.3,5-1.3c1-1,1.6-2.5,1.4-3.9v-36.7h13.4L416.1,240.9z M409.3,181
			c1.1,0,2.2,0.2,3.2,0.6c1,0.4,1.8,1,2.6,1.7c0.8,0.7,1.4,1.6,1.8,2.5c0.5,1,0.7,2.1,0.7,3.2c0,1.1-0.2,2.1-0.7,3.1
			c-0.4,1-1,1.8-1.8,2.5c-0.8,0.7-1.6,1.3-2.6,1.7c-2,0.8-4.3,0.8-6.4,0c-1-0.4-1.8-1-2.6-1.7c-0.8-0.7-1.4-1.6-1.8-2.5
			c-0.4-1-0.6-2-0.6-3.1c-0.1-2.1,0.8-4.2,2.4-5.7C405.1,181.9,407.1,181,409.3,181L409.3,181z M441.7,201.9c2.5,0,4.9,0.3,7.3,1.1
			c2,0.7,3.9,1.7,5.5,3.2c1.6,1.5,2.8,3.4,3.6,5.4c0.9,2.4,1.3,5,1.3,7.6v22.6H447v-3.1c-1.4,1.3-3.1,2.3-4.9,3
			c-2,0.7-4.2,1.1-6.3,1.1c-2,0-4-0.3-5.8-1c-1.6-0.6-3-1.5-4.2-2.6c-1.1-1.1-2-2.4-2.5-3.9c-0.6-1.5-0.9-3-0.9-4.6
			c-0.2-3.4,1.4-6.6,4.1-8.6c2.7-2,6.5-3,11.2-3h8.2v-0.6c0-1.3-0.5-2.6-1.4-3.5c-1.3-1.1-2.9-1.6-4.6-1.4c-1.7,0-3.5,0.4-5,1.3
			c-1.7,1-3.3,2.2-4.7,3.5l-6.3-8.5c2.3-2.4,5-4.4,8-5.9C435,202.5,438.3,201.9,441.7,201.9L441.7,201.9z M440,233.2
			c1.5,0,3-0.5,4.2-1.5c1.2-1.1,1.8-2.6,1.7-4.2v-0.3h-6.3c-2.4,0-3.6,1-3.6,3c0,0.9,0.3,1.7,1,2.2C437.9,233,438.9,233.3,440,233.2
			L440,233.2z M476.5,225.2c2.3,0,4.6,0.9,6.2,2.5c1.6,1.7,2.5,3.9,2.5,6.2c0,2.3-0.9,4.6-2.5,6.2c-0.8,0.8-1.7,1.4-2.7,1.9
			c-1.1,0.5-2.3,0.7-3.5,0.7c-2.4,0.1-4.7-0.8-6.4-2.5c-3.4-3.4-3.5-8.9-0.1-12.4C471.7,226,474.1,225.1,476.5,225.2L476.5,225.2z
			 M481.7,221.2h-11l-2.5-30.9h16L481.7,221.2z"/>
	</g>
</g>
</svg>
