<?xml version="1.0" encoding="utf-8"?>
<svg version="1.1" id="Ebene_1" xmlns="http://www.w3.org/2000/svg" xmlns:xlink="http://www.w3.org/1999/xlink" x="0px" y="0px"
	 viewBox="0 0 257 28" style="enable-background:new 0 0 257 28;" xml:space="preserve">
<style type="text/css">
	.st0{fill:#EFEEEE;}
	.st1{enable-background:new    ;}
	.st2{fill:#020203;}
	.st3{fill:#E30519;}
</style>
<g>
	<rect y="0" class="st0" width="257" height="28"/>
	<g>
		<g class="st1">
			<path class="st2" d="M38.7,12.6h5.1v1l-4.1,4.7h4.1v0.9h-5.3v-1l4.1-4.7h-3.9C38.7,13.5,38.7,12.6,38.7,12.6z"/>
			<path class="st2" d="M45.3,16.5v-4h1.1v3.9c0,0.6,0.1,1.1,0.4,1.4s0.6,0.5,1.1,0.5c0.6,0,1-0.2,1.4-0.6s0.5-0.9,0.5-1.5v-3.7h1.1
				v6.6h-1.1v-1c-0.3,0.4-0.6,0.7-0.9,0.9s-0.7,0.3-1.2,0.3c-0.8,0-1.3-0.2-1.7-0.7S45.3,17.4,45.3,16.5z"/>
			<path class="st2" d="M56.8,13.6c-0.1-0.1-0.3-0.1-0.4-0.2s-0.3,0-0.5,0c-0.6,0-1.1,0.2-1.4,0.6S54,15,54,15.7v3.5h-1v-6.6h1.1v1
				c0.2-0.4,0.5-0.7,0.9-0.9s0.8-0.3,1.3-0.3c0.1,0,0.2,0,0.2,0s0.2,0,0.3,0V13.6z"/>
			<path class="st2" d="M64.1,10.4h1.3l3.3,8.7h-1.2l-0.8-2.2h-3.9L62,19.1h-1.2L64.1,10.4z M64.8,11.5l-1.6,4.4h3.2L64.8,11.5z"/>
			<path class="st2" d="M69.9,16.5v-4H71v3.9c0,0.6,0.1,1.1,0.4,1.4s0.6,0.5,1.1,0.5c0.6,0,1-0.2,1.4-0.6s0.5-0.9,0.5-1.5v-3.7h1.1
				v6.6h-1.1v-1c-0.3,0.4-0.6,0.7-0.9,0.9s-0.7,0.3-1.2,0.3c-0.8,0-1.3-0.2-1.7-0.7S69.9,17.4,69.9,16.5z"/>
			<path class="st2" d="M81.8,12.8v1c-0.3-0.2-0.6-0.3-0.9-0.4s-0.7-0.1-1-0.1c-0.5,0-0.9,0.1-1.2,0.2s-0.4,0.4-0.4,0.7
				s0.1,0.4,0.3,0.6s0.6,0.3,1.2,0.4l0.4,0.1c0.8,0.2,1.3,0.4,1.6,0.7c0.3,0.3,0.5,0.7,0.5,1.3c0,0.6-0.2,1.1-0.7,1.4
				s-1.1,0.5-2,0.5c-0.4,0-0.7,0-1.1-0.1s-0.8-0.2-1.2-0.3v-1.1c0.4,0.2,0.8,0.4,1.2,0.5s0.8,0.2,1.1,0.2c0.5,0,0.9-0.1,1.2-0.3
				s0.4-0.4,0.4-0.7c0-0.3-0.1-0.5-0.3-0.7s-0.6-0.3-1.3-0.5l-0.4-0.1c-0.7-0.1-1.2-0.4-1.4-0.6s-0.4-0.7-0.4-1.2
				c0-0.6,0.2-1.1,0.7-1.4s1.1-0.5,1.9-0.5c0.4,0,0.8,0,1.1,0.1S81.5,12.6,81.8,12.8z"/>
			<path class="st2" d="M83.2,12.6h1.1l1.3,5.1l1.3-5.1h1.3l1.3,5.1l1.3-5.1H92l-1.7,6.6H89l-1.4-5.4l-1.4,5.4h-1.3L83.2,12.6z"/>
			<path class="st2" d="M98.8,15.4v3.7h-1.1v-1c-0.2,0.4-0.6,0.7-0.9,0.9s-0.8,0.3-1.3,0.3c-0.7,0-1.2-0.2-1.6-0.6s-0.6-0.9-0.6-1.5
				c0-0.7,0.2-1.3,0.7-1.7s1.2-0.6,2.2-0.6h1.5v-0.1c0-0.5-0.2-0.9-0.5-1.2s-0.8-0.4-1.4-0.4c-0.4,0-0.7,0-1.1,0.1s-0.7,0.2-1,0.4
				v-1c0.4-0.2,0.8-0.3,1.1-0.3s0.7-0.1,1.1-0.1c0.9,0,1.7,0.2,2.1,0.7S98.8,14.4,98.8,15.4z M96.6,15.8c-0.9,0-1.5,0.1-1.8,0.3
				c-0.3,0.2-0.5,0.5-0.5,1c0,0.4,0.1,0.7,0.4,0.9s0.6,0.3,1,0.3c0.6,0,1.1-0.2,1.4-0.6s0.5-1,0.5-1.7v-0.2
				C97.6,15.8,96.6,15.8,96.6,15.8z"/>
			<path class="st2" d="M106.5,15.2v4h-1.1v-3.9c0-0.6-0.1-1.1-0.4-1.4s-0.6-0.5-1.1-0.5c-0.6,0-1,0.2-1.4,0.6s-0.5,0.9-0.5,1.5v3.7
				h-1V10h1.1v3.6c0.3-0.4,0.6-0.7,0.9-0.9s0.8-0.3,1.2-0.3c0.8,0,1.3,0.2,1.7,0.7S106.5,14.3,106.5,15.2z"/>
			<path class="st2" d="M108.6,10h1.1v9.1h-1.1V10z"/>
			<path class="st2" d="M116.1,12.8v1c-0.3-0.2-0.6-0.3-0.9-0.4s-0.7-0.1-1-0.1c-0.5,0-0.9,0.1-1.2,0.2s-0.4,0.4-0.4,0.7
				s0.1,0.4,0.3,0.6s0.6,0.3,1.2,0.4l0.4,0.1c0.8,0.2,1.3,0.4,1.6,0.7c0.3,0.3,0.5,0.7,0.5,1.3c0,0.6-0.2,1.1-0.7,1.4
				s-1.1,0.5-2,0.5c-0.4,0-0.7,0-1.1-0.1s-0.8-0.2-1.2-0.3v-1.1c0.4,0.2,0.8,0.4,1.2,0.5s0.8,0.2,1.1,0.2c0.5,0,0.9-0.1,1.2-0.3
				s0.4-0.4,0.4-0.7c0-0.3-0.1-0.5-0.3-0.7s-0.6-0.3-1.3-0.5l-0.4-0.1c-0.7-0.1-1.2-0.4-1.4-0.6s-0.4-0.7-0.4-1.2
				c0-0.6,0.2-1.1,0.7-1.4s1.1-0.5,1.9-0.5c0.4,0,0.8,0,1.1,0.1S115.8,12.6,116.1,12.8z"/>
			<path class="st2" d="M123.8,15.6v0.5h-5c0,0.7,0.3,1.3,0.7,1.7s1,0.6,1.7,0.6c0.4,0,0.8-0.1,1.2-0.2s0.8-0.3,1.2-0.5v1
				c-0.4,0.2-0.8,0.3-1.2,0.4s-0.8,0.1-1.2,0.1c-1,0-1.9-0.3-2.5-0.9s-0.9-1.4-0.9-2.5s0.3-1.9,0.9-2.6s1.4-0.9,2.3-0.9
				s1.6,0.3,2.1,0.9S123.8,14.6,123.8,15.6z M122.7,15.3c0-0.6-0.2-1.1-0.5-1.4s-0.7-0.5-1.3-0.5c-0.6,0-1.1,0.2-1.4,0.5
				s-0.6,0.8-0.6,1.4H122.7z"/>
			<path class="st2" d="M125.6,10h1.1v1.4h-1.1V10z M125.6,12.6h1.1v6.6h-1.1V12.6z"/>
			<path class="st2" d="M130,10.7v1.9h2.2v0.8H130V17c0,0.5,0.1,0.9,0.2,1s0.4,0.2,0.9,0.2h1.1v0.9h-1.1c-0.8,0-1.4-0.2-1.7-0.5
				s-0.5-0.9-0.5-1.7v-3.6h-0.8v-0.8h0.8v-1.9h1.1V10.7z"/>
			<path class="st2" d="M139.2,15.6v0.5h-5c0,0.7,0.3,1.3,0.7,1.7s1,0.6,1.7,0.6c0.4,0,0.8-0.1,1.2-0.2s0.8-0.3,1.2-0.5v1
				c-0.4,0.2-0.8,0.3-1.2,0.4s-0.8,0.1-1.2,0.1c-1,0-1.9-0.3-2.5-0.9s-0.9-1.4-0.9-2.5s0.3-1.9,0.9-2.6s1.4-0.9,2.3-0.9
				c0.9,0,1.6,0.3,2.1,0.9S139.2,14.6,139.2,15.6z M138.2,15.3c0-0.6-0.2-1.1-0.5-1.4s-0.7-0.5-1.3-0.5s-1.1,0.2-1.4,0.5
				s-0.6,0.8-0.6,1.4H138.2z"/>
			<path class="st3" d="M148.7,11.3c1.2,0,2.1,0.4,2.8,1.1s1,1.7,1,3s-0.3,2.2-1,3s-1.6,1.1-2.8,1.1s-2.1-0.4-2.8-1.1s-1-1.7-1-3
				s0.3-2.2,1-3C146.6,11.6,147.5,11.3,148.7,11.3z M148.7,13c-0.5,0-0.9,0.2-1.1,0.6c-0.3,0.4-0.4,1-0.4,1.7s0.1,1.3,0.4,1.7
				c0.3,0.4,0.6,0.6,1.1,0.6s0.9-0.2,1.1-0.6c0.3-0.4,0.4-1,0.4-1.7s-0.1-1.3-0.4-1.7C149.5,13.2,149.2,13,148.7,13z"/>
			<path class="st3" d="M161,14.5v4.7h-2.2v-0.8v-2.8c0-0.7,0-1.1,0-1.4s-0.1-0.4-0.1-0.6c-0.1-0.2-0.2-0.3-0.4-0.4
				c-0.1-0.1-0.3-0.1-0.5-0.1c-0.5,0-0.8,0.2-1.1,0.6c-0.3,0.4-0.4,0.9-0.4,1.6v3.8H154v-7.7h2.2v1.1c0.3-0.4,0.7-0.8,1.1-1
				c0.4-0.2,0.8-0.3,1.2-0.3c0.8,0,1.4,0.3,1.8,0.8C160.8,12.6,161,13.4,161,14.5z"/>
			<path class="st3" d="M163,8.5h2.2v10.6H163V8.5z"/>
			<path class="st3" d="M167.3,8.5h2.2v2h-2.2V8.5z M167.3,11.5h2.2v7.7h-2.2V11.5z"/>
			<path class="st3" d="M178.6,14.5v4.7h-2.2v-0.8v-2.8c0-0.7,0-1.1,0-1.4s-0.1-0.4-0.1-0.6c-0.1-0.2-0.2-0.3-0.4-0.4
				c-0.1-0.1-0.3-0.1-0.5-0.1c-0.5,0-0.8,0.2-1.1,0.6c-0.3,0.4-0.4,0.9-0.4,1.6v3.8h-2.2v-7.7h2.2v1.1c0.3-0.4,0.7-0.8,1.1-1
				c0.4-0.2,0.8-0.3,1.2-0.3c0.8,0,1.4,0.3,1.8,0.8C178.4,12.6,178.6,13.4,178.6,14.5z"/>
			<path class="st3" d="M187.5,15.3V16h-5.1c0,0.6,0.2,1,0.6,1.3c0.3,0.3,0.8,0.4,1.3,0.4s0.9-0.1,1.4-0.2c0.5-0.2,1-0.4,1.5-0.7
				v1.9c-0.5,0.2-1,0.4-1.6,0.5c-0.5,0.1-1,0.2-1.6,0.2c-1.2,0-2.2-0.4-2.9-1.1s-1-1.7-1-3c0-1.2,0.3-2.2,1-2.9s1.6-1.1,2.8-1.1
				c1.1,0,2,0.4,2.6,1.1C187.2,13.1,187.5,14.1,187.5,15.3z M185.2,14.5c0-0.5-0.1-0.8-0.4-1.1c-0.2-0.3-0.6-0.4-1-0.4
				s-0.8,0.1-1,0.4c-0.3,0.3-0.4,0.7-0.5,1.2L185.2,14.5L185.2,14.5z"/>
			<path class="st3" d="M189.3,8.9h2.4v3.7l3.4-3.7h2.8l-4.4,4.8l4.9,5.4h-3l-3.7-4v4h-2.4V8.9z"/>
			<path class="st3" d="M204.6,17.3h-3.7l-0.6,1.9h-2.4L201.3,9h2.8l3.4,10.2h-2.4L204.6,17.3z M201.5,15.4h2.5l-1.3-4.1L201.5,15.4
				z"/>
			<path class="st3" d="M211.1,15.3v3.9h-2.4V8.9h3.6c1.2,0,2.1,0.2,2.7,0.7c0.6,0.5,0.8,1.2,0.8,2.1c0,0.7-0.1,1.2-0.4,1.7
				s-0.7,0.8-1.3,1c0.3,0.1,0.6,0.3,0.9,0.6c0.3,0.3,0.5,0.7,0.8,1.3l1.3,2.9h-2.5l-1.1-2.5c-0.2-0.5-0.5-0.9-0.7-1
				s-0.5-0.3-0.9-0.3L211.1,15.3L211.1,15.3z M212.1,13.4c0.5,0,0.8-0.1,1.1-0.3c0.2-0.2,0.3-0.5,0.3-1s-0.1-0.8-0.3-1
				s-0.6-0.3-1.1-0.3h-1v2.6H212.1z"/>
			<path class="st3" d="M216.7,8.9h8.5v2h-3v8.2h-2.4v-8.2h-3v-2H216.7z"/>
			<path class="st3" d="M226.4,8.9h6.4v2h-4v1.9h3.8v2h-3.8v2.3h4.2v2h-6.5L226.4,8.9L226.4,8.9z"/>
			<path class="st3" d="M235,8.9h2.6l3.3,7v-7h2.2v10.2h-2.6l-3.3-7v7H235V8.9z"/>
		</g>
	</g>
</g>
</svg>
