<?xml version="1.0" encoding="UTF-8" standalone="no"?>
<!-- Created with Inkscape (http://www.inkscape.org/) -->

<svg
   xmlns:dc="http://purl.org/dc/elements/1.1/"
   xmlns:cc="http://creativecommons.org/ns#"
   xmlns:rdf="http://www.w3.org/1999/02/22-rdf-syntax-ns#"
   xmlns:svg="http://www.w3.org/2000/svg"
   xmlns="http://www.w3.org/2000/svg"
   xmlns:sodipodi="http://sodipodi.sourceforge.net/DTD/sodipodi-0.dtd"
   xmlns:inkscape="http://www.inkscape.org/namespaces/inkscape"
   width="500mm"
   height="133.20889mm"
   viewBox="0 0 1771.6536 472.00001"
   id="svg2"
   version="1.1"
   inkscape:version="0.91 r13725"
   sodipodi:docname="logo_regiopole_jeder.svg">
  <defs
     id="defs4" />
  <sodipodi:namedview
     id="base"
     pagecolor="#ffffff"
     bordercolor="#666666"
     borderopacity="1.0"
     inkscape:pageopacity="0.0"
     inkscape:pageshadow="2"
     inkscape:zoom="0.175"
     inkscape:cx="-128.06925"
     inkscape:cy="524.01485"
     inkscape:document-units="px"
     inkscape:current-layer="layer1"
     showgrid="false"
     fit-margin-top="0"
     fit-margin-left="0"
     fit-margin-right="0"
     fit-margin-bottom="0"
     inkscape:window-width="1680"
     inkscape:window-height="988"
     inkscape:window-x="-8"
     inkscape:window-y="-8"
     inkscape:window-maximized="1" />
  <metadata
     id="metadata7">
    <rdf:RDF>
      <cc:Work
         rdf:about="">
        <dc:format>image/svg+xml</dc:format>
        <dc:type
           rdf:resource="http://purl.org/dc/dcmitype/StillImage" />
        <dc:title></dc:title>
      </cc:Work>
    </rdf:RDF>
  </metadata>
  <g
     inkscape:label="Ebene 1"
     inkscape:groupmode="layer"
     id="layer1"
     transform="translate(193.64287,-593.50509)">
    <path
       style="fill:#e2001a;fill-opacity:1"
       d="m 528.02757,1002.3657 c -15.23169,-5.44333 -20.83959,-14.51242 -21.74204,-35.16089 -0.83264,-19.05196 1.8694,-28.20202 11.01844,-37.31211 7.96777,-7.93389 14.58591,-10.30822 28.67708,-10.28823 18.36206,0.026 30.10241,8.58329 33.74919,24.59874 2.01723,8.85904 1.92789,19.31677 -0.18305,21.42768 -1.21841,1.21848 -9.27622,1.73738 -26.97524,1.73738 l -25.23786,0 0.80719,6.018 c 0.54567,4.06836 2.23507,7.44597 5.21444,10.42528 3.79948,3.79951 5.68541,4.48867 13.67558,4.99743 5.89145,0.37514 12.18667,-0.25814 17.27822,-1.7384 12.53641,-3.64444 12.85239,-3.51297 12.34531,5.13389 -0.42573,7.2594 -0.59498,7.5193 -6.22889,9.56793 -3.1852,1.1582 -12.30643,2.3807 -20.26942,2.7166 -11.64661,0.4914 -15.97448,0.076 -22.12895,-2.1233 z m 32.09396,-49.20094 c 1.27778,-2.06762 -2.22019,-13.05366 -4.93997,-15.51494 -7.19273,-6.50939 -21.62785,-3.16927 -25.40853,5.87914 -4.38294,10.48986 -3.97598,10.80897 13.78286,10.80897 8.7123,0 16.16684,-0.52803 16.56564,-1.17317 z m 101.10514,49.20094 c -15.2317,-5.44333 -20.8396,-14.51242 -21.74203,-35.16089 -0.83266,-19.05196 1.86938,-28.20202 11.01842,-37.31211 7.96778,-7.93389 14.58592,-10.30822 28.67708,-10.28823 18.36206,0.026 30.10241,8.58329 33.74921,24.59874 2.01722,8.85904 1.92787,19.31677 -0.18307,21.42768 -1.21841,1.21848 -9.27622,1.73738 -26.97523,1.73738 l -25.23786,0 0.80719,6.018 c 0.54566,4.06836 2.23506,7.44597 5.21443,10.42528 3.79948,3.79951 5.68541,4.48867 13.67559,4.99743 5.89146,0.37514 12.18666,-0.25814 17.27821,-1.7384 12.53643,-3.64444 12.8524,-3.51297 12.34531,5.13389 -0.42573,7.2594 -0.59498,7.5193 -6.22888,9.56793 -3.18519,1.1582 -12.30644,2.3807 -20.26943,2.7166 -11.64659,0.4914 -15.97447,0.076 -22.12894,-2.1233 z m 32.09396,-49.20094 c 1.27778,-2.06762 -2.22018,-13.05366 -4.93996,-15.51494 -7.19275,-6.50939 -21.62786,-3.16927 -25.40854,5.87914 -4.38293,10.48986 -3.97598,10.80897 13.78285,10.80897 8.7123,0 16.16684,-0.52803 16.56565,-1.17317 z m 112.68766,49.20094 c -15.23169,-5.44333 -20.83959,-14.51242 -21.74202,-35.16089 -0.83266,-19.05196 1.86939,-28.20202 11.01843,-37.31211 7.96776,-7.93389 14.5859,-10.30822 28.67706,-10.28823 18.36207,0.026 30.10243,8.58329 33.74921,24.59874 2.01723,8.85904 1.92789,19.31677 -0.18306,21.42768 -1.21841,1.21848 -9.27621,1.73738 -26.97524,1.73738 l -25.23785,0 0.80718,6.018 c 0.54568,4.06836 2.23507,7.44597 5.21445,10.42528 3.79947,3.79951 5.68539,4.48867 13.67557,4.99743 5.89146,0.37514 12.18666,-0.25814 17.27822,-1.7384 12.53642,-3.64444 12.85239,-3.51297 12.34531,5.13389 -0.42573,7.2594 -0.59498,7.5193 -6.22889,9.56793 -3.18519,1.1582 -12.30643,2.3807 -20.26942,2.7166 -11.6466,0.4914 -15.97446,0.076 -22.12895,-2.1233 z m 32.09396,-49.20094 c 1.27778,-2.06762 -2.22018,-13.05366 -4.93996,-15.51494 -7.19273,-6.50939 -21.62786,-3.16927 -25.40854,5.87914 -4.38293,10.48986 -3.97598,10.80897 13.78287,10.80897 8.71229,0 16.16684,-0.52803 16.56563,-1.17317 z m 101.31153,50.46574 c -8.64029,-2.0605 -14.66516,-7.06483 -18.90843,-15.7057 -3.75314,-7.64288 -4.05132,-9.52881 -4.05132,-25.62388 0,-16.40855 0.24131,-17.85636 4.34346,-26.0607 5.70513,-11.41027 12.99182,-16.60192 24.751,-17.63471 7.56858,-0.66472 9.52014,-0.2363 17.02073,3.73654 4.65959,2.46805 8.71415,4.48736 9.01014,4.48736 0.29601,0 0.71848,-9.60987 0.93885,-21.35528 l 0.40065,-21.3553 6.39905,-0.4572 c 3.51947,-0.25148 7.91722,-0.0762 9.77276,0.38954 l 3.37372,0.84673 0,58.58141 0,58.58139 -3.62906,0.9108 c -1.99599,0.501 -5.90509,0.4839 -8.68689,-0.038 -4.61889,-0.8664 -5.05785,-1.3826 -5.05785,-5.94803 l 0,-4.9995 -6.87713,4.9152 c -10.08254,7.20603 -18.52653,9.17903 -28.79968,6.72933 z m 26.24059,-23.70763 6.54059,-6.26703 0,-12.26068 0,-12.26083 -5.42931,-5.27498 c -7.51689,-7.30322 -12.21277,-8.87468 -18.5753,-6.21634 -9.97079,4.16609 -14.26997,25.43726 -7.95298,39.34919 3.22266,7.09734 6.16163,9.09416 13.4725,9.15366 4.43073,0.0362 6.58178,-1.08455 11.9445,-6.22299 z m -595.46142,21.90343 c -1.28831,-1.2882 -1.73738,-15.50163 -1.73738,-54.98936 l 0,-53.25213 3.68824,-0.92569 c 2.02852,-0.50913 13.59295,-0.64341 25.69874,-0.29838 18.22816,0.51951 23.15707,1.14187 28.68272,3.62169 9.07504,4.07272 14.29932,11.2349 15.30539,20.98278 0.99715,9.66151 -1.74602,16.72497 -8.6277,22.21596 l -5.04683,4.02696 6.79981,3.38861 c 9.15098,4.56004 13.12953,11.65333 13.12953,23.40814 0,10.35117 -1.68468,15.43315 -6.96924,21.02299 -8.88935,9.40293 -21.43406,12.53583 -50.19585,12.53583 -12.83961,0 -19.55274,-0.5626 -20.72743,-1.7374 z m 48.48539,-18.46212 c 6.42558,-3.91794 8.57052,-11.8026 5.12592,-18.8426 -3.53534,-7.22534 -10.24597,-10.17859 -23.13478,-10.18134 l -10.49667,0 0,15.92598 0,15.92598 11.94449,0 c 9.27532,0 12.97613,-0.63458 16.56104,-2.82035 z m -5.79127,-47.77794 c 6.04011,-3.68295 8.4161,-11.4552 5.57819,-18.24727 -2.5919,-6.20329 -6.03404,-7.88508 -18.23152,-8.90767 l -10.06093,-0.84347 0,15.41205 0,15.41206 9.04886,0 c 6.40675,0 10.3968,-0.82728 13.6654,-2.82035 z m 54.70089,66.21566 c -0.4012,-1.0455 -0.55565,-19.48218 -0.34322,-40.97038 l 0.38625,-39.06946 9.79542,-0.42862 9.79541,-0.42863 -0.38461,40.96755 -0.38461,40.96744 -9.06759,0.4316 c -6.4721,0.3079 -9.2764,-0.1126 -9.79705,-1.4695 z m 133.54466,0.8578 c -0.56455,-0.5646 -1.02644,-27.27472 -1.02644,-59.35602 l 0,-58.32972 5.06735,-0.95065 c 2.78705,-0.52286 7.35496,-0.52149 10.1509,0.003 l 5.08355,0.95367 -0.37814,58.92986 -0.37814,58.93016 -8.74632,0.4231 c -4.81047,0.2328 -9.20822,-0.039 -9.77276,-0.6033 z m 136.09473,0 c -0.56455,-0.5646 -1.02644,-15.21384 -1.02644,-32.5539 l 0,-31.52735 -6.15322,-0.44521 -6.15322,-0.44521 0,-7.96298 0,-7.96299 5.97151,-0.43632 5.9715,-0.43632 0.66982,-11.57098 c 0.71477,-12.34718 2.6098,-16.40881 10.35318,-22.19009 2.92766,-2.18581 6.74873,-3.1012 14.60003,-3.49768 9.29613,-0.46944 11.01791,-0.15364 13.68079,2.50924 1.86165,1.86165 3.03766,4.8761 3.02412,7.75169 -0.0334,7.1035 -1.473,8.52446 -7.02331,6.93264 -6.68781,-1.91804 -11.42373,0.60399 -13.37708,7.12371 -0.86585,2.88995 -1.34849,6.85463 -1.07253,8.81039 0.45835,3.24835 1.2278,3.59364 8.89671,3.9922 l 8.39498,0.43629 -0.43199,8.25068 -0.43197,8.25052 -8.29745,0.43333 -8.29743,0.43348 -0.38946,32.14239 -0.38946,32.14257 -8.74632,0.4232 c -4.81047,0.2328 -9.20822,-0.039 -9.77276,-0.6033 z m 141.88599,0 c -0.56454,-0.5646 -1.02644,-27.27472 -1.02644,-59.35602 l 0,-58.32972 5.06736,-0.95065 c 2.78704,-0.52286 7.35494,-0.52149 10.1509,0.003 l 5.08355,0.95367 -0.37815,58.92986 -0.37814,58.93016 -8.74631,0.4231 c -4.81047,0.2328 -9.20822,-0.039 -9.77277,-0.6033 z m -407.1389,-94.18827 c -5.15884,-1.38112 -6.51518,-3.58751 -6.51518,-10.59834 0,-4.64258 0.78075,-7.53161 2.39753,-8.87158 2.91232,-2.41372 17.17735,-2.53681 19.5455,-0.16866 2.56145,2.56145 2.33559,14.33701 -0.32604,16.99942 -2.47309,2.47382 -10.48778,3.87445 -15.10181,2.63916 z M 326.86863,814.4013 c -3.36349,-1.19102 -7.76123,-4.1214 -9.77276,-6.51196 -6.01605,-7.14969 -4.49232,-19.2585 3.31217,-26.32147 l 2.92249,-2.64482 -3.62647,-5.31476 c -4.43889,-6.50539 -3.95355,-13.95942 1.36293,-20.93299 l 3.54598,-4.6512 -2.96305,-3.96646 c -2.25499,-3.01866 -2.95806,-6.13234 -2.94225,-13.03035 0.0236,-10.31159 2.5257,-16.24838 9.22288,-21.88369 7.10567,-5.97904 13.50942,-6.94972 38.49504,-5.83507 21.92844,0.97826 22.61077,1.10432 24.13966,4.45982 2.48863,5.46197 -0.19745,11.20344 -5.48592,11.72611 l -4.31732,0.4267 0,11.15583 c 0,9.22147 -0.5599,11.9408 -3.22908,15.68275 -5.33713,7.48224 -12.19378,9.95416 -27.54803,9.93142 -12.03057,-0.0179 -13.49515,0.26954 -14.30013,2.80574 -1.72993,5.45055 3.60311,7.58402 21.02154,8.40961 17.56792,0.83268 24.43257,3.22324 29.76489,10.3653 4.20079,5.62651 4.17285,19.32446 -0.0511,25.0251 -3.90954,5.27639 -11.17891,10.18988 -17.79427,12.02744 -7.94561,2.20706 -34.58031,1.6183 -41.75725,-0.92305 z m 31.7715,-12.14843 c 9.21751,-2.55996 13.10639,-12.28079 6.55785,-16.39239 -1.79167,-1.12492 -7.89695,-2.47415 -13.56728,-2.99825 -10.24482,-0.94693 -10.33366,-0.92446 -14.11621,3.57085 -2.09358,2.48807 -3.8065,5.6523 -3.8065,7.03161 0,8.00794 12.22537,12.31719 24.93214,8.78818 z m 0.65295,-62.762 c 3.22097,-2.77057 4.02933,-4.68937 4.02933,-9.56447 0,-16.39233 -23.60167,-17.625 -26.18746,-1.36773 -0.66547,4.18393 -0.0902,6.01327 3.07321,9.77277 5.00181,5.94431 12.9601,6.42778 19.08492,1.15943 z m 186.7613,76.33929 c -0.53087,-0.53086 -0.96523,-25.94003 -0.96523,-56.46483 l 0,-55.49963 8.68691,0 8.68689,0 0,5.06737 c 0,4.89843 1.75751,6.63237 3.63817,3.58937 0.5024,-0.81288 4.28708,-3.41282 8.4104,-5.77768 6.16224,-3.5342 9.14975,-4.30211 16.78056,-4.31329 13.03951,-0.0191 20.19968,4.3097 25.71851,15.54852 3.84369,7.82747 4.08402,9.41224 4.00703,26.42457 -0.0902,19.92897 -1.44833,24.82701 -9.39328,33.8758 -9.1264,10.39438 -27.29454,12.6217 -38.66725,4.74042 -3.07033,-2.12774 -6.03603,-3.86863 -6.59046,-3.86863 -0.55442,0 -1.00804,8.46973 -1.00804,18.82161 l 0,18.82162 -9.16951,0 c -5.04323,0 -9.60385,-0.43435 -10.1347,-0.96522 z m 43.79374,-47.47285 c 6.36976,-3.29393 9.53938,-11.28334 9.50273,-23.95275 -0.0348,-12.03121 -2.10898,-17.65517 -8.16341,-22.13453 -5.59865,-4.14213 -12.88918,-2.38766 -20.11835,4.8415 l -5.7105,5.7105 0,12.00499 0,12.00499 6.15321,5.91919 c 8.53342,8.20885 11.53095,9.1253 18.33632,5.60611 z m 345.10334,46.04399 c -3.36349,-1.19102 -7.76123,-4.1214 -9.77275,-6.51196 -6.01606,-7.14969 -4.49233,-19.2585 3.31217,-26.32147 l 2.92248,-2.64482 -3.62648,-5.31476 c -4.43888,-6.50539 -3.95354,-13.95942 1.36294,-20.93299 l 3.54597,-4.6512 -2.96304,-3.96646 c -2.25499,-3.01866 -2.95807,-6.13234 -2.94225,-13.03035 0.0236,-10.31159 2.5257,-16.24838 9.22288,-21.88369 7.10568,-5.97904 13.50943,-6.94972 38.49505,-5.83507 21.92843,0.97826 22.61077,1.10432 24.13965,4.45982 2.48862,5.46197 -0.19744,11.20344 -5.48591,11.72611 l -4.31732,0.4267 0,11.15583 c 0,9.22147 -0.5599,11.9408 -3.22908,15.68275 -5.33713,7.48224 -12.19378,9.95416 -27.54803,9.93142 -12.03058,-0.0179 -13.49516,0.26954 -14.30013,2.80574 -1.72994,5.45055 3.60311,7.58402 21.02154,8.40961 17.56792,0.83268 24.43256,3.22324 29.76488,10.3653 4.2008,5.62651 4.17286,19.32446 -0.051,25.0251 -3.90954,5.27639 -11.17892,10.18988 -17.79428,12.02744 -7.9456,2.20706 -34.58031,1.6183 -41.75725,-0.92305 z m 31.7715,-12.14843 c 9.21752,-2.55996 13.10639,-12.28079 6.55786,-16.39239 -1.79167,-1.12492 -7.89695,-2.47415 -13.56728,-2.99825 -10.24482,-0.94693 -10.33366,-0.92446 -14.11621,3.57085 -2.09359,2.48807 -3.80651,5.6523 -3.80651,7.03161 0,8.00794 12.22538,12.31719 24.93214,8.78818 z m 0.65295,-62.762 c 3.22098,-2.77057 4.02934,-4.68937 4.02934,-9.56447 0,-16.39233 -23.60168,-17.625 -26.18746,-1.36773 -0.66548,4.18393 -0.0902,6.01327 3.0732,9.77277 5.00181,5.94431 12.96009,6.42778 19.08492,1.15943 z m -715.88124,45.70234 c -15.2317,-5.44331 -20.8396,-14.51231 -21.74203,-35.16089 -0.83266,-19.05189 1.86939,-28.20191 11.01843,-37.31205 7.96777,-7.93389 14.58591,-10.30822 28.67707,-10.28823 18.36206,0.026 30.10242,8.58323 33.74921,24.59872 2.01722,8.85898 1.92788,19.31675 -0.18307,21.42769 -1.21841,1.21841 -9.27621,1.73738 -26.97523,1.73738 l -25.23786,0 0.80719,6.01802 c 0.54567,4.06828 2.23507,7.4459 5.21444,10.42528 3.79947,3.79947 5.6854,4.48865 13.67558,4.99743 5.89145,0.37512 12.18666,-0.25824 17.27821,-1.7384 12.53642,-3.64442 12.8524,-3.51304 12.34531,5.13374 -0.42573,7.25951 -0.59498,7.5195 -6.22888,9.56808 -3.1852,1.15818 -12.30644,2.38065 -20.26943,2.71659 -11.64659,0.49133 -15.97446,0.076 -22.12894,-2.12336 z m 32.09396,-49.20096 c 1.27778,-2.06752 -2.22018,-13.05358 -4.93997,-15.51495 -7.19273,-6.50934 -21.62785,-3.16922 -25.40853,5.87921 -4.38293,10.48983 -3.97598,10.80897 13.78286,10.80897 8.71229,0 16.16684,-0.52796 16.56564,-1.17323 z m 184.12607,49.68648 c -7.36115,-2.62229 -12.31356,-6.34062 -16.35651,-12.28067 -4.66156,-6.84891 -6.15111,-13.55299 -6.16028,-27.7256 -0.0131,-19.65418 5.30906,-30.77385 18.39962,-38.44543 5.59591,-3.27942 8.87986,-4.04523 19.53021,-4.55443 15.24709,-0.72897 23.37983,1.21785 30.86626,7.38881 8.77604,7.23395 12.24264,16.56517 12.2594,32.99938 0.009,9.13507 -0.80311,16.25677 -2.38371,20.8956 -3.32769,9.76626 -12.57809,18.71495 -22.34382,21.61507 -9.38126,2.78593 -26.14252,2.83911 -33.81117,0.10723 z m 28.1487,-17.86679 c 6.04642,-4.37648 8.68215,-11.38474 8.68466,-23.09193 0.003,-12.80183 -2.57707,-19.55215 -8.95949,-23.4434 -9.47707,-5.778 -20.81496,-2.34264 -25.72187,7.79368 -5.69378,11.7618 -2.9564,33.87467 4.82452,38.97292 6.74646,4.42046 14.86809,4.33173 21.17218,-0.23127 z m 161.51523,17.86679 c -7.36115,-2.62229 -12.31356,-6.34062 -16.3565,-12.28067 -4.66156,-6.84891 -6.15112,-13.55299 -6.16029,-27.7256 -0.0131,-19.65418 5.30906,-30.77385 18.39962,-38.44543 5.59592,-3.27942 8.87986,-4.04523 19.53022,-4.55443 15.24708,-0.72897 23.37982,1.21785 30.86625,7.38881 8.77605,7.23395 12.24264,16.56517 12.2594,32.99938 0.009,9.13507 -0.8031,16.25677 -2.38371,20.8956 -3.32769,9.76626 -12.57809,18.71495 -22.34382,21.61507 -9.38126,2.78593 -26.14252,2.83911 -33.81117,0.10723 z m 28.1487,-17.86679 c 6.04642,-4.37648 8.68215,-11.38474 8.68466,-23.09193 0.003,-12.80183 -2.57707,-19.55215 -8.95947,-23.4434 -9.47708,-5.778 -20.81498,-2.34264 -25.72189,7.79368 -5.69378,11.7618 -2.95639,33.87467 4.82452,38.97292 6.74646,4.42046 14.86809,4.33173 21.17218,-0.23127 z m 174.05017,17.38127 c -15.2317,-5.44331 -20.83959,-14.51231 -21.74203,-35.16089 -0.83266,-19.05189 1.86939,-28.20191 11.01843,-37.31205 7.96776,-7.93389 14.5859,-10.30822 28.67707,-10.28823 18.36206,0.026 30.10242,8.58323 33.7492,24.59872 2.01723,8.85898 1.92789,19.31675 -0.18306,21.42769 -1.21841,1.21841 -9.27621,1.73738 -26.97524,1.73738 l -25.23785,0 0.80719,6.01802 c 0.54567,4.06828 2.23507,7.4459 5.21444,10.42528 3.79948,3.79947 5.68539,4.48865 13.67558,4.99743 5.89145,0.37512 12.18666,-0.25824 17.27821,-1.7384 12.53642,-3.64442 12.85239,-3.51304 12.34531,5.13374 -0.42573,7.25951 -0.59498,7.5195 -6.22888,9.56808 -3.1852,1.15818 -12.30644,2.38065 -20.26943,2.71659 -11.6466,0.49133 -15.97446,0.076 -22.12894,-2.12336 z m 32.09395,-49.20096 c 1.2778,-2.06752 -2.22018,-13.05358 -4.93996,-15.51495 -7.19273,-6.50934 -21.62786,-3.16922 -25.40854,5.87921 -4.38293,10.48983 -3.97598,10.80897 13.78287,10.80897 8.71229,0 16.16684,-0.52796 16.56563,-1.17323 z m 184.12605,49.68648 c -7.3611,-2.62229 -12.3135,-6.34062 -16.3565,-12.28067 -4.6615,-6.84891 -6.1511,-13.55299 -6.1602,-27.7256 -0.013,-19.65418 5.309,-30.77385 18.3996,-38.44543 5.5959,-3.27942 8.8798,-4.04523 19.5302,-4.55443 15.2471,-0.72897 23.3798,1.21785 30.8662,7.38881 8.7761,7.23395 12.2427,16.56517 12.2594,32.99938 0.01,9.13507 -0.8031,16.25677 -2.3837,20.8956 -3.3277,9.76626 -12.5781,18.71495 -22.3438,21.61507 -9.3812,2.78593 -26.1425,2.83911 -33.8112,0.10723 z m 28.1487,-17.86679 c 6.0465,-4.37648 8.6822,-11.38474 8.6847,-23.09193 0,-12.80183 -2.5771,-19.55215 -8.9595,-23.4434 -9.4771,-5.778 -20.8149,-2.34264 -25.7219,7.79368 -5.6937,11.7618 -2.9564,33.87467 4.8246,38.97292 6.7464,4.42046 14.868,4.33173 21.1721,-0.23127 z m -967.56456,17.67338 c -0.56347,-0.56347 -1.0245,-25.33541 -1.0245,-55.04872 l 0,-54.02424 3.60028,-0.90362 c 1.98015,-0.49697 13.87034,-0.63665 26.42266,-0.31037 17.56273,0.45649 24.15703,1.17658 28.61364,3.12455 12.73896,5.56813 19.12312,16.637 17.67701,30.6484 -1.04327,10.10829 -5.33541,17.06831 -13.46316,21.83147 l -6.39276,3.74642 4.16311,3.88892 c 6.4733,6.04696 22.9821,41.60948 21.323,45.93304 -1.02433,2.66934 -20.10799,2.84972 -22.24883,0.2103 -0.80735,-0.99538 -4.43207,-8.86934 -8.05493,-17.4977 -3.62287,-8.62836 -7.65339,-17.31538 -8.9567,-19.3045 -2.75098,-4.19853 -10.29325,-7.71815 -16.53936,-7.71815 l -4.35319,0 -0.39872,22.8031 -0.39872,22.80311 -9.47216,0.42125 c -5.20967,0.23169 -9.93318,-0.0398 -10.49667,-0.60326 z m 43.34084,-63.71713 c 10.1694,-4.8257 12.22497,-16.61878 4.28131,-24.56244 -4.73462,-4.73461 -5.34274,-4.92258 -15.92598,-4.92258 l -11.00342,0 0,15.92598 0,15.92599 8.83004,0 c 5.1734,0 10.89567,-0.9802 13.81805,-2.36695 z m 227.0572,62.86125 c -0.40121,-1.04551 -0.55565,-19.48218 -0.34323,-40.97038 l 0.38626,-39.06944 9.79541,-0.42863 9.79542,-0.42861 -0.38462,40.96747 -0.3846,40.96748 -9.06759,0.43152 c -6.4721,0.30801 -9.2764,-0.11269 -9.79705,-1.46941 z m 330.44767,0.85783 c -0.56455,-0.56455 -1.02644,-27.2748 -1.02644,-59.35611 l 0,-58.32965 5.06735,-0.95064 c 2.78705,-0.52285 7.35496,-0.52149 10.1509,0.003 l 5.08355,0.95368 -0.37814,58.92987 -0.37814,58.93002 -8.74632,0.42319 c -4.81047,0.23274 -9.20822,-0.0387 -9.77276,-0.60325 z m 43.43449,0 c -0.56454,-0.56455 -1.02645,-19.16035 -1.02645,-41.32401 l 0,-40.29756 8.68691,0 8.68689,0 0.0457,6.15323 0.0457,6.15322 3.21466,-3.61954 c 6.7663,-7.6185 11.31393,-10.13472 18.31678,-10.13472 8.28429,0 10.23472,1.78406 10.20925,9.33841 -0.0342,10.1371 -1.19622,12.50038 -5.57476,11.33761 -7.59176,-2.01608 -10.90054,-0.84523 -17.17483,6.07746 l -6.11948,6.75189 -0.3957,24.87203 -0.3957,24.87204 -8.74631,0.42318 c -4.81047,0.23275 -9.20821,-0.0387 -9.77276,-0.60324 z m 234.20066,-0.85783 c -0.4012,-1.04551 -0.5556,-19.48218 -0.3432,-40.97038 l 0.3862,-39.06944 9.7955,-0.42863 9.7954,-0.42861 -0.3846,40.96747 -0.3846,40.96748 -9.0676,0.43152 c -6.4721,0.30801 -9.2764,-0.11269 -9.7971,-1.46941 z m 139.3359,0.85783 c -0.5645,-0.56455 -1.0264,-19.16035 -1.0264,-41.32401 l 0,-40.29756 8.6869,0 8.6869,0 0,5.06737 c 0,2.78704 0.3201,5.06735 0.7114,5.06735 0.3912,0 3.6637,-2.25358 7.2721,-5.00795 7.4549,-5.69046 13.3735,-7.20315 24.555,-6.27589 9.8527,0.81705 16.9583,5.91815 20.2206,14.51653 1.9491,5.13666 2.276,11.42541 1.9391,37.30617 l -0.4051,31.12805 -9.4108,0 -9.4108,0 -0.7239,-27.57871 c -0.6038,-23.00322 -1.1442,-28.21919 -3.2576,-31.43907 -5.7448,-8.75288 -13.5409,-8.54032 -22.7001,0.61889 l -5.83,5.82999 -0.3941,26.28445 -0.3941,26.28445 -8.7463,0.42318 c -4.8105,0.23275 -9.2082,-0.0387 -9.7728,-0.60324 z M 411.16615,691.299 c -5.15883,-1.38114 -6.51517,-3.58752 -6.51517,-10.59835 0,-4.64258 0.78075,-7.53162 2.39752,-8.87159 2.91233,-2.4137 17.17736,-2.5368 19.54551,-0.16865 2.56145,2.56145 2.33559,14.337 -0.32604,16.99941 -2.4731,2.47382 -10.48778,3.87445 -15.10182,2.63918 z m 608.08285,0 c -5.1588,-1.38114 -6.5152,-3.58752 -6.5152,-10.59835 0,-4.64258 0.7808,-7.53162 2.3975,-8.87159 2.9124,-2.4137 17.1774,-2.5368 19.5456,-0.16865 2.5614,2.56145 2.3355,14.337 -0.3261,16.99941 -2.4731,2.47382 -10.4878,3.87445 -15.1018,2.63918 z"
       id="path4147"
       inkscape:connector-curvature="0" />
  </g>
</svg>
