<?xml version="1.0" encoding="utf-8"?>
<svg version="1.1" id="Ebene_1" xmlns="http://www.w3.org/2000/svg" xmlns:xlink="http://www.w3.org/1999/xlink" x="0px" y="0px"
	 viewBox="0 0 34.6 43" style="enable-background:new 0 0 34.6 43;" xml:space="preserve">
<style type="text/css">
	.st0{fill:#E1141C;}
	.st1{fill:#FFFFFF;fill-opacity:0;}
</style>
<g>
	<path class="st0" d="M29.4,5h-5.3v4.4h-4.5V5h-5v4.4h-4.4V5H5v9.4h24.6L29.4,5L29.4,5z M15.8,31.6c0-1.2-0.8-1.7-2.1-1.7h-4v3.5h4
		C15,33.4,15.8,32.9,15.8,31.6 M10,25.8h2.1c1.3,0,2.1-0.8,2.1-1.7c0-1.1-0.8-1.7-2.1-1.7H10V25.8L10,25.8z M21.2,31.8
		c0,3.5-3,6-6.9,6H5V17.7h7.4c4,0,6.9,2.4,6.9,6c0,1.3-0.5,2.5-1.2,3.4C19.9,27.9,21.2,29.5,21.2,31.8 M29.4,38h-5.3V17.7h5.3
		L29.4,38L29.4,38z"/>
</g>
<rect y="0" class="st1" width="34.5" height="43"/>
</svg>
