<?xml version="1.0" encoding="utf-8"?>
<!-- Generator: Adobe Illustrator 25.3.0, SVG Export Plug-In . SVG Version: 6.00 Build 0)  -->
<svg version="1.1" id="Ebene_1" xmlns="http://www.w3.org/2000/svg" xmlns:xlink="http://www.w3.org/1999/xlink" x="0px" y="0px"
	 viewBox="0 0 212.6 68.5" style="enable-background:new 0 0 212.6 68.5;" xml:space="preserve">
<style type="text/css">
	.st0{fill:none;stroke:#E30613;stroke-width:17.255;stroke-miterlimit:10;}
	.st1{fill:#E30613;}
	.st2{fill:#FFFFFF;}
</style>
<g>
	<line class="st0" x1="73.1" y1="60" x2="212.6" y2="60"/>
	<g>
		<path class="st1" d="M81.7,33.9l-1.6,1.2c-0.6-0.8-1.2-1.3-2.2-1.3c-0.8,0-1.4,0.3-1.4,1.1c0,0.7,0.5,0.9,1.3,1.3l1.3,0.6
			c1.8,0.8,2.8,1.7,2.8,3.3c0,2.1-1.7,3.4-4,3.4c-2,0-3.6-1-4.4-2.5l1.6-1.2c0.6,0.9,1.4,1.7,2.8,1.7c1,0,1.6-0.5,1.6-1.3
			c0-0.7-0.6-1-1.4-1.4l-1.2-0.6c-1.6-0.7-2.8-1.7-2.8-3.3c0-2,1.6-3.2,3.8-3.2C79.8,31.8,81,32.7,81.7,33.9z"/>
	</g>
	<g>
		<path class="st1" d="M89.5,41.4v2c-0.5,0.1-1,0.2-1.6,0.2c-2.1,0-3.4-1-3.4-3.2v-3.6h-1.3v-2h1.3v-2.2h2.3v2.2h2.4v2h-2.4v3.4
			c0,1,0.5,1.3,1.6,1.3C88.7,41.5,89.1,41.4,89.5,41.4z"/>
		<path class="st1" d="M98.6,38.3v5.1h-2.1v-0.8c-0.6,0.6-1.5,1-2.6,1c-1.9,0-3-1.1-3-2.6c0-1.6,1.3-2.5,3.2-2.5h2.1v-0.4
			c0-0.9-0.5-1.5-1.6-1.5c-0.9,0-1.6,0.4-2.3,1.2l-1.2-1.4c1-1.2,2.2-1.8,3.7-1.8C97.2,34.6,98.6,35.9,98.6,38.3z M96.3,40.2v-0.1
			h-1.8c-0.8,0-1.2,0.3-1.2,0.9c0,0.6,0.5,0.9,1.2,0.9C95.5,41.9,96.3,41.2,96.3,40.2z"/>
		<path class="st1" d="M109.7,30.4v12.9h-2.1v-1.1c-0.6,0.8-1.6,1.3-2.7,1.3c-2.4,0-4.1-1.9-4.1-4.5c0-2.6,1.7-4.5,4.1-4.5
			c1.1,0,1.9,0.4,2.6,1v-5.2H109.7z M107.4,39.1c0-1.6-1.1-2.4-2.2-2.4c-1.2,0-2.2,0.9-2.2,2.3c0,1.4,1,2.4,2.2,2.4
			C106.3,41.4,107.4,40.7,107.4,39.1z"/>
		<path class="st1" d="M117.7,41.4v2c-0.5,0.1-1,0.2-1.6,0.2c-2.1,0-3.4-1-3.4-3.2v-3.6h-1.3v-2h1.3v-2.2h2.3v2.2h2.4v2H115v3.4
			c0,1,0.5,1.3,1.6,1.3C116.9,41.5,117.3,41.4,117.7,41.4z"/>
		<path class="st1" d="M133.8,40c0,2-1.5,3.3-3.7,3.3h-5.1V32h4c2.1,0,3.6,1.3,3.6,3.2c0,0.8-0.3,1.5-0.8,2.1
			C133,37.7,133.8,38.6,133.8,40z M127.2,34v2.6h1.6c1,0,1.5-0.5,1.5-1.3c0-0.8-0.5-1.3-1.5-1.3H127.2z M131.5,39.9
			c0-0.9-0.6-1.4-1.6-1.4h-2.7v2.9h2.7C130.9,41.4,131.5,40.8,131.5,39.9z"/>
		<path class="st1" d="M138.4,31.7c0,0.8-0.7,1.4-1.5,1.4c-0.8,0-1.5-0.6-1.5-1.4c0-0.8,0.7-1.4,1.5-1.4
			C137.7,30.3,138.4,30.9,138.4,31.7z M138.1,43.4h-2.3v-8.5h2.3V43.4z"/>
		<path class="st1" d="M148.5,39.9h-6c0.3,1.1,1.2,1.7,2.4,1.7c0.9,0,1.7-0.3,2.4-0.9l1,1.6c-1,0.8-2.1,1.3-3.4,1.3
			c-2.7,0-4.7-1.9-4.7-4.5c0-2.5,2-4.5,4.5-4.5c2.4,0,4,1.8,4,4C148.7,39.1,148.6,39.6,148.5,39.9z M142.5,38.2h3.9
			c0-1.1-0.9-1.7-1.8-1.7C143.6,36.5,142.8,37.2,142.5,38.2z"/>
		<path class="st1" d="M153.1,43.4h-2.3V30.4h2.3V43.4z"/>
		<path class="st1" d="M163.5,39.9h-6c0.3,1.1,1.2,1.7,2.4,1.7c0.9,0,1.7-0.3,2.4-0.9l1,1.6c-1,0.8-2.1,1.3-3.4,1.3
			c-2.7,0-4.7-1.9-4.7-4.5c0-2.5,2-4.5,4.5-4.5c2.4,0,4,1.8,4,4C163.6,39.1,163.6,39.6,163.5,39.9z M157.5,38.2h3.9
			c0-1.1-0.9-1.7-1.8-1.7C158.6,36.5,157.8,37.2,157.5,38.2z"/>
		<path class="st1" d="M168.4,33.6v1.2h1.9v2h-1.9v6.6h-2.3v-6.6h-1.2v-2h1.2v-1.4c0-2.2,1.3-3.2,3.3-3.2c0.5,0,0.9,0.1,1.3,0.2v1.9
			c-0.3,0-0.5-0.1-0.7-0.1C169,32.3,168.4,32.7,168.4,33.6z"/>
		<path class="st1" d="M179.7,39.9h-6c0.3,1.1,1.2,1.7,2.4,1.7c0.9,0,1.7-0.3,2.4-0.9l1,1.6c-1,0.8-2.1,1.3-3.4,1.3
			c-2.7,0-4.7-1.9-4.7-4.5c0-2.5,2-4.5,4.5-4.5c2.4,0,4,1.8,4,4C179.9,39.1,179.8,39.6,179.7,39.9z M173.7,38.2h3.9
			c0-1.1-0.9-1.7-1.8-1.7C174.8,36.5,174,37.2,173.7,38.2z"/>
		<path class="st1" d="M184.3,43.4h-2.3V30.4h2.3V43.4z"/>
		<path class="st1" d="M195.4,30.4v12.9h-2.1v-1.1c-0.6,0.8-1.6,1.3-2.7,1.3c-2.4,0-4.1-1.9-4.1-4.5c0-2.6,1.7-4.5,4.1-4.5
			c1.1,0,2,0.4,2.6,1v-5.2H195.4z M193.1,39.1c0-1.6-1.1-2.4-2.2-2.4c-1.2,0-2.2,0.9-2.2,2.3c0,1.4,1,2.4,2.2,2.4
			C192,41.4,193.1,40.7,193.1,39.1z"/>
	</g>
	<g>
		<path class="st2" d="M85.1,61.8c0,2.1-1.4,3.6-3.3,3.6c-0.9,0-1.7-0.4-2.2-1v0.8h-1.7V54.9h1.9v4.2c0.5-0.5,1.2-0.8,2-0.8
			C83.7,58.2,85.1,59.8,85.1,61.8z M83.2,61.8c0-1.2-0.8-1.9-1.8-1.9c-0.9,0-1.7,0.6-1.7,1.9c0,1.3,0.9,1.9,1.7,1.9
			C82.4,63.7,83.2,63,83.2,61.8z"/>
		<path class="st2" d="M88.7,55.9c0,0.6-0.5,1.1-1.2,1.1c-0.7,0-1.2-0.5-1.2-1.1c0-0.7,0.5-1.2,1.2-1.2
			C88.1,54.8,88.7,55.3,88.7,55.9z M88.4,65.2h-1.9v-6.8h1.9V65.2z"/>
		<path class="st2" d="M96.5,62.4h-4.8c0.2,0.9,0.9,1.4,1.9,1.4c0.7,0,1.4-0.3,1.9-0.7l0.8,1.3c-0.8,0.6-1.7,1-2.7,1
			c-2.2,0-3.7-1.6-3.7-3.6c0-2,1.6-3.6,3.6-3.6c1.9,0,3.2,1.4,3.2,3.2C96.7,61.8,96.6,62.2,96.5,62.4z M91.7,61.1h3.1
			c0-0.9-0.7-1.4-1.5-1.4S91.9,60.3,91.7,61.1z"/>
		<path class="st2" d="M100,65.2h-1.9V54.9h1.9V65.2z"/>
		<path class="st2" d="M108.1,62.4h-4.8c0.2,0.9,0.9,1.4,1.9,1.4c0.7,0,1.4-0.3,1.9-0.7l0.8,1.3c-0.8,0.6-1.7,1-2.7,1
			c-2.2,0-3.7-1.6-3.7-3.6c0-2,1.6-3.6,3.6-3.6c1.9,0,3.2,1.4,3.2,3.2C108.2,61.8,108.2,62.2,108.1,62.4z M103.3,61.1h3.1
			c0-0.9-0.7-1.4-1.5-1.4S103.5,60.3,103.3,61.1z"/>
		<path class="st2" d="M111.9,57.4v1h1.5V60h-1.5v5.3H110V60h-1v-1.6h1v-1.1c0-1.8,1-2.6,2.6-2.6c0.4,0,0.8,0.1,1,0.2v1.6
			c-0.2,0-0.4,0-0.6,0C112.3,56.4,111.9,56.7,111.9,57.4z"/>
		<path class="st2" d="M120.7,62.4h-4.8c0.2,0.9,0.9,1.4,1.9,1.4c0.7,0,1.4-0.3,1.9-0.7l0.8,1.3c-0.8,0.6-1.7,1-2.7,1
			c-2.2,0-3.7-1.6-3.7-3.6c0-2,1.6-3.6,3.6-3.6c1.9,0,3.2,1.4,3.2,3.2C120.8,61.8,120.7,62.2,120.7,62.4z M115.9,61.1h3.1
			c0-0.9-0.7-1.4-1.5-1.4S116.1,60.3,115.9,61.1z"/>
		<path class="st2" d="M124.1,65.2h-1.9V54.9h1.9V65.2z"/>
		<path class="st2" d="M132.8,54.9v10.3h-1.7v-0.8c-0.5,0.6-1.3,1-2.2,1c-1.9,0-3.3-1.5-3.3-3.6c0-2.1,1.4-3.6,3.3-3.6
			c0.9,0,1.6,0.3,2,0.8v-4.2H132.8z M131,61.8c0-1.3-0.9-1.9-1.7-1.9c-1,0-1.8,0.7-1.8,1.9c0,1.2,0.8,1.9,1.8,1.9
			C130.1,63.7,131,63.1,131,61.8z"/>
		<path class="st2" d="M142.9,57.9l-1.3,1.1c-0.6-0.8-1.4-1.3-2.5-1.3c-1.8,0-2.9,1.3-2.9,3c0,1.8,1.2,3,3,3c1.1,0,1.9-0.4,2.4-1.1
			v-0.7h-2.5v-1.6h4.4v2.7c-0.8,1.4-2.4,2.5-4.3,2.5c-2.7,0-4.9-2-4.9-4.7c0-2.7,2.1-4.7,4.9-4.7C140.7,56,142.1,56.7,142.9,57.9z"
			/>
		<path class="st2" d="M151.2,57.8h-4.3v1.8h3.1v1.6h-3.1v2.3h4.4v1.7h-6.3v-9.1h6.1V57.8z"/>
	</g>
	<g>
		<path class="st2" d="M161.9,60.7c0,2.7-2.2,4.7-4.9,4.7c-2.7,0-4.8-2-4.8-4.7c0-2.7,2.2-4.7,4.8-4.7C159.8,56,161.9,58,161.9,60.7
			z M154.2,60.7c0,1.8,1.2,3,2.9,3c1.7,0,2.9-1.2,2.9-3c0-1.8-1.3-3-2.9-3C155.4,57.7,154.2,58.9,154.2,60.7z"/>
		<path class="st2" d="M171.9,58.2l-1.4,1c-0.6-1-1.5-1.5-2.6-1.5c-1.7,0-2.9,1.2-2.9,3c0,1.8,1.2,3,2.9,3c1.1,0,2-0.6,2.6-1.5
			l1.4,1c-0.8,1.4-2.3,2.3-4,2.3c-2.7,0-4.8-2-4.8-4.7c0-2.7,2.1-4.7,4.9-4.7C169.6,56,171.1,56.8,171.9,58.2z"/>
		<path class="st2" d="M175.3,63.5h4v1.7h-5.9v-9.1h1.9V63.5z"/>
		<path class="st2" d="M182.6,65.2h-1.9v-9.1h1.9V65.2z"/>
		<path class="st2" d="M190.8,57.8h-4.3v1.8h3.1v1.6h-3.1v2.3h4.4v1.7h-6.3v-9.1h6.1V57.8z"/>
		<path class="st2" d="M200.3,56.1v9.3h-0.6l-5.3-5.6v5.5h-1.9V56h0.6l5.3,5.6v-5.4H200.3z"/>
		<path class="st2" d="M209.2,57.8h-2.9v7.4h-1.9v-7.4h-2.9v-1.7h7.7V57.8z"/>
	</g>
	<path class="st1" d="M48.9,26.4v42.1H38.3V26.4H48.9L48.9,26.4z M32.6,56c0,7.4-5.9,12.5-13.7,12.5H0V26.4h14.6
		c7.7,0,13.7,5,13.7,12.4c0,2.9-0.9,5.3-2.5,7.1C30,47.6,32.6,51,32.6,56L32.6,56z M10.1,43.1h4.1c2.5,0,4.1-1.5,4.1-3.7
		c0-2.2-1.5-3.7-4.1-3.7h-4.1V43.1L10.1,43.1z M22,55.5c0-2.5-1.6-3.7-4.1-3.7h-7.8v7.4H18C20.4,59.2,22,58,22,55.5L22,55.5z
		 M48.9,0H38.3v9.1h-8.9V0H19.4v9.1h-8.9V0H0v19.6h48.9V0L48.9,0z"/>
</g>
</svg>
