<?xml version="1.0" encoding="utf-8"?>
<!-- Generator: Adobe Illustrator 16.0.5, SVG Export Plug-In . SVG Version: 6.00 Build 0)  -->
<!DOCTYPE svg PUBLIC "-//W3C//DTD SVG 1.1//EN" "http://www.w3.org/Graphics/SVG/1.1/DTD/svg11.dtd">
<svg version="1.1" xmlns="http://www.w3.org/2000/svg" xmlns:xlink="http://www.w3.org/1999/xlink" x="0px" y="0px" width="54.25px"
	 height="42.01px" viewBox="0 0 54.25 42.01" enable-background="new 0 0 54.25 42.01" xml:space="preserve">
<symbol  id="Schlüssel_Schwarz" viewBox="-55.49 -27.448 110.98 54.896">
	<g>
		<path d="M28.045-24.948c-9.479,0-18.049,5.323-22.279,13.697l-10.737-0.021l-5.056,5.562l-0.167,0.413
			c-0.549,1.358-1.484,2.009-2.941,2.048l-0.104,0.001c-1.523,0-2.618-0.808-3.083-2.274l-0.237-0.748l-7.498-5.752l-6.861,6.206
			l-0.187-0.031l-2.418-3.4l-7.64-0.016l-0.728,0.696C-43.818-6.724-49-1.775-49.833-1.039c-1.654,1.458-3.144,2.938-3.157,4.961
			c-0.005,0.823,0.253,2.045,1.52,3.191l0.259,0.234l3.134,1.547l2.823,1.682H5.435c4.067,8.663,12.943,14.372,22.61,14.372
			c13.755,0,24.945-11.186,24.945-24.935C52.99-13.75,41.8-24.948,28.045-24.948z"/>
		<path fill="#FFFFFF" d="M28.045,22.448c12.396,0,22.445-10.043,22.445-22.435c0-12.408-10.049-22.462-22.445-22.462
			c-9.295,0-17.271,5.648-20.686,13.699L-3.867-8.771l-4.01,4.412c-0.923,2.282-2.727,3.542-5.191,3.608
			c-0.057,0.001-0.114,0.002-0.17,0.002c-2.609,0-4.666-1.492-5.466-4.018l-5.221-4.005l-6.209,5.615l-2.404-0.395l-2.276-3.202
			l-5.347-0.01c0,0-6.963,6.666-8.014,7.596c-1.996,1.76-3.129,3.058-1.617,4.427l2.91,1.437l2.316,1.38h51.65
			C10.322,16.48,18.484,22.448,28.045,22.448 M28.045,27.448c-10.09,0-19.396-5.653-24.145-14.372h-48.466h-1.376l-1.183-0.704
			l-2.147-1.28l-2.732-1.348l-0.626-0.309l-0.518-0.469c-1.522-1.38-2.354-3.177-2.341-5.062c0.022-3.31,2.517-5.509,4.007-6.823
			c0.706-0.624,5.198-4.906,7.863-7.456l1.454-1.393l2.014,0.004l5.347,0.01l2.573,0.006l1.491,2.098l0.13,0.183l3.331-3.012
			l3.09-2.795l3.307,2.535l5.221,4.003l1.248,0.958l0.475,1.499c0.146,0.46,0.288,0.529,0.701,0.529
			c0.493-0.013,0.541-0.026,0.727-0.486l0.335-0.828l0.6-0.659l4.01-4.411l1.492-1.642l2.218,0.004l8.136,0.018
			c4.867-8.417,13.866-13.694,23.766-13.694c15.133,0,27.445,12.318,27.445,27.462C55.49,15.142,43.178,27.448,28.045,27.448
			L28.045,27.448z"/>
	</g>
	<g>
		<path fill="#FFFFFF" d="M38.152-8.905c-4.523,0-8.203,3.676-8.203,8.193c0,4.52,3.68,8.196,8.203,8.196s8.203-3.677,8.203-8.196
			C46.355-5.229,42.676-8.905,38.152-8.905z"/>
		<path d="M38.152,4.484c2.877,0,5.203-2.322,5.203-5.196c0-2.873-2.326-5.193-5.203-5.193c-2.87,0-5.203,2.32-5.203,5.193
			C32.949,2.162,35.282,4.484,38.152,4.484 M38.152,10.484c-6.177,0-11.203-5.022-11.203-11.196c0-6.172,5.026-11.193,11.203-11.193
			S49.355-6.884,49.355-0.712C49.355,5.462,44.33,10.484,38.152,10.484L38.152,10.484z"/>
	</g>
</symbol>
<g id="Ebene_1">
	<g>
		<path fill="#FFFFFF" stroke="#000000" stroke-width="0.0889" d="M4.011,41.005c-1.959,0-3.556-1.592-3.556-3.556V4.561
			c0-1.964,1.597-3.556,3.556-3.556h46.229c1.958,0,3.556,1.592,3.556,3.556v32.888c0,1.964-1.597,3.556-3.556,3.556H4.011z"/>
		<path d="M4.011,40.116c-1.466,0-2.661-1.191-2.661-2.667V4.561c0-1.476,1.195-2.667,2.661-2.667h46.229
			c1.466,0,2.661,1.191,2.661,2.667v32.888c0,1.476-1.195,2.667-2.661,2.667H4.011z"/>
		<path fill="#FFFFFF" d="M4.011,38.786c-0.733,0-1.329-0.603-1.329-1.336V4.561c0-0.734,0.596-1.336,1.329-1.336h46.229
			c0.733,0,1.329,0.603,1.329,1.336v32.888c0,0.733-0.596,1.336-1.329,1.336H4.011z"/>
		<path d="M11.194,14.072v-7.47h1.134v6.405h3.663v1.065H11.194z"/>
		<path d="M17.057,14.072V8.738h1.07v5.334H17.057z M17.057,7.675V6.602h1.07v1.073H17.057z"/>
		<path d="M19.726,14.072V8.738h1.063v0.6c0.625-0.769,1.759-0.89,2.538-0.266c0.42,0.341,0.664,0.854,0.664,1.396v3.604h-1.065
			v-3.27c0-0.588-0.478-1.062-1.063-1.062c-0.59,0-1.073,0.474-1.073,1.062v3.27H19.726z"/>
		<path d="M25.592,14.072V8.738h1.068v5.334H25.592z M25.592,7.675V6.602h1.068v1.073H25.592z"/>
		<path d="M32.525,11.805H29.19v0.131c0,0.465,0.287,0.881,0.717,1.051l0,0c0.587,0.238,1.271,0.078,1.681-0.41l0.813,0.695
			c-0.716,0.828-1.876,1.117-2.893,0.711l0,0c-0.833-0.333-1.381-1.147-1.381-2.047v-1.063c0-1.217,0.98-2.203,2.196-2.203
			c1.217,0,2.202,0.985,2.202,2.203V11.805z M29.19,10.874h2.267c0-0.626-0.507-1.133-1.133-1.133S29.19,10.247,29.19,10.874z"/>
		<path d="M33.99,14.072V8.738h1.07v0.6c0.625-0.769,1.759-0.89,2.527-0.266c0.427,0.341,0.672,0.854,0.672,1.396v3.604h-1.065
			v-3.27c0-0.588-0.48-1.062-1.07-1.062c-0.59,0-1.063,0.474-1.063,1.062v3.27H33.99z"/>
		<path d="M39.858,11.673v-1.068h3.198v1.068H39.858z"/>
		<path d="M10.789,24.74l-1.934-5.334H9.99l1.266,3.735l1.27-3.735h1.133l-1.934,5.334H10.789z"/>
		<path d="M18.856,22.473h-3.33v0.131c0,0.461,0.281,0.881,0.71,1.051l0,0c0.593,0.239,1.27,0.075,1.687-0.414l0.813,0.699
			c-0.718,0.826-1.875,1.117-2.892,0.707l0,0c-0.838-0.332-1.385-1.144-1.385-2.043v-1.062c0-1.218,0.983-2.207,2.201-2.207
			s2.196,0.989,2.196,2.207V22.473z M15.526,21.542h2.267c0-0.626-0.507-1.134-1.133-1.134S15.526,20.916,15.526,21.542z"/>
		<path d="M20.323,24.74v-5.334h1.069v0.6c0.625-0.769,1.758-0.891,2.531-0.266c0.001,0.001,0.002,0.001,0.003,0.002l-0.757,0.934
			c-0.445-0.392-1.113-0.353-1.506,0.085c-0.174,0.195-0.271,0.449-0.271,0.709v3.27H20.323z"/>
		<path d="M24.727,24.74v-7.47h1.062v4.666l2.069-2.53h1.27l-1.799,2.064l2.065,3.27h-1.336L26.66,22.27l-0.871,0.933v1.538H24.727z
			"/>
		<path d="M34.459,22.473h-3.336v0.131c0,0.461,0.288,0.881,0.718,1.051l0,0c0.587,0.239,1.271,0.075,1.681-0.414l0.813,0.699
			c-0.715,0.826-1.876,1.117-2.894,0.707l0,0c-0.833-0.332-1.38-1.144-1.38-2.043v-1.062c0-1.218,0.98-2.207,2.196-2.207
			c1.217,0,2.203,0.989,2.203,2.207V22.473z M31.123,21.542h2.268c0-0.626-0.507-1.134-1.134-1.134S31.123,20.916,31.123,21.542z"/>
		<path d="M35.924,24.74v-7.47h1.069v2.736c0.625-0.769,1.759-0.891,2.527-0.266c0.427,0.337,0.671,0.854,0.671,1.396v3.604h-1.065
			v-3.27c0-0.591-0.48-1.062-1.071-1.062c-0.589,0-1.063,0.471-1.063,1.062v3.27H35.924z"/>
		<path d="M41.791,24.74v-5.334h1.066v0.6c0.625-0.769,1.758-0.891,2.534-0.266c0.001,0.001,0.002,0.001,0.003,0.002l-0.76,0.934
			c-0.442-0.392-1.113-0.353-1.504,0.085c-0.176,0.195-0.273,0.449-0.273,0.709v3.27H41.791z"/>
		<path d="M20.192,35.408v-4.472h-0.537v-0.863h0.537v-0.799c0-0.74,0.595-1.336,1.336-1.336h0.8v1.002h-0.74
			c-0.178,0-0.333,0.146-0.333,0.334v0.799h1.072v0.863h-1.072v4.472H20.192z"/>
		<path d="M23.521,35.408v-5.334h1.073v0.6c0.625-0.772,1.759-0.89,2.527-0.266c0.001,0.001,0.002,0.001,0.003,0.001l-0.755,0.935
			c-0.446-0.393-1.115-0.353-1.507,0.082c-0.172,0.195-0.268,0.448-0.268,0.713v3.27H23.521z"/>
		<path d="M32.057,33.141h-3.333v0.131c0,0.46,0.286,0.881,0.715,1.051l0,0c0.588,0.238,1.27,0.07,1.682-0.416l0.814,0.701
			c-0.718,0.826-1.876,1.113-2.893,0.703l0,0c-0.833-0.332-1.38-1.139-1.38-2.04v-1.066c0-1.213,0.978-2.203,2.196-2.203
			c1.217,0,2.199,0.99,2.199,2.203V33.141z M28.724,32.206h2.268c0-0.625-0.507-1.133-1.134-1.133S28.724,31.581,28.724,32.206z"/>
		<path d="M33.521,35.408v-5.334h1.073v5.334H33.521z M33.521,29.003v-1.065h1.073v1.065H33.521z"/>
	</g>
</g>
<g id="Legende">
</g>
<g id="Symbole">
</g>
</svg>
