<?xml version="1.0" encoding="utf-8"?>
<!-- Generator: Adobe Illustrator 16.0.5, SVG Export Plug-In . SVG Version: 6.00 Build 0)  -->
<!DOCTYPE svg PUBLIC "-//W3C//DTD SVG 1.1//EN" "http://www.w3.org/Graphics/SVG/1.1/DTD/svg11.dtd">
<svg version="1.1" xmlns="http://www.w3.org/2000/svg" xmlns:xlink="http://www.w3.org/1999/xlink" x="0px" y="0px" width="75.25px"
	 height="42.01px" viewBox="0 0 75.25 42.01" enable-background="new 0 0 75.25 42.01" xml:space="preserve">
<symbol  id="Schlüssel_Schwarz" viewBox="-55.49 -27.448 110.98 54.896">
	<g>
		<path d="M28.045-24.948c-9.479,0-18.049,5.323-22.279,13.697l-10.737-0.021l-5.056,5.562l-0.167,0.413
			c-0.549,1.358-1.484,2.009-2.941,2.048l-0.104,0.001c-1.523,0-2.618-0.808-3.083-2.274l-0.237-0.748l-7.498-5.752l-6.861,6.206
			l-0.187-0.031l-2.418-3.4l-7.64-0.016l-0.728,0.696C-43.818-6.724-49-1.775-49.833-1.039c-1.654,1.458-3.144,2.938-3.157,4.961
			c-0.005,0.823,0.253,2.045,1.52,3.191l0.259,0.234l3.134,1.547l2.823,1.682H5.435c4.067,8.663,12.943,14.372,22.61,14.372
			c13.755,0,24.945-11.186,24.945-24.935C52.99-13.75,41.8-24.948,28.045-24.948z"/>
		<path fill="#FFFFFF" d="M28.045,22.448c12.396,0,22.445-10.043,22.445-22.435c0-12.408-10.049-22.462-22.445-22.462
			c-9.295,0-17.271,5.648-20.686,13.699L-3.867-8.771l-4.01,4.412c-0.923,2.282-2.727,3.542-5.191,3.608
			c-0.057,0.001-0.114,0.002-0.17,0.002c-2.609,0-4.666-1.492-5.466-4.018l-5.221-4.005l-6.209,5.615l-2.404-0.395l-2.276-3.202
			l-5.347-0.01c0,0-6.963,6.666-8.014,7.596c-1.996,1.76-3.129,3.058-1.617,4.427l2.91,1.437l2.316,1.38h51.65
			C10.322,16.48,18.484,22.448,28.045,22.448 M28.045,27.448c-10.09,0-19.396-5.653-24.145-14.372h-48.466h-1.376l-1.183-0.704
			l-2.147-1.28l-2.732-1.348l-0.626-0.309l-0.518-0.469c-1.522-1.38-2.354-3.177-2.341-5.062c0.022-3.31,2.517-5.509,4.007-6.823
			c0.706-0.624,5.198-4.906,7.863-7.456l1.454-1.393l2.014,0.004l5.347,0.01l2.573,0.006l1.491,2.098l0.13,0.183l3.331-3.012
			l3.09-2.795l3.307,2.535l5.221,4.003l1.248,0.958l0.475,1.499c0.146,0.46,0.288,0.529,0.701,0.529
			c0.493-0.013,0.541-0.026,0.727-0.486l0.335-0.828l0.6-0.659l4.01-4.411l1.492-1.642l2.218,0.004l8.136,0.018
			c4.867-8.417,13.866-13.694,23.766-13.694c15.133,0,27.445,12.318,27.445,27.462C55.49,15.142,43.178,27.448,28.045,27.448
			L28.045,27.448z"/>
	</g>
	<g>
		<path fill="#FFFFFF" d="M38.152-8.905c-4.523,0-8.203,3.676-8.203,8.193c0,4.52,3.68,8.196,8.203,8.196s8.203-3.677,8.203-8.196
			C46.355-5.229,42.676-8.905,38.152-8.905z"/>
		<path d="M38.152,4.484c2.877,0,5.203-2.322,5.203-5.196c0-2.873-2.326-5.193-5.203-5.193c-2.87,0-5.203,2.32-5.203,5.193
			C32.949,2.162,35.282,4.484,38.152,4.484 M38.152,10.484c-6.177,0-11.203-5.022-11.203-11.196c0-6.172,5.026-11.193,11.203-11.193
			S49.355-6.884,49.355-0.712C49.355,5.462,44.33,10.484,38.152,10.484L38.152,10.484z"/>
	</g>
</symbol>
<g id="Ebene_1">
	<g>
		<path fill="#FFFFFF" stroke="#000000" stroke-width="0.1212" d="M6.11,41.005c-2.678,0-4.849-2.171-4.849-4.849V5.854
			c0-2.679,2.171-4.849,4.849-4.849H69.14c2.678,0,4.849,2.17,4.849,4.849v30.302c0,2.678-2.171,4.849-4.849,4.849H6.11z"/>
		<path d="M6.11,39.793c-2.01,0-3.637-1.629-3.637-3.637V5.854c0-2.008,1.626-3.637,3.637-3.637H69.14
			c2.01,0,3.637,1.629,3.637,3.637v30.302c0,2.008-1.626,3.637-3.637,3.637H6.11z"/>
		<path fill="#FFFFFF" d="M6.11,37.975c-1.005,0-1.818-0.813-1.818-1.819V5.854c0-1.006,0.813-1.819,1.818-1.819H69.14
			c1.005,0,1.818,0.813,1.818,1.819v30.302c0,1.006-0.813,1.819-1.818,1.819H6.11z"/>
		<path d="M63.153,16.501v1.501h-1.002l3.398,6.796c0.071,0.14,0.107,0.292,0.107,0.448v3.268c0,1.104-0.896,2.001-2.003,2.001
			H11.598c-1.108,0-2.004-0.896-2.004-2.001v-3.268c0-0.155,0.035-0.308,0.107-0.448l3.398-6.796h-1.001v-1.501h9.01l0.5-0.503
			h4.104l-6.005-4.004l6.908-4.605l6.908,4.605l-6.005,4.004h4.103l0.5,0.503H63.153z"/>
		<path fill="#FFFFFF" d="M59.149,18.002h2.108l2.237,4.472c0.43,0.865,0.079,1.918-0.784,2.349
			c-0.245,0.122-0.512,0.186-0.784,0.186h-2.777V18.002z"/>
		<path fill="#FFFFFF" d="M57.146,18.002c0.552,0,1,0.448,1,1v9.511c0,0.551-0.448,0.999-1,0.999h-4.004
			c-0.553,0-1.001-0.448-1.001-0.999v-9.511c0-0.553,0.448-1,1.001-1H57.146z"/>
		<path fill="#FFFFFF" d="M50.138,18.002c0.554,0,1.002,0.448,1.002,1v5.004c0,0.554-0.448,1.002-1.002,1.002h-7.007
			c-0.554,0-1.002-0.448-1.002-1.002v-5.004c0-0.553,0.448-1,1.002-1H50.138z"/>
		<path fill="#FFFFFF" d="M40.128,18.002c0.554,0,1.002,0.448,1.002,1v5.004c0,0.554-0.448,1.002-1.002,1.002h-7.007
			c-0.554,0-1.002-0.448-1.002-1.002v-5.004c0-0.553,0.448-1,1.002-1H40.128z"/>
		<path fill="#FFFFFF" d="M30.115,18.002c0.554,0,1.002,0.448,1.002,1v5.004c0,0.554-0.449,1.002-1.002,1.002h-7.006
			c-0.552,0-1.001-0.448-1.001-1.002v-5.004c0-0.553,0.449-1,1.001-1H30.115z"/>
		<path fill="#FFFFFF" d="M20.106,18.002c0.554,0,1.001,0.448,1.001,1v9.511c0,0.551-0.448,0.999-1.001,0.999h-2.002
			c-0.552,0-1-0.448-1-0.999v-9.511c0-0.553,0.448-1,1-1H20.106z"/>
		<path fill="#FFFFFF" d="M16.101,18.002v7.007h-2.777c-0.966,0-1.751-0.785-1.751-1.751c0-0.271,0.063-0.542,0.183-0.784
			l2.238-4.472H16.101z"/>
		<path d="M19.606,31.517c0,1.382-1.122,2.504-2.503,2.504c-1.383,0-2.504-1.122-2.504-2.504H19.606z M24.11,31.517
			c0,0.519,0.115,1.032,0.339,1.501h-4.18c0.221-0.469,0.336-0.983,0.336-1.501H24.11z M30.115,31.517
			c0,1.382-1.119,2.504-2.5,2.504c-1.385,0-2.503-1.122-2.503-2.504H30.115z"/>
		<path d="M50.138,31.517c0,1.382-1.118,2.504-2.503,2.504c-1.381,0-2.5-1.122-2.5-2.504H50.138z M54.645,31.517
			c0,0.519,0.115,1.032,0.335,1.501h-4.18c0.224-0.469,0.339-0.983,0.339-1.501H54.645z M60.65,31.517h-5.007
			c0,1.382,1.122,2.504,2.503,2.504C59.529,34.021,60.65,32.898,60.65,31.517z"/>
		<path fill="#FFFFFF" d="M26.613,15.998l-6.008-4.004l6.008-4.004l6.005,4.004L26.613,15.998z"/>
	</g>
</g>
<g id="Legende">
</g>
<g id="Symbole">
</g>
</svg>
