<?xml version="1.0" encoding="utf-8"?>
<!-- Generator: Adobe Illustrator 16.0.5, SVG Export Plug-In . SVG Version: 6.00 Build 0)  -->
<!DOCTYPE svg PUBLIC "-//W3C//DTD SVG 1.1//EN" "http://www.w3.org/Graphics/SVG/1.1/DTD/svg11.dtd">
<svg version="1.1" xmlns="http://www.w3.org/2000/svg" xmlns:xlink="http://www.w3.org/1999/xlink" x="0px" y="0px" width="42.01px"
	 height="42.01px" viewBox="0 0 42.01 42.01" enable-background="new 0 0 42.01 42.01" xml:space="preserve">
<symbol  id="Schlüssel_Schwarz" viewBox="-55.49 -27.448 110.98 54.896">
	<g>
		<path d="M28.045-24.948c-9.479,0-18.049,5.323-22.279,13.697l-10.737-0.021l-5.056,5.562l-0.167,0.413
			c-0.549,1.358-1.484,2.009-2.941,2.048l-0.104,0.001c-1.523,0-2.618-0.808-3.083-2.274l-0.237-0.748l-7.498-5.752l-6.861,6.206
			l-0.187-0.031l-2.418-3.4l-7.64-0.016l-0.728,0.696C-43.818-6.724-49-1.775-49.833-1.039c-1.654,1.458-3.144,2.938-3.157,4.961
			c-0.005,0.823,0.253,2.045,1.52,3.191l0.259,0.234l3.134,1.547l2.823,1.682H5.435c4.067,8.663,12.943,14.372,22.61,14.372
			c13.755,0,24.945-11.186,24.945-24.935C52.99-13.75,41.8-24.948,28.045-24.948z"/>
		<path fill="#FFFFFF" d="M28.045,22.448c12.396,0,22.445-10.043,22.445-22.435c0-12.408-10.049-22.462-22.445-22.462
			c-9.295,0-17.271,5.648-20.686,13.699L-3.867-8.771l-4.01,4.412c-0.923,2.282-2.727,3.542-5.191,3.608
			c-0.057,0.001-0.114,0.002-0.17,0.002c-2.609,0-4.666-1.492-5.466-4.018l-5.221-4.005l-6.209,5.615l-2.404-0.395l-2.276-3.202
			l-5.347-0.01c0,0-6.963,6.666-8.014,7.596c-1.996,1.76-3.129,3.058-1.617,4.427l2.91,1.437l2.316,1.38h51.65
			C10.322,16.48,18.484,22.448,28.045,22.448 M28.045,27.448c-10.09,0-19.396-5.653-24.145-14.372h-48.466h-1.376l-1.183-0.704
			l-2.147-1.28l-2.732-1.348l-0.626-0.309l-0.518-0.469c-1.522-1.38-2.354-3.177-2.341-5.062c0.022-3.31,2.517-5.509,4.007-6.823
			c0.706-0.624,5.198-4.906,7.863-7.456l1.454-1.393l2.014,0.004l5.347,0.01l2.573,0.006l1.491,2.098l0.13,0.183l3.331-3.012
			l3.09-2.795l3.307,2.535l5.221,4.003l1.248,0.958l0.475,1.499c0.146,0.46,0.288,0.529,0.701,0.529
			c0.493-0.013,0.541-0.026,0.727-0.486l0.335-0.828l0.6-0.659l4.01-4.411l1.492-1.642l2.218,0.004l8.136,0.018
			c4.867-8.417,13.866-13.694,23.766-13.694c15.133,0,27.445,12.318,27.445,27.462C55.49,15.142,43.178,27.448,28.045,27.448
			L28.045,27.448z"/>
	</g>
	<g>
		<path fill="#FFFFFF" d="M38.152-8.905c-4.523,0-8.203,3.676-8.203,8.193c0,4.52,3.68,8.196,8.203,8.196s8.203-3.677,8.203-8.196
			C46.355-5.229,42.676-8.905,38.152-8.905z"/>
		<path d="M38.152,4.484c2.877,0,5.203-2.322,5.203-5.196c0-2.873-2.326-5.193-5.203-5.193c-2.87,0-5.203,2.32-5.203,5.193
			C32.949,2.162,35.282,4.484,38.152,4.484 M38.152,10.484c-6.177,0-11.203-5.022-11.203-11.196c0-6.172,5.026-11.193,11.203-11.193
			S49.355-6.884,49.355-0.712C49.355,5.462,44.33,10.484,38.152,10.484L38.152,10.484z"/>
	</g>
</symbol>
<g id="Ebene_1">
	<g>
		<path fill="#FFFFFF" stroke="#000000" stroke-width="0.0473" d="M3.011,38.479c-1.044,0-1.891-0.847-1.891-1.891
			c0-0.331,0.087-0.658,0.253-0.944L19.367,4.478c0.522-0.905,1.679-1.215,2.583-0.693c0.287,0.166,0.526,0.405,0.692,0.693
			l17.994,31.166c0.521,0.903,0.213,2.059-0.692,2.582c-0.287,0.166-0.613,0.253-0.945,0.253H3.011z"/>
		<path fill="#C20E1A" d="M3.011,37.899c-0.653,0-1.182-0.53-1.182-1.183c0-0.206,0.055-0.41,0.158-0.59L19.981,4.961
			c0.326-0.565,1.049-0.759,1.614-0.433c0.18,0.104,0.329,0.253,0.432,0.433l17.994,31.166c0.327,0.565,0.133,1.288-0.432,1.614
			c-0.181,0.104-0.384,0.159-0.592,0.159H3.011z M7.104,34.354h27.802l-13.9-24.076L7.104,34.354z"/>
		<path d="M23.604,30.208c0,1.436-1.164,2.6-2.599,2.6c-1.436,0-2.6-1.164-2.6-2.6c0-1.436,1.164-2.6,2.6-2.6
			C22.44,27.608,23.604,28.772,23.604,30.208z"/>
		<path fill="#249554" d="M23.368,30.208c0,1.305-1.058,2.363-2.363,2.363c-1.306,0-2.363-1.058-2.363-2.363
			c0-1.305,1.057-2.363,2.363-2.363C22.31,27.845,23.368,28.903,23.368,30.208z"/>
		<path d="M23.604,24.3c0,1.436-1.164,2.599-2.599,2.599c-1.436,0-2.6-1.164-2.6-2.599s1.164-2.599,2.6-2.599
			C22.44,21.701,23.604,22.864,23.604,24.3z"/>
		<path fill="#FFED00" d="M23.368,24.3c0,1.306-1.058,2.364-2.363,2.364c-1.306,0-2.363-1.058-2.363-2.364s1.057-2.363,2.363-2.363
			C22.31,21.937,23.368,22.994,23.368,24.3z"/>
		<path d="M23.604,18.392c0,1.436-1.164,2.599-2.599,2.599c-1.436,0-2.6-1.164-2.6-2.599c0-1.436,1.164-2.6,2.6-2.6
			C22.44,15.792,23.604,16.956,23.604,18.392z"/>
		<path fill="#C20E1A" d="M23.368,18.392c0,1.305-1.058,2.363-2.363,2.363c-1.306,0-2.363-1.058-2.363-2.363
			s1.057-2.363,2.363-2.363C22.31,16.029,23.368,17.087,23.368,18.392z"/>
	</g>
</g>
<g id="Legende">
</g>
<g id="Symbole">
</g>
</svg>
