<?xml version="1.0" encoding="utf-8"?>
<!-- Generator: Adobe Illustrator 16.0.5, SVG Export Plug-In . SVG Version: 6.00 Build 0)  -->
<!DOCTYPE svg PUBLIC "-//W3C//DTD SVG 1.1//EN" "http://www.w3.org/Graphics/SVG/1.1/DTD/svg11.dtd">
<svg version="1.1" xmlns="http://www.w3.org/2000/svg" xmlns:xlink="http://www.w3.org/1999/xlink" x="0px" y="0px" width="76.21px"
	 height="29.024px" viewBox="0 0 76.21 29.024" enable-background="new 0 0 76.21 29.024" xml:space="preserve">
<symbol  id="Schlüssel_Schwarz" viewBox="-55.49 -27.448 110.98 54.896">
	<g>
		<path d="M28.045-24.948c-9.479,0-18.049,5.323-22.279,13.697l-10.737-0.021l-5.056,5.562l-0.167,0.413
			c-0.549,1.358-1.484,2.009-2.941,2.048l-0.104,0.001c-1.523,0-2.618-0.808-3.083-2.274l-0.237-0.748l-7.498-5.752l-6.861,6.206
			l-0.187-0.031l-2.418-3.4l-7.64-0.016l-0.728,0.696C-43.818-6.724-49-1.775-49.833-1.039c-1.654,1.458-3.144,2.938-3.157,4.961
			c-0.005,0.823,0.253,2.045,1.52,3.191l0.259,0.234l3.134,1.547l2.823,1.682H5.435c4.067,8.663,12.943,14.372,22.61,14.372
			c13.755,0,24.945-11.186,24.945-24.935C52.99-13.75,41.8-24.948,28.045-24.948z"/>
		<path fill="#FFFFFF" d="M28.045,22.448c12.396,0,22.445-10.043,22.445-22.435c0-12.408-10.049-22.462-22.445-22.462
			c-9.295,0-17.271,5.648-20.686,13.699L-3.867-8.771l-4.01,4.412c-0.923,2.282-2.727,3.542-5.191,3.608
			c-0.057,0.001-0.114,0.002-0.17,0.002c-2.609,0-4.666-1.492-5.466-4.018l-5.221-4.005l-6.209,5.615l-2.404-0.395l-2.276-3.202
			l-5.347-0.01c0,0-6.963,6.666-8.014,7.596c-1.996,1.76-3.129,3.058-1.617,4.427l2.91,1.437l2.316,1.38h51.65
			C10.322,16.48,18.484,22.448,28.045,22.448 M28.045,27.448c-10.09,0-19.396-5.653-24.145-14.372h-48.466h-1.376l-1.183-0.704
			l-2.147-1.28l-2.732-1.348l-0.626-0.309l-0.518-0.469c-1.522-1.38-2.354-3.177-2.341-5.062c0.022-3.31,2.517-5.509,4.007-6.823
			c0.706-0.624,5.198-4.906,7.863-7.456l1.454-1.393l2.014,0.004l5.347,0.01l2.573,0.006l1.491,2.098l0.13,0.183l3.331-3.012
			l3.09-2.795l3.307,2.535l5.221,4.003l1.248,0.958l0.475,1.499c0.146,0.46,0.288,0.529,0.701,0.529
			c0.493-0.013,0.541-0.026,0.727-0.486l0.335-0.828l0.6-0.659l4.01-4.411l1.492-1.642l2.218,0.004l8.136,0.018
			c4.867-8.417,13.866-13.694,23.766-13.694c15.133,0,27.445,12.318,27.445,27.462C55.49,15.142,43.178,27.448,28.045,27.448
			L28.045,27.448z"/>
	</g>
	<g>
		<path fill="#FFFFFF" d="M38.152-8.905c-4.523,0-8.203,3.676-8.203,8.193c0,4.52,3.68,8.196,8.203,8.196s8.203-3.677,8.203-8.196
			C46.355-5.229,42.676-8.905,38.152-8.905z"/>
		<path d="M38.152,4.484c2.877,0,5.203-2.322,5.203-5.196c0-2.873-2.326-5.193-5.203-5.193c-2.87,0-5.203,2.32-5.203,5.193
			C32.949,2.162,35.282,4.484,38.152,4.484 M38.152,10.484c-6.177,0-11.203-5.022-11.203-11.196c0-6.172,5.026-11.193,11.203-11.193
			S49.355-6.884,49.355-0.712C49.355,5.462,44.33,10.484,38.152,10.484L38.152,10.484z"/>
	</g>
</symbol>
<g id="Ebene_1">
	<g>
		<path fill="#FFED00" stroke="#000000" stroke-width="0.0367" d="M72.621,23.692H16.855c-1.161,0-2.3-0.306-3.305-0.886
			L2.49,16.419c-1.055-0.608-1.416-1.955-0.808-3.009c0.193-0.336,0.472-0.613,0.808-0.807L13.55,6.219
			c1.005-0.581,2.144-0.887,3.305-0.887h55.766c1.216,0,2.202,0.986,2.202,2.203v13.953C74.823,22.706,73.837,23.692,72.621,23.692z
			"/>
		<path d="M72.621,23.141H16.855c-1.064,0-2.109-0.28-3.03-0.813L2.764,15.943c-0.79-0.455-1.062-1.467-0.604-2.257
			c0.144-0.252,0.353-0.46,0.604-0.604l11.061-6.387c0.921-0.531,1.966-0.811,3.03-0.811h55.766c0.912,0,1.651,0.738,1.651,1.651
			v13.953C74.272,22.401,73.533,23.141,72.621,23.141z"/>
		<path fill="#FFED00" d="M72.621,22.222H16.855c-0.904,0-1.79-0.236-2.571-0.688L3.223,15.148
			c-0.351-0.202-0.472-0.652-0.269-1.004c0.064-0.11,0.156-0.204,0.269-0.268l11.061-6.388c0.781-0.45,1.667-0.688,2.571-0.688
			h55.766c0.405,0,0.733,0.329,0.733,0.734v13.953C73.354,21.894,73.026,22.222,72.621,22.222z"/>
		<path d="M18.151,10.657h1.17v5.025c0,0.874,0.709,1.583,1.584,1.583c0.875,0,1.583-0.709,1.583-1.583v-5.025h1.17v5.025
			c0,1.521-1.232,2.754-2.753,2.754c-1.521,0-2.754-1.232-2.754-2.754V10.657z"/>
		<path d="M25.174,18.368v-5.509h1.101v0.623c0.646-0.798,1.815-0.923,2.614-0.278c0.125,0.102,0.236,0.217,0.33,0.347l0,0
			c0.722-0.884,2.023-1.016,2.906-0.294c0.48,0.393,0.759,0.979,0.759,1.6v3.512h-1.101v-3.373c0-0.609-0.493-1.102-1.101-1.102
			c-0.608,0-1.102,0.492-1.102,1.102v3.373h-1.102v-3.373c0-0.609-0.493-1.102-1.102-1.102c-0.607,0-1.101,0.492-1.101,1.102v3.373
			H25.174z"/>
		<path d="M36.326,18.368h-0.688c-0.685,0-1.24-0.555-1.24-1.239v-6.472H35.5v6.334c0,0.189,0.154,0.344,0.345,0.344h0.481V18.368z"
			/>
		<path d="M41.972,16.026H38.53v0.139c0,0.478,0.291,0.908,0.735,1.086l0,0c0.612,0.246,1.312,0.074,1.743-0.426l0.836,0.717
			c-0.737,0.858-1.938,1.152-2.988,0.732l0,0c-0.862-0.345-1.427-1.181-1.427-2.109v-1.102c0-1.254,1.017-2.272,2.271-2.272
			c1.255,0,2.272,1.019,2.272,2.272V16.026z M38.53,15.063h2.341c0-0.646-0.524-1.17-1.171-1.17
			C39.054,13.893,38.53,14.417,38.53,15.063z"/>
		<path d="M43.487,18.368v-5.509h1.101v5.509H43.487z M43.487,11.758v-1.102h1.101v1.102H43.487z"/>
		<path d="M48.581,18.368h-0.688c-0.686,0-1.241-0.555-1.241-1.239v-3.372h-0.55v-0.897h0.55v-1.65h1.102v1.65h0.826v0.897h-0.826
			v3.234c0,0.189,0.154,0.344,0.344,0.344h0.482V18.368z"/>
		<path d="M54.227,18.368h-1.101v-0.622c-0.645,0.799-1.816,0.923-2.614,0.277c-0.437-0.352-0.692-0.884-0.692-1.445v-3.719h1.102
			v3.375c0,0.608,0.493,1.101,1.102,1.101c0.608,0,1.102-0.492,1.102-1.101v-3.375h1.101V18.368z"/>
		<path d="M55.879,18.368v-5.509h1.102v0.623c0.646-0.798,1.815-0.923,2.614-0.278c0.437,0.353,0.69,0.885,0.69,1.446v3.718h-1.102
			v-3.373c0-0.609-0.493-1.102-1.102-1.102c-0.607,0-1.101,0.492-1.101,1.102v3.373H55.879z"/>
		<path d="M66.207,12.859v5.577c0,0.835-0.472,1.598-1.218,1.97l0,0c-1.053,0.527-2.33,0.252-3.073-0.661l0.856-0.695
			c0.416,0.514,1.133,0.669,1.724,0.373l0,0c0.373-0.188,0.608-0.569,0.608-0.986v-0.69c-0.645,0.799-1.816,0.923-2.614,0.277
			c-0.438-0.352-0.69-0.884-0.69-1.445V14.65c0-1.027,0.832-1.859,1.859-1.859c0.561,0,1.093,0.254,1.445,0.691v-0.623H66.207z
			 M65.104,16.234v-1.239c0-0.609-0.493-1.102-1.102-1.102c-0.608,0-1.102,0.492-1.102,1.102v1.239c0,0.608,0.494,1.101,1.102,1.101
			C64.612,17.334,65.104,16.842,65.104,16.234z"/>
	</g>
</g>
<g id="Legende">
</g>
<g id="Symbole">
</g>
</svg>
