<?xml version="1.0" encoding="utf-8"?>
<!-- Generator: Adobe Illustrator 16.0.5, SVG Export Plug-In . SVG Version: 6.00 Build 0)  -->
<!DOCTYPE svg PUBLIC "-//W3C//DTD SVG 1.1//EN" "http://www.w3.org/Graphics/SVG/1.1/DTD/svg11.dtd">
<svg version="1.1" xmlns="http://www.w3.org/2000/svg" xmlns:xlink="http://www.w3.org/1999/xlink" x="0px" y="0px"
	 width="28.575px" height="42.01px" viewBox="0 0 28.575 42.01" enable-background="new 0 0 28.575 42.01" xml:space="preserve">
<symbol  id="Schlüssel_Schwarz" viewBox="-55.49 -27.448 110.98 54.896">
	<g>
		<path d="M28.045-24.948c-9.479,0-18.049,5.323-22.279,13.697l-10.737-0.021l-5.056,5.562l-0.167,0.413
			c-0.549,1.358-1.484,2.009-2.941,2.048l-0.104,0.001c-1.523,0-2.618-0.808-3.083-2.274l-0.237-0.748l-7.498-5.752l-6.861,6.206
			l-0.187-0.031l-2.418-3.4l-7.64-0.016l-0.728,0.696C-43.818-6.724-49-1.775-49.833-1.039c-1.654,1.458-3.144,2.938-3.157,4.961
			c-0.005,0.823,0.253,2.045,1.52,3.191l0.259,0.234l3.134,1.547l2.823,1.682H5.435c4.067,8.663,12.943,14.372,22.61,14.372
			c13.755,0,24.945-11.186,24.945-24.935C52.99-13.75,41.8-24.948,28.045-24.948z"/>
		<path fill="#FFFFFF" d="M28.045,22.448c12.396,0,22.445-10.043,22.445-22.435c0-12.408-10.049-22.462-22.445-22.462
			c-9.295,0-17.271,5.648-20.686,13.699L-3.867-8.771l-4.01,4.412c-0.923,2.282-2.727,3.542-5.191,3.608
			c-0.057,0.001-0.114,0.002-0.17,0.002c-2.609,0-4.666-1.492-5.466-4.018l-5.221-4.005l-6.209,5.615l-2.404-0.395l-2.276-3.202
			l-5.347-0.01c0,0-6.963,6.666-8.014,7.596c-1.996,1.76-3.129,3.058-1.617,4.427l2.91,1.437l2.316,1.38h51.65
			C10.322,16.48,18.484,22.448,28.045,22.448 M28.045,27.448c-10.09,0-19.396-5.653-24.145-14.372h-48.466h-1.376l-1.183-0.704
			l-2.147-1.28l-2.732-1.348l-0.626-0.309l-0.518-0.469c-1.522-1.38-2.354-3.177-2.341-5.062c0.022-3.31,2.517-5.509,4.007-6.823
			c0.706-0.624,5.198-4.906,7.863-7.456l1.454-1.393l2.014,0.004l5.347,0.01l2.573,0.006l1.491,2.098l0.13,0.183l3.331-3.012
			l3.09-2.795l3.307,2.535l5.221,4.003l1.248,0.958l0.475,1.499c0.146,0.46,0.288,0.529,0.701,0.529
			c0.493-0.013,0.541-0.026,0.727-0.486l0.335-0.828l0.6-0.659l4.01-4.411l1.492-1.642l2.218,0.004l8.136,0.018
			c4.867-8.417,13.866-13.694,23.766-13.694c15.133,0,27.445,12.318,27.445,27.462C55.49,15.142,43.178,27.448,28.045,27.448
			L28.045,27.448z"/>
	</g>
	<g>
		<path fill="#FFFFFF" d="M38.152-8.905c-4.523,0-8.203,3.676-8.203,8.193c0,4.52,3.68,8.196,8.203,8.196s8.203-3.677,8.203-8.196
			C46.355-5.229,42.676-8.905,38.152-8.905z"/>
		<path d="M38.152,4.484c2.877,0,5.203-2.322,5.203-5.196c0-2.873-2.326-5.193-5.203-5.193c-2.87,0-5.203,2.32-5.203,5.193
			C32.949,2.162,35.282,4.484,38.152,4.484 M38.152,10.484c-6.177,0-11.203-5.022-11.203-11.196c0-6.172,5.026-11.193,11.203-11.193
			S49.355-6.884,49.355-0.712C49.355,5.462,44.33,10.484,38.152,10.484L38.152,10.484z"/>
	</g>
</symbol>
<g id="Ebene_1">
	<g>
		<path fill="#FFED00" stroke="#000000" stroke-width="0.0445" d="M2.734,41.005c-0.984,0-1.777-0.793-1.777-1.778V2.783
			c0-0.985,0.793-1.778,1.777-1.778H25.84c0.984,0,1.778,0.793,1.778,1.778v36.443c0,0.985-0.794,1.778-1.778,1.778H2.734z"/>
		<path d="M2.734,40.563c-0.742,0-1.335-0.603-1.335-1.336V2.783c0-0.734,0.593-1.336,1.335-1.336H25.84
			c0.742,0,1.335,0.603,1.335,1.336v36.443c0,0.734-0.593,1.336-1.335,1.336H2.734z"/>
		<path fill="#FFED00" d="M2.734,39.895c-0.371,0-0.667-0.302-0.667-0.668V2.783c0-0.367,0.295-0.668,0.667-0.668H25.84
			c0.372,0,0.667,0.302,0.667,0.668v36.443c0,0.367-0.294,0.668-0.667,0.668H2.734z"/>
		<path d="M7.891,7.674h1.184v5.065c0,0.884,0.711,1.595,1.595,1.595s1.598-0.71,1.598-1.595V7.674h1.182v5.065
			c0,1.536-1.242,2.78-2.78,2.78c-1.529,0-2.778-1.244-2.778-2.78V7.674z M16.113,13.505h1.133c0.151,0.634,0.786,1.025,1.425,0.869
			c0.528-0.127,0.9-0.605,0.9-1.149v-0.139c0-0.646-0.528-1.175-1.181-1.175h-0.485v-0.973h0.485c0.614,0,1.11-0.499,1.11-1.114
			c0-0.61-0.496-1.112-1.11-1.112c-0.537,0-0.989,0.382-1.09,0.904h-1.125c0.115-1.217,1.203-2.115,2.419-2
			c1.146,0.102,2.015,1.062,2.015,2.208l0,0c0,0.634-0.305,1.23-0.825,1.591l0,0c0.563,0.375,0.898,1.005,0.898,1.671v0.139
			c0,1.266-1.029,2.295-2.293,2.295C17.229,15.52,16.252,14.653,16.113,13.505z"/>
		<path d="M19.941,24.792v5.657l-1.567,1.572v-4.403l-8.49,8.49l-1.252-1.261l8.481-8.48h-4.399l1.573-1.575H19.941z"/>
	</g>
</g>
<g id="Legende">
</g>
<g id="Symbole">
</g>
</svg>
