<?xml version="1.0" encoding="utf-8"?>
<!-- Generator: Adobe Illustrator 16.0.5, SVG Export Plug-In . SVG Version: 6.00 Build 0)  -->
<!DOCTYPE svg PUBLIC "-//W3C//DTD SVG 1.1//EN" "http://www.w3.org/Graphics/SVG/1.1/DTD/svg11.dtd">
<svg version="1.1" xmlns="http://www.w3.org/2000/svg" xmlns:xlink="http://www.w3.org/1999/xlink" x="0px" y="0px" width="42.01px"
	 height="42.01px" viewBox="0 0 42.01 42.01" enable-background="new 0 0 42.01 42.01" xml:space="preserve">
<symbol  id="Bus" viewBox="-17.348 -17.347 34.697 34.694">
	<path fill="#7881A8" stroke="#000000" stroke-width="0.6804" stroke-miterlimit="3.8637" d="M-12.824,17.007h25.648
		c2.31,0,4.184-1.873,4.184-4.184v-25.647c0-2.312-1.874-4.183-4.184-4.183h-25.648c-2.311,0-4.185,1.871-4.185,4.183v25.647
		C-17.008,15.134-15.134,17.007-12.824,17.007L-12.824,17.007z"/>
	<path fill-rule="evenodd" clip-rule="evenodd" fill="#FFFFFF" d="M9.787-8.216v0.938c0,0.209-0.169,0.377-0.376,0.377H7.723
		c-0.207,0-0.375-0.168-0.375-0.377v-0.938c0-0.207,0.168-0.375,0.375-0.375h1.688C9.618-8.591,9.787-8.423,9.787-8.216L9.787-8.216
		z M9.948-2.21C9.85-0.501,10.122,4.711,9.891,6.849C9.826,7.407,9.463,7.837,8.905,7.837h-9.162h-9.014
		c-0.559,0-0.92-0.43-0.987-0.988c-0.23-2.138-0.032-7.35-0.131-9.059c-0.032-0.557,0.427-0.986,0.985-0.986h9.146h9.293
		C9.595-3.196,9.982-2.767,9.948-2.21L9.948-2.21z M9.582,9.294c-0.016,1.217,0.005-0.167-0.001,1.382
		c-0.001,0.407-0.273,0.708-0.676,0.708H-3.891h-5.604c-0.403,0-0.515-0.307-0.562-0.708V9.295
		c-0.024-0.399,0.064-0.708,0.467-0.708h5.698H9C9.402,8.587,9.605,8.893,9.582,9.294L9.582,9.294z M-7.71-8.216v0.938
		c0,0.209-0.168,0.377-0.375,0.377h-1.688c-0.207,0-0.377-0.168-0.377-0.377v-0.938c0-0.207,0.17-0.375,0.377-0.375h1.688
		C-7.878-8.591-7.71-8.423-7.71-8.216L-7.71-8.216z M-11.425-5.05V8.003c0,0,0.234,2.334,0.296,3.314
		c0.036,0.563,0.429,0.92,1.118,0.986c3.123,0.295,6.861,0.319,10.051,0.319c3.188,0,6.408-0.024,9.531-0.319
		c0.69-0.066,1.078-0.424,1.117-0.986c0.073-1.041,0.296-3.311,0.296-3.311V-5.05H-11.425L-11.425-5.05z M10.984-9.515h-22.409
		v3.547h22.409V-9.515L10.984-9.515z"/>
	<path fill="#FFFFFF" d="M-10.211-10.675l0.002-1.24c0-1.113,0.912-2.025,2.026-2.025s2.027,0.912,2.027,2.025l-0.003,1.24H-10.211
		L-10.211-10.675z"/>
	<path fill="#FFFFFF" d="M5.84-10.675l0.002-1.24c0-1.113,0.912-2.025,2.026-2.025c1.116,0,2.027,0.912,2.027,2.025l-0.002,1.24
		H5.84L5.84-10.675z"/>
	<path fill="none" stroke="#FFFFFF" stroke-width="0.7584" stroke-miterlimit="3.8637" d="M9.948-2.21
		c0.034-0.557-0.353-0.986-0.912-0.986h-9.293h-9.146c-0.559,0-1.018,0.43-0.985,0.986c0.099,1.709-0.1,6.921,0.131,9.059
		c0.066,0.559,0.428,0.988,0.987,0.988h9.014h9.162c0.559,0,0.921-0.43,0.986-0.988C10.122,4.711,9.85-0.501,9.948-2.21L9.948-2.21z
		"/>
	<path fill="none" stroke="#FFFFFF" stroke-width="0.2965" stroke-miterlimit="3.8637" d="M9.582,9.294
		C9.605,8.893,9.402,8.587,9,8.587H-3.891h-5.698c-0.402,0-0.491,0.309-0.467,0.708c-0.001,1.272-0.003-0.13,0,1.381
		c0.047,0.401,0.159,0.708,0.562,0.708h5.604H8.905c0.402,0,0.675-0.301,0.676-0.708C9.586,9.127,9.566,10.511,9.582,9.294
		L9.582,9.294z"/>
</symbol>
<symbol  id="Schlüssel_Schwarz" viewBox="-55.49 -27.448 110.98 54.896">
	<g>
		<path d="M28.045-24.948c-9.479,0-18.049,5.323-22.279,13.697l-10.737-0.021l-5.056,5.562l-0.167,0.413
			c-0.549,1.358-1.484,2.009-2.941,2.048l-0.104,0.001c-1.523,0-2.618-0.808-3.083-2.274l-0.237-0.748l-7.498-5.752l-6.861,6.206
			l-0.187-0.031l-2.418-3.4l-7.64-0.016l-0.728,0.696C-43.818-6.724-49-1.775-49.833-1.039c-1.654,1.458-3.144,2.938-3.157,4.961
			c-0.005,0.823,0.253,2.045,1.52,3.191l0.259,0.234l3.134,1.547l2.823,1.682H5.435c4.067,8.663,12.943,14.372,22.61,14.372
			c13.755,0,24.945-11.186,24.945-24.935C52.99-13.75,41.8-24.948,28.045-24.948z"/>
		<path fill="#FFFFFF" d="M28.045,22.448c12.396,0,22.445-10.043,22.445-22.435c0-12.408-10.049-22.462-22.445-22.462
			c-9.295,0-17.271,5.648-20.686,13.699L-3.867-8.771l-4.01,4.412c-0.923,2.282-2.727,3.542-5.191,3.608
			c-0.057,0.001-0.114,0.002-0.17,0.002c-2.609,0-4.666-1.492-5.466-4.018l-5.221-4.005l-6.209,5.615l-2.404-0.395l-2.276-3.202
			l-5.347-0.01c0,0-6.963,6.666-8.014,7.596c-1.996,1.76-3.129,3.058-1.617,4.427l2.91,1.437l2.316,1.38h51.65
			C10.322,16.48,18.484,22.448,28.045,22.448 M28.045,27.448c-10.09,0-19.396-5.653-24.145-14.372h-48.466h-1.376l-1.183-0.704
			l-2.147-1.28l-2.732-1.348l-0.626-0.309l-0.518-0.469c-1.522-1.38-2.354-3.177-2.341-5.062c0.022-3.31,2.517-5.509,4.007-6.823
			c0.706-0.624,5.198-4.906,7.863-7.456l1.454-1.393l2.014,0.004l5.347,0.01l2.573,0.006l1.491,2.098l0.13,0.183l3.331-3.012
			l3.09-2.795l3.307,2.535l5.221,4.003l1.248,0.958l0.475,1.499c0.146,0.46,0.288,0.529,0.701,0.529
			c0.493-0.013,0.541-0.026,0.727-0.486l0.335-0.828l0.6-0.659l4.01-4.411l1.492-1.642l2.218,0.004l8.136,0.018
			c4.867-8.417,13.866-13.694,23.766-13.694c15.133,0,27.445,12.318,27.445,27.462C55.49,15.142,43.178,27.448,28.045,27.448
			L28.045,27.448z"/>
	</g>
	<g>
		<path fill="#FFFFFF" d="M38.152-8.905c-4.523,0-8.203,3.676-8.203,8.193c0,4.52,3.68,8.196,8.203,8.196s8.203-3.677,8.203-8.196
			C46.355-5.229,42.676-8.905,38.152-8.905z"/>
		<path d="M38.152,4.484c2.877,0,5.203-2.322,5.203-5.196c0-2.873-2.326-5.193-5.203-5.193c-2.87,0-5.203,2.32-5.203,5.193
			C32.949,2.162,35.282,4.484,38.152,4.484 M38.152,10.484c-6.177,0-11.203-5.022-11.203-11.196c0-6.172,5.026-11.193,11.203-11.193
			S49.355-6.884,49.355-0.712C49.355,5.462,44.33,10.484,38.152,10.484L38.152,10.484z"/>
	</g>
</symbol>
<g id="Ebene_1">
</g>
<g id="Legende">
	
		<use xlink:href="#Bus"  width="34.697" height="34.694" x="-17.348" y="-17.347" transform="matrix(1.1528 0 0 -1.1528 21.0049 21.0049)" overflow="visible"/>
</g>
<g id="Symbole">
</g>
</svg>
