<?xml version="1.0" encoding="utf-8"?>
<!-- Generator: Adobe Illustrator 16.0.5, SVG Export Plug-In . SVG Version: 6.00 Build 0)  -->
<!DOCTYPE svg PUBLIC "-//W3C//DTD SVG 1.1//EN" "http://www.w3.org/Graphics/SVG/1.1/DTD/svg11.dtd">
<svg version="1.1" xmlns="http://www.w3.org/2000/svg" xmlns:xlink="http://www.w3.org/1999/xlink" x="0px" y="0px" width="76.21px"
	 height="29.024px" viewBox="0 0 76.21 29.024" enable-background="new 0 0 76.21 29.024" xml:space="preserve">
<symbol  id="Schlüssel_Schwarz" viewBox="-55.49 -27.448 110.98 54.896">
	<g>
		<path d="M28.045-24.948c-9.479,0-18.049,5.323-22.279,13.697l-10.737-0.021l-5.056,5.562l-0.167,0.413
			c-0.549,1.358-1.484,2.009-2.941,2.048l-0.104,0.001c-1.523,0-2.618-0.808-3.083-2.274l-0.237-0.748l-7.498-5.752l-6.861,6.206
			l-0.187-0.031l-2.418-3.4l-7.64-0.016l-0.728,0.696C-43.818-6.724-49-1.775-49.833-1.039c-1.654,1.458-3.144,2.938-3.157,4.961
			c-0.005,0.823,0.253,2.045,1.52,3.191l0.259,0.234l3.134,1.547l2.823,1.682H5.435c4.067,8.663,12.943,14.372,22.61,14.372
			c13.755,0,24.945-11.186,24.945-24.935C52.99-13.75,41.8-24.948,28.045-24.948z"/>
		<path fill="#FFFFFF" d="M28.045,22.448c12.396,0,22.445-10.043,22.445-22.435c0-12.408-10.049-22.462-22.445-22.462
			c-9.295,0-17.271,5.648-20.686,13.699L-3.867-8.771l-4.01,4.412c-0.923,2.282-2.727,3.542-5.191,3.608
			c-0.057,0.001-0.114,0.002-0.17,0.002c-2.609,0-4.666-1.492-5.466-4.018l-5.221-4.005l-6.209,5.615l-2.404-0.395l-2.276-3.202
			l-5.347-0.01c0,0-6.963,6.666-8.014,7.596c-1.996,1.76-3.129,3.058-1.617,4.427l2.91,1.437l2.316,1.38h51.65
			C10.322,16.48,18.484,22.448,28.045,22.448 M28.045,27.448c-10.09,0-19.396-5.653-24.145-14.372h-48.466h-1.376l-1.183-0.704
			l-2.147-1.28l-2.732-1.348l-0.626-0.309l-0.518-0.469c-1.522-1.38-2.354-3.177-2.341-5.062c0.022-3.31,2.517-5.509,4.007-6.823
			c0.706-0.624,5.198-4.906,7.863-7.456l1.454-1.393l2.014,0.004l5.347,0.01l2.573,0.006l1.491,2.098l0.13,0.183l3.331-3.012
			l3.09-2.795l3.307,2.535l5.221,4.003l1.248,0.958l0.475,1.499c0.146,0.46,0.288,0.529,0.701,0.529
			c0.493-0.013,0.541-0.026,0.727-0.486l0.335-0.828l0.6-0.659l4.01-4.411l1.492-1.642l2.218,0.004l8.136,0.018
			c4.867-8.417,13.866-13.694,23.766-13.694c15.133,0,27.445,12.318,27.445,27.462C55.49,15.142,43.178,27.448,28.045,27.448
			L28.045,27.448z"/>
	</g>
	<g>
		<path fill="#FFFFFF" d="M38.152-8.905c-4.523,0-8.203,3.676-8.203,8.193c0,4.52,3.68,8.196,8.203,8.196s8.203-3.677,8.203-8.196
			C46.355-5.229,42.676-8.905,38.152-8.905z"/>
		<path d="M38.152,4.484c2.877,0,5.203-2.322,5.203-5.196c0-2.873-2.326-5.193-5.203-5.193c-2.87,0-5.203,2.32-5.203,5.193
			C32.949,2.162,35.282,4.484,38.152,4.484 M38.152,10.484c-6.177,0-11.203-5.022-11.203-11.196c0-6.172,5.026-11.193,11.203-11.193
			S49.355-6.884,49.355-0.712C49.355,5.462,44.33,10.484,38.152,10.484L38.152,10.484z"/>
	</g>
</symbol>
<g id="Ebene_1">
	<path fill="#009DE0" d="M4.71,2.973H71.5c1.12,0,2.028,0.907,2.028,2.028v19.021c0,1.122-0.908,2.028-2.028,2.028H4.71
		c-1.122,0-2.028-0.906-2.028-2.028V5.001C2.682,3.88,3.588,2.973,4.71,2.973L4.71,2.973z"/>
	<path fill="none" stroke="#000000" stroke-width="0.1789" stroke-miterlimit="3.8637" d="M3.279,1.542h69.652
		c1.122,0,2.028,0.906,2.028,2.029v21.883c0,1.12-0.906,2.029-2.028,2.029H3.279c-1.121,0-2.028-0.909-2.028-2.029V3.571
		C1.25,2.448,2.158,1.542,3.279,1.542L3.279,1.542z"/>
	<path fill="#FFFFFF" d="M70.56,19.204H23.329c1.01,2.368,1.062,2.54,1.53,3.636c0.227,0.527,0.385,0.92,0.111,1.351
		c-0.346,0.545-1.04,0.467-1.638,0.221L5.65,14.532c0.03,0,17.611-9.789,17.677-9.844c0.502-0.41,1.321-0.347,1.649,0.214
		c0.272,0.467,0.218,0.667-0.105,1.369l-1.542,3.603h47.206L70.56,19.204L70.56,19.204z"/>
	<path d="M24.337,16.885v-4.828h2.626v0.778h-1.696v1.187h1.61v0.76h-1.61v1.309h1.696v0.795H24.337z M28.316,12.871
		c-0.156,0-0.293-0.058-0.401-0.164c-0.107-0.107-0.165-0.242-0.165-0.394c0-0.15,0.058-0.278,0.165-0.387
		c0.108-0.106,0.245-0.165,0.401-0.165c0.151,0,0.286,0.05,0.399,0.158c0.108,0.106,0.165,0.243,0.165,0.394
		c0,0.157-0.057,0.286-0.165,0.394C28.602,12.813,28.467,12.871,28.316,12.871L28.316,12.871z M27.859,16.885V13.33h0.907v3.556
		H27.859z M31.943,16.885v-2.274c0-0.208-0.027-0.359-0.093-0.452c-0.063-0.092-0.179-0.143-0.343-0.143
		c-0.237,0-0.43,0.115-0.594,0.336c-0.165,0.229-0.243,0.501-0.243,0.815v1.718h-0.908V13.33h0.864c0,0.128,0,0.235-0.007,0.32
		c-0.006,0.094-0.02,0.194-0.042,0.308c0.114-0.214,0.279-0.386,0.486-0.514c0.206-0.128,0.451-0.193,0.73-0.193
		c0.378,0,0.643,0.1,0.814,0.308c0.165,0.207,0.243,0.486,0.243,0.831v2.496H31.943z M35.171,16.957
		c-0.251,0-0.487-0.015-0.693-0.043c-0.209-0.028-0.422-0.071-0.631-0.13v-5.121h0.909v1.53c0,0.265-0.021,0.493-0.058,0.694
		c0.094-0.193,0.237-0.351,0.43-0.465c0.188-0.106,0.408-0.165,0.65-0.165c0.432,0,0.752,0.143,0.98,0.429
		c0.223,0.294,0.338,0.703,0.338,1.239c0,0.615-0.173,1.108-0.509,1.472C36.251,16.77,35.779,16.957,35.171,16.957L35.171,16.957z
		 M35.529,14.016c-0.234,0-0.422,0.115-0.557,0.336c-0.144,0.223-0.216,0.494-0.216,0.809v1.001
		c0.129,0.044,0.294,0.066,0.479,0.066c0.279,0,0.494-0.101,0.659-0.294c0.164-0.195,0.243-0.494,0.243-0.916
		C36.137,14.352,35.937,14.016,35.529,14.016L35.529,14.016z M39.751,16.885c0-0.108,0-0.208,0.006-0.314
		c0.008-0.101,0.016-0.193,0.031-0.287c-0.095,0.209-0.244,0.365-0.444,0.486c-0.201,0.122-0.438,0.187-0.702,0.187
		c-0.322,0-0.565-0.087-0.744-0.252c-0.178-0.163-0.271-0.392-0.271-0.686c0-0.422,0.185-0.744,0.558-0.966
		c0.371-0.223,0.872-0.336,1.502-0.336v-0.193c0-0.192-0.05-0.336-0.157-0.429c-0.107-0.094-0.287-0.138-0.537-0.138
		c-0.171,0-0.351,0.022-0.544,0.073c-0.187,0.05-0.364,0.114-0.515,0.206l-0.078-0.766c0.185-0.063,0.393-0.121,0.614-0.164
		c0.224-0.035,0.437-0.057,0.658-0.057c0.536,0,0.916,0.1,1.138,0.308c0.222,0.207,0.328,0.522,0.328,0.93v1.482l0.022,0.915H39.751
		z M39.687,15.312c-0.444,0-0.758,0.049-0.93,0.149c-0.173,0.106-0.259,0.243-0.259,0.408c0,0.114,0.036,0.207,0.115,0.278
		c0.071,0.064,0.178,0.102,0.308,0.102c0.222,0,0.408-0.088,0.552-0.259c0.142-0.172,0.214-0.363,0.214-0.595V15.312z
		 M43.781,16.885v-2.274c0-0.208-0.029-0.359-0.093-0.452c-0.064-0.092-0.179-0.143-0.344-0.143c-0.237,0-0.43,0.115-0.594,0.336
		c-0.166,0.229-0.244,0.501-0.244,0.815v1.718h-0.909v-5.223h0.909v1.524c0,0.178,0,0.313-0.007,0.399
		c-0.007,0.093-0.027,0.201-0.058,0.321c0.115-0.208,0.272-0.363,0.473-0.485c0.201-0.115,0.437-0.172,0.715-0.172
		c0.372,0,0.646,0.1,0.81,0.308c0.164,0.207,0.25,0.486,0.25,0.831v2.496H43.781z M47.868,16.885v-2.274
		c0-0.208-0.03-0.359-0.095-0.452c-0.063-0.092-0.179-0.143-0.343-0.143c-0.236,0-0.431,0.115-0.595,0.336
		c-0.165,0.229-0.243,0.501-0.243,0.815v1.718h-0.908V13.33h0.865c0,0.128,0,0.235-0.007,0.32c-0.007,0.094-0.021,0.194-0.043,0.308
		c0.114-0.214,0.28-0.386,0.486-0.514c0.208-0.128,0.452-0.193,0.73-0.193c0.38,0,0.644,0.1,0.815,0.308
		c0.165,0.207,0.243,0.486,0.243,0.831v2.496H47.868z M50.385,16.957c-0.149,0-0.272-0.007-0.356-0.015
		c-0.094-0.006-0.223-0.028-0.387-0.05l0.021-0.751c0.092,0.021,0.214,0.051,0.371,0.071c0.15,0.021,0.279,0.037,0.394,0.037
		c0.179,0,0.315-0.037,0.422-0.102c0.108-0.063,0.158-0.157,0.158-0.278c0-0.165-0.236-0.338-0.716-0.53
		c-0.479-0.187-0.723-0.5-0.723-0.95c0-0.322,0.13-0.596,0.395-0.817c0.265-0.215,0.636-0.321,1.114-0.321
		c0.131,0,0.229,0,0.301,0.007c0.072,0.007,0.187,0.028,0.352,0.059l-0.028,0.72c-0.222-0.063-0.437-0.092-0.659-0.092
		c-0.172,0-0.3,0.028-0.393,0.092c-0.095,0.066-0.136,0.159-0.136,0.273c0,0.144,0.242,0.315,0.729,0.521
		c0.487,0.208,0.73,0.523,0.73,0.952c0,0.35-0.143,0.637-0.429,0.852C51.257,16.85,50.872,16.957,50.385,16.957L50.385,16.957z
		 M53.949,16.957c-0.394,0-0.658-0.078-0.809-0.244c-0.149-0.163-0.222-0.449-0.222-0.873v-1.804h-0.614V13.33h0.614v-1.095
		l0.909-0.244v1.339h0.866v0.706h-0.866v1.562c0,0.222,0.029,0.379,0.093,0.457c0.057,0.087,0.165,0.128,0.329,0.128
		c0.158,0,0.308-0.021,0.444-0.055v0.736C54.442,16.927,54.2,16.957,53.949,16.957L53.949,16.957z M57.34,14.153
		c-0.078-0.016-0.157-0.021-0.229-0.021c-0.509,0-0.765,0.435-0.765,1.301v1.453h-0.91V13.33h0.867c0,0.106-0.008,0.222-0.015,0.336
		c-0.007,0.122-0.029,0.242-0.051,0.379c0.101-0.251,0.244-0.443,0.43-0.587c0.187-0.137,0.424-0.207,0.716-0.207L57.34,14.153z
		 M59.882,16.885c0-0.108,0-0.208,0.007-0.314c0.007-0.101,0.015-0.193,0.028-0.287c-0.092,0.209-0.244,0.365-0.443,0.486
		c-0.201,0.122-0.437,0.187-0.701,0.187c-0.321,0-0.565-0.087-0.745-0.252c-0.179-0.163-0.271-0.392-0.271-0.686
		c0-0.422,0.186-0.744,0.56-0.966c0.37-0.223,0.873-0.336,1.501-0.336v-0.193c0-0.192-0.049-0.336-0.157-0.429
		c-0.107-0.094-0.286-0.138-0.536-0.138c-0.172,0-0.351,0.022-0.544,0.073c-0.186,0.05-0.364,0.114-0.516,0.206l-0.078-0.766
		c0.187-0.063,0.394-0.121,0.615-0.164c0.222-0.035,0.437-0.057,0.658-0.057c0.536,0,0.915,0.1,1.138,0.308
		c0.223,0.207,0.329,0.522,0.329,0.93v1.482l0.021,0.915H59.882z M59.817,15.312c-0.443,0-0.759,0.049-0.93,0.149
		c-0.172,0.106-0.258,0.243-0.258,0.408c0,0.114,0.035,0.207,0.114,0.278c0.072,0.064,0.18,0.102,0.31,0.102
		c0.22,0,0.407-0.088,0.549-0.259c0.143-0.172,0.215-0.363,0.215-0.595V15.312z M63.867,16.957c-0.313,0-0.571-0.036-0.757-0.101
		l0.027-0.744c0.215,0.094,0.443,0.138,0.672,0.138c0.201,0,0.352-0.037,0.453-0.117c0.099-0.078,0.149-0.17,0.149-0.284
		c0-0.166-0.214-0.373-0.639-0.638c-0.421-0.257-0.636-0.595-0.636-1.001c0-0.287,0.136-0.56,0.416-0.823
		c0.271-0.271,0.407-0.486,0.407-0.659c0-0.135-0.051-0.243-0.143-0.313c-0.101-0.072-0.229-0.107-0.401-0.107
		c-0.249,0-0.437,0.078-0.572,0.242c-0.136,0.165-0.207,0.423-0.207,0.759v3.578h-0.909V13.35c0-0.601,0.158-1.044,0.479-1.331
		c0.324-0.278,0.737-0.422,1.246-0.422c0.451,0,0.802,0.094,1.066,0.279c0.264,0.193,0.394,0.451,0.394,0.786
		c0,0.337-0.144,0.623-0.423,0.852c-0.278,0.229-0.422,0.423-0.422,0.588c0,0.157,0.214,0.372,0.644,0.644
		c0.43,0.272,0.645,0.608,0.645,1.01c0,0.363-0.137,0.65-0.408,0.872C64.676,16.85,64.319,16.957,63.867,16.957L63.867,16.957z
		 M68.955,15.248h-2.202c0,0.665,0.328,1.002,0.979,1.002c0.371,0,0.716-0.081,1.038-0.236l0.085,0.715
		c-0.386,0.15-0.809,0.229-1.273,0.229c-0.578,0-1.016-0.15-1.31-0.443c-0.3-0.294-0.45-0.752-0.45-1.375
		c0-0.563,0.15-1.016,0.442-1.365c0.295-0.351,0.702-0.522,1.225-0.522c0.494,0,0.864,0.149,1.123,0.443
		c0.251,0.294,0.371,0.672,0.371,1.137c0,0.087,0,0.174,0,0.251C68.969,15.161,68.962,15.21,68.955,15.248L68.955,15.248z
		 M67.453,13.922c-0.193,0-0.352,0.065-0.479,0.187c-0.121,0.128-0.201,0.301-0.221,0.516h1.323c0-0.222-0.051-0.395-0.157-0.516
		C67.81,13.988,67.654,13.922,67.453,13.922L67.453,13.922z"/>
</g>
<g id="Legende">
</g>
<g id="Symbole">
</g>
</svg>
