<?xml version="1.0" encoding="utf-8"?>
<!-- Generator: Adobe Illustrator 16.0.5, SVG Export Plug-In . SVG Version: 6.00 Build 0)  -->
<!DOCTYPE svg PUBLIC "-//W3C//DTD SVG 1.1//EN" "http://www.w3.org/Graphics/SVG/1.1/DTD/svg11.dtd">
<svg version="1.1" xmlns="http://www.w3.org/2000/svg" xmlns:xlink="http://www.w3.org/1999/xlink" x="0px" y="0px" width="42.01px"
	 height="42.01px" viewBox="0 0 42.01 42.01" enable-background="new 0 0 42.01 42.01" xml:space="preserve">
<symbol  id="Schlüssel_Schwarz" viewBox="-55.49 -27.448 110.98 54.896">
	<g>
		<path d="M28.045-24.948c-9.479,0-18.049,5.323-22.279,13.697l-10.737-0.021l-5.056,5.562l-0.167,0.413
			c-0.549,1.358-1.484,2.009-2.941,2.048l-0.104,0.001c-1.523,0-2.618-0.808-3.083-2.274l-0.237-0.748l-7.498-5.752l-6.861,6.206
			l-0.187-0.031l-2.418-3.4l-7.64-0.016l-0.728,0.696C-43.818-6.724-49-1.775-49.833-1.039c-1.654,1.458-3.144,2.938-3.157,4.961
			c-0.005,0.823,0.253,2.045,1.52,3.191l0.259,0.234l3.134,1.547l2.823,1.682H5.435c4.067,8.663,12.943,14.372,22.61,14.372
			c13.755,0,24.945-11.186,24.945-24.935C52.99-13.75,41.8-24.948,28.045-24.948z"/>
		<path fill="#FFFFFF" d="M28.045,22.448c12.396,0,22.445-10.043,22.445-22.435c0-12.408-10.049-22.462-22.445-22.462
			c-9.295,0-17.271,5.648-20.686,13.699L-3.867-8.771l-4.01,4.412c-0.923,2.282-2.727,3.542-5.191,3.608
			c-0.057,0.001-0.114,0.002-0.17,0.002c-2.609,0-4.666-1.492-5.466-4.018l-5.221-4.005l-6.209,5.615l-2.404-0.395l-2.276-3.202
			l-5.347-0.01c0,0-6.963,6.666-8.014,7.596c-1.996,1.76-3.129,3.058-1.617,4.427l2.91,1.437l2.316,1.38h51.65
			C10.322,16.48,18.484,22.448,28.045,22.448 M28.045,27.448c-10.09,0-19.396-5.653-24.145-14.372h-48.466h-1.376l-1.183-0.704
			l-2.147-1.28l-2.732-1.348l-0.626-0.309l-0.518-0.469c-1.522-1.38-2.354-3.177-2.341-5.062c0.022-3.31,2.517-5.509,4.007-6.823
			c0.706-0.624,5.198-4.906,7.863-7.456l1.454-1.393l2.014,0.004l5.347,0.01l2.573,0.006l1.491,2.098l0.13,0.183l3.331-3.012
			l3.09-2.795l3.307,2.535l5.221,4.003l1.248,0.958l0.475,1.499c0.146,0.46,0.288,0.529,0.701,0.529
			c0.493-0.013,0.541-0.026,0.727-0.486l0.335-0.828l0.6-0.659l4.01-4.411l1.492-1.642l2.218,0.004l8.136,0.018
			c4.867-8.417,13.866-13.694,23.766-13.694c15.133,0,27.445,12.318,27.445,27.462C55.49,15.142,43.178,27.448,28.045,27.448
			L28.045,27.448z"/>
	</g>
	<g>
		<path fill="#FFFFFF" d="M38.152-8.905c-4.523,0-8.203,3.676-8.203,8.193c0,4.52,3.68,8.196,8.203,8.196s8.203-3.677,8.203-8.196
			C46.355-5.229,42.676-8.905,38.152-8.905z"/>
		<path d="M38.152,4.484c2.877,0,5.203-2.322,5.203-5.196c0-2.873-2.326-5.193-5.203-5.193c-2.87,0-5.203,2.32-5.203,5.193
			C32.949,2.162,35.282,4.484,38.152,4.484 M38.152,10.484c-6.177,0-11.203-5.022-11.203-11.196c0-6.172,5.026-11.193,11.203-11.193
			S49.355-6.884,49.355-0.712C49.355,5.462,44.33,10.484,38.152,10.484L38.152,10.484z"/>
	</g>
</symbol>
<g id="Ebene_1">
	<g>
		<path fill="#FFFFFF" stroke="#000000" stroke-width="0.0667" d="M3.671,41.005c-1.473,0-2.666-1.193-2.666-2.666V3.671
			c0-1.473,1.193-2.666,2.666-2.666h34.668c1.473,0,2.666,1.193,2.666,2.666v34.668c0,1.473-1.193,2.666-2.666,2.666H3.671z"/>
		<path d="M3.671,40.339c-1.104,0-2-0.896-2-2V3.671c0-1.104,0.896-2,2-2h34.668c1.104,0,2,0.896,2,2v34.668c0,1.104-0.896,2-2,2
			H3.671z"/>
		<path fill="#FFFFFF" d="M7.126,39.338L39.338,7.126v31.212c0,0.552-0.447,0.999-0.999,0.999H7.126z"/>
		<path fill="#FFFFFF" d="M6.136,39.338H5.146L39.338,5.146v0.989L6.136,39.338z"/>
		<path fill="#FFFFFF" d="M4.156,39.338H3.671c-0.143,0-0.285-0.03-0.414-0.089L39.249,3.257c0.06,0.129,0.089,0.271,0.089,0.414
			v0.485L4.156,39.338z"/>
		<path fill="#FFFFFF" d="M2.672,37.854L37.854,2.672h0.485c0.143,0,0.285,0.03,0.414,0.089L2.761,38.753
			c-0.06-0.129-0.089-0.271-0.089-0.414V37.854z"/>
		<path fill="#FFFFFF" d="M2.672,36.863v-0.989L35.874,2.672h0.989L2.672,36.863z"/>
		<path fill="#FFFFFF" d="M2.672,34.883V3.671c0-0.552,0.447-0.999,0.999-0.999h31.212L2.672,34.883z"/>
		<path fill="#9C9B9B" d="M33.079,13.385c2.115,6.669-1.576,13.789-8.244,15.905c-2.492,0.79-5.168,0.79-7.661,0l2.798-2.799
			c5.123,0.571,9.738-3.121,10.308-8.244c0.077-0.687,0.077-1.378,0-2.064L33.079,13.385z M29.623,7.932
			c-5.128-4.759-13.142-4.46-17.903,0.666c-4.511,4.86-4.511,12.377,0,17.236l2.361-2.36c-3.457-3.824-3.159-9.725,0.665-13.183
			c3.555-3.212,8.964-3.212,12.519,0L29.623,7.932z M32.822,12.654l-2.676,2.675c-0.055-0.266-0.121-0.53-0.199-0.791l2.582-2.583
			C32.633,12.186,32.731,12.418,32.822,12.654z M16.442,29.032c-0.235-0.09-0.467-0.188-0.697-0.293l2.582-2.582
			c0.261,0.078,0.524,0.145,0.792,0.2L16.442,29.032z M32.202,11.292l-2.511,2.51C29.6,13.569,29.5,13.34,29.39,13.115l2.454-2.454
			C31.97,10.868,32.089,11.079,32.202,11.292z M15.082,28.413c-0.214-0.113-0.425-0.232-0.631-0.358l2.454-2.454
			c0.225,0.109,0.455,0.21,0.688,0.302L15.082,28.413z M31.456,10.059l-2.413,2.414c-0.121-0.206-0.251-0.407-0.388-0.602
			l2.384-2.384C31.184,9.673,31.323,9.864,31.456,10.059z M13.847,27.667c-0.195-0.133-0.386-0.272-0.573-0.417l2.384-2.384
			c0.196,0.137,0.396,0.266,0.603,0.387L13.847,27.667z M30.595,8.94l-2.366,2.366c-0.148-0.182-0.303-0.357-0.464-0.526
			l2.358-2.358C30.285,8.591,30.442,8.764,30.595,8.94z M12.73,26.806c-0.178-0.153-0.35-0.311-0.519-0.473l2.358-2.357
			c0.169,0.162,0.345,0.316,0.526,0.464L12.73,26.806z"/>
		<path fill="#9C9B9B" d="M13.833,19.938h1.578c0.131,0.538,0.522,0.974,1.042,1.163l-1.156,1.156
			C14.487,21.742,13.95,20.892,13.833,19.938L13.833,19.938z M18.617,18.938c-0.19-0.728-0.846-1.236-1.598-1.236h-0.681v-1.36
			h0.681c0.859,0,1.555-0.697,1.555-1.556c0-0.859-0.696-1.556-1.555-1.556c-0.747,0-1.388,0.531-1.529,1.264h-1.569
			c0.16-1.71,1.679-2.966,3.389-2.806c1.599,0.15,2.82,1.493,2.82,3.098l0,0c0,0.886-0.431,1.716-1.155,2.226l0,0
			c0.311,0.208,0.576,0.475,0.783,0.786L18.617,18.938z M20.228,19.308l-3.442,3.442c-0.281-0.021-0.556-0.077-0.82-0.17
			l1.418-1.418c0.622-0.141,1.107-0.626,1.248-1.248l1.451-1.452c0.096,0.287,0.146,0.589,0.146,0.892V19.308z M20.108,20.417
			l-2.221,2.22C18.963,22.336,19.804,21.494,20.108,20.417z M21.782,15.772v-0.987c0-1.719,1.393-3.111,3.112-3.111
			c0.292,0,0.583,0.042,0.864,0.122l-1.64,1.64c-0.238,0.137-0.436,0.334-0.572,0.573L21.782,15.772z M26.452,12.093
			c0.206,0.118,0.396,0.26,0.568,0.422l-1.101,1.1c-0.187-0.163-0.41-0.278-0.65-0.339L26.452,12.093z M26.449,15.065v-0.28
			c0-0.203-0.04-0.405-0.117-0.592l1.144-1.145c0.137,0.205,0.25,0.424,0.335,0.655L26.449,15.065z M26.449,17.046v-0.991
			l1.543-1.543c0.009,0.092,0.013,0.183,0.013,0.274v0.704L26.449,17.046z M26.449,19.025v-0.99l1.556-1.555v0.99L26.449,19.025z
			 M28.005,18.459v1.188c0,1.718-1.393,3.11-3.111,3.11c-0.346,0-0.69-0.057-1.017-0.169l1.445-1.445
			c0.517-0.147,0.919-0.551,1.066-1.066L28.005,18.459z M23.767,20.719c0.167,0.175,0.372,0.309,0.599,0.391l-1.154,1.154
			c-0.197-0.127-0.38-0.277-0.544-0.446L23.767,20.719z M23.338,19.166v0.481c0,0.15,0.021,0.3,0.064,0.444l-1.168,1.169
			c-0.13-0.214-0.233-0.441-0.308-0.681L23.338,19.166z M21.782,19.732v-0.989l1.556-1.556v0.99L21.782,19.732z M21.782,17.752
			v-0.991l1.556-1.555v0.99L21.782,17.752z"/>
		<path fill="#9C9B9B" d="M11.705,37.46v-0.7l2.55-4.149h-0.401l0.75-0.75h0.701v0.65l-2.551,4.149h2.551v0.8H11.705z
			 M12.864,32.611l0.75-0.75h-0.99l-0.75,0.75H12.864z M16.105,35.511V33.81c0-1.104,0.895-2,2-2c1.105,0,2,0.896,2,2v1.701
			c0,1.105-0.896,2-2,2C17,37.511,16.105,36.616,16.105,35.511z M16.955,35.511c0,0.635,0.515,1.149,1.15,1.149
			c0.635,0,1.151-0.514,1.151-1.149V33.81c0-0.634-0.516-1.149-1.151-1.149c-0.635,0-1.15,0.515-1.15,1.149V35.511z M21.205,37.46
			v-5.599h0.8l2.55,4v-4h0.85v5.599h-0.8l-2.551-4v4H21.205z M26.705,37.46v-5.599h3.601v0.8h-2.75v1.599h2.35v0.75h-2.35v1.649
			h2.75v0.8H26.705z"/>
	</g>
</g>
<g id="Legende">
</g>
<g id="Symbole">
</g>
</svg>
