<?xml version="1.0" encoding="utf-8"?>
<!-- Generator: Adobe Illustrator 16.0.5, SVG Export Plug-In . SVG Version: 6.00 Build 0)  -->
<!DOCTYPE svg PUBLIC "-//W3C//DTD SVG 1.1//EN" "http://www.w3.org/Graphics/SVG/1.1/DTD/svg11.dtd">
<svg version="1.1" xmlns="http://www.w3.org/2000/svg" xmlns:xlink="http://www.w3.org/1999/xlink" x="0px" y="0px" width="76.21px"
	 height="29.024px" viewBox="0 0 76.21 29.024" enable-background="new 0 0 76.21 29.024" xml:space="preserve">
<symbol  id="Schlüssel_Schwarz" viewBox="-55.49 -27.448 110.98 54.896">
	<g>
		<path d="M28.045-24.948c-9.479,0-18.049,5.323-22.279,13.697l-10.737-0.021l-5.056,5.562l-0.167,0.413
			c-0.549,1.358-1.484,2.009-2.941,2.048l-0.104,0.001c-1.523,0-2.618-0.808-3.083-2.274l-0.237-0.748l-7.498-5.752l-6.861,6.206
			l-0.187-0.031l-2.418-3.4l-7.64-0.016l-0.728,0.696C-43.818-6.724-49-1.775-49.833-1.039c-1.654,1.458-3.144,2.938-3.157,4.961
			c-0.005,0.823,0.253,2.045,1.52,3.191l0.259,0.234l3.134,1.547l2.823,1.682H5.435c4.067,8.663,12.943,14.372,22.61,14.372
			c13.755,0,24.945-11.186,24.945-24.935C52.99-13.75,41.8-24.948,28.045-24.948z"/>
		<path fill="#FFFFFF" d="M28.045,22.448c12.396,0,22.445-10.043,22.445-22.435c0-12.408-10.049-22.462-22.445-22.462
			c-9.295,0-17.271,5.648-20.686,13.699L-3.867-8.771l-4.01,4.412c-0.923,2.282-2.727,3.542-5.191,3.608
			c-0.057,0.001-0.114,0.002-0.17,0.002c-2.609,0-4.666-1.492-5.466-4.018l-5.221-4.005l-6.209,5.615l-2.404-0.395l-2.276-3.202
			l-5.347-0.01c0,0-6.963,6.666-8.014,7.596c-1.996,1.76-3.129,3.058-1.617,4.427l2.91,1.437l2.316,1.38h51.65
			C10.322,16.48,18.484,22.448,28.045,22.448 M28.045,27.448c-10.09,0-19.396-5.653-24.145-14.372h-48.466h-1.376l-1.183-0.704
			l-2.147-1.28l-2.732-1.348l-0.626-0.309l-0.518-0.469c-1.522-1.38-2.354-3.177-2.341-5.062c0.022-3.31,2.517-5.509,4.007-6.823
			c0.706-0.624,5.198-4.906,7.863-7.456l1.454-1.393l2.014,0.004l5.347,0.01l2.573,0.006l1.491,2.098l0.13,0.183l3.331-3.012
			l3.09-2.795l3.307,2.535l5.221,4.003l1.248,0.958l0.475,1.499c0.146,0.46,0.288,0.529,0.701,0.529
			c0.493-0.013,0.541-0.026,0.727-0.486l0.335-0.828l0.6-0.659l4.01-4.411l1.492-1.642l2.218,0.004l8.136,0.018
			c4.867-8.417,13.866-13.694,23.766-13.694c15.133,0,27.445,12.318,27.445,27.462C55.49,15.142,43.178,27.448,28.045,27.448
			L28.045,27.448z"/>
	</g>
	<g>
		<path fill="#FFFFFF" d="M38.152-8.905c-4.523,0-8.203,3.676-8.203,8.193c0,4.52,3.68,8.196,8.203,8.196s8.203-3.677,8.203-8.196
			C46.355-5.229,42.676-8.905,38.152-8.905z"/>
		<path d="M38.152,4.484c2.877,0,5.203-2.322,5.203-5.196c0-2.873-2.326-5.193-5.203-5.193c-2.87,0-5.203,2.32-5.203,5.193
			C32.949,2.162,35.282,4.484,38.152,4.484 M38.152,10.484c-6.177,0-11.203-5.022-11.203-11.196c0-6.172,5.026-11.193,11.203-11.193
			S49.355-6.884,49.355-0.712C49.355,5.462,44.33,10.484,38.152,10.484L38.152,10.484z"/>
	</g>
</symbol>
<g id="Ebene_1">
	<g>
		<path fill="#FFED00" stroke="#000000" stroke-width="0.0699" d="M4.185,26.751c-1.545,0-2.798-1.252-2.798-2.797V5.07
			c0-1.545,1.253-2.797,2.798-2.797h67.84c1.545,0,2.798,1.252,2.798,2.797v18.884c0,1.545-1.253,2.797-2.798,2.797H4.185z"/>
		<path d="M4.185,26.052c-1.16,0-2.099-0.939-2.099-2.098V5.07c0-1.159,0.938-2.098,2.099-2.098h67.84
			c1.16,0,2.099,0.939,2.099,2.098v18.884c0,1.159-0.938,2.098-2.099,2.098H4.185z"/>
		<path fill="#FFED00" d="M4.185,25.003c-0.58,0-1.05-0.469-1.05-1.049V5.07c0-0.58,0.47-1.049,1.05-1.049h67.84
			c0.579,0,1.05,0.469,1.05,1.049v18.884c0,0.58-0.471,1.049-1.05,1.049H4.185z"/>
		<path d="M7.594,9.616H9.08v6.382c0,1.11,0.9,2.01,2.012,2.01c1.11,0,2.01-0.9,2.01-2.01V9.616h1.486v6.382
			c0,1.932-1.565,3.497-3.497,3.497c-1.932,0-3.498-1.565-3.498-3.497V9.616z"/>
		<path d="M16.511,19.408v-6.994h1.398v0.79c0.819-1.014,2.306-1.172,3.32-0.353c0.158,0.127,0.298,0.275,0.419,0.439l0,0
			c0.916-1.122,2.568-1.289,3.69-0.372c0.61,0.499,0.964,1.244,0.964,2.031v4.459h-1.398v-4.284c0-0.772-0.626-1.399-1.4-1.399
			c-0.772,0-1.398,0.626-1.398,1.399v4.284h-1.399v-4.284c0-0.772-0.625-1.399-1.399-1.399c-0.771,0-1.398,0.626-1.398,1.399v4.284
			H16.511z"/>
		<path d="M30.674,19.408H29.8c-0.869,0-1.574-0.705-1.574-1.574V9.616h1.399v8.043c0,0.241,0.196,0.438,0.437,0.438h0.612V19.408z"
			/>
		<path d="M37.842,16.435h-4.371v0.175c0,0.608,0.37,1.154,0.934,1.38l0,0c0.777,0.311,1.667,0.092,2.212-0.542l1.062,0.911
			c-0.936,1.089-2.46,1.463-3.793,0.93l0,0c-1.095-0.438-1.813-1.498-1.813-2.678v-1.398c0-1.594,1.291-2.886,2.885-2.886
			c1.593,0,2.884,1.292,2.884,2.886V16.435z M33.472,15.212h2.972c0-0.821-0.665-1.487-1.486-1.487S33.472,14.391,33.472,15.212z"/>
		<path d="M39.766,19.408v-6.994h1.398v6.994H39.766z M39.766,11.016V9.616h1.398v1.399H39.766z"/>
		<path d="M46.235,19.408h-0.874c-0.868,0-1.573-0.705-1.573-1.574V13.55h-0.7v-1.136h0.7v-2.098h1.398v2.098h1.048v1.136h-1.048
			v4.109c0,0.241,0.195,0.438,0.436,0.438h0.612V19.408z"/>
		<path d="M53.403,19.408h-1.398v-0.79c-0.819,1.014-2.305,1.172-3.319,0.353c-0.555-0.448-0.877-1.123-0.877-1.836v-4.721h1.398
			v4.284c0,0.772,0.627,1.399,1.399,1.399s1.398-0.626,1.398-1.399v-4.284h1.398V19.408z"/>
		<path d="M55.502,19.408v-6.994h1.4v0.79c0.818-1.014,2.305-1.172,3.319-0.353c0.554,0.448,0.877,1.123,0.877,1.836v4.721h-1.399
			v-4.284c0-0.772-0.626-1.399-1.398-1.399c-0.773,0-1.398,0.626-1.398,1.399v4.284H55.502z"/>
		<path d="M68.616,12.414v7.081c0,1.06-0.599,2.028-1.547,2.502l0,0c-1.336,0.668-2.958,0.318-3.9-0.841l1.085-0.883
			c0.529,0.651,1.439,0.848,2.19,0.473l0,0c0.473-0.237,0.772-0.722,0.772-1.251v-0.877c-0.819,1.014-2.306,1.172-3.319,0.353
			c-0.555-0.448-0.877-1.123-0.877-1.836v-2.448c0-1.304,1.058-2.361,2.36-2.361c0.713,0,1.388,0.323,1.836,0.877v-0.79H68.616z
			 M67.217,16.698v-1.574c0-0.772-0.626-1.399-1.398-1.399c-0.772,0-1.398,0.626-1.398,1.399v1.574c0,0.772,0.626,1.399,1.398,1.399
			C66.59,18.097,67.217,17.47,67.217,16.698z"/>
	</g>
</g>
<g id="Legende">
</g>
<g id="Symbole">
</g>
</svg>
