<?xml version="1.0" encoding="UTF-8" standalone="no"?>
<!-- Created with Inkscape (http://www.inkscape.org/) -->

<svg
   xmlns:dc="http://purl.org/dc/elements/1.1/"
   xmlns:cc="http://creativecommons.org/ns#"
   xmlns:rdf="http://www.w3.org/1999/02/22-rdf-syntax-ns#"
   xmlns:svg="http://www.w3.org/2000/svg"
   xmlns="http://www.w3.org/2000/svg"
   xmlns:sodipodi="http://sodipodi.sourceforge.net/DTD/sodipodi-0.dtd"
   xmlns:inkscape="http://www.inkscape.org/namespaces/inkscape"
   width="100"
   height="220"
   id="svg2"
   version="1.1"
   inkscape:version="0.48.4 r9939"
   sodipodi:docname="info.svg">
  <defs
     id="defs4" />
  <sodipodi:namedview
     id="base"
     pagecolor="#ffffff"
     bordercolor="#666666"
     borderopacity="1.0"
     inkscape:pageopacity="0.0"
     inkscape:pageshadow="2"
     inkscape:zoom="0.7"
     inkscape:cx="-80.54322"
     inkscape:cy="-70.920262"
     inkscape:document-units="px"
     inkscape:current-layer="layer1"
     showgrid="false"
     fit-margin-top="0"
     fit-margin-left="0"
     fit-margin-right="0"
     fit-margin-bottom="0"
     inkscape:window-width="1920"
     inkscape:window-height="1117"
     inkscape:window-x="0"
     inkscape:window-y="30"
     inkscape:window-maximized="1" />
  <metadata
     id="metadata7">
    <rdf:RDF>
      <cc:Work
         rdf:about="">
        <dc:format>image/svg+xml</dc:format>
        <dc:type
           rdf:resource="http://purl.org/dc/dcmitype/StillImage" />
        <dc:title></dc:title>
      </cc:Work>
    </rdf:RDF>
  </metadata>
  <g
     inkscape:label="Ebene 1"
     inkscape:groupmode="layer"
     id="layer1"
     transform="translate(-255.42859,-258.57645)">
    <path
       style="fill:#ffffff"
       d="m 258.82859,475.17645 -3.4,-3.4 0,-13.08422 c 0,-13.04217 0.009,-13.09472 2.91693,-16.35 2.62908,-2.9435 3.59126,-3.31512 9.75,-3.76578 l 6.83307,-0.5 0,-29.5 0,-29.5 -6.83307,-0.5 c -6.15874,-0.45066 -7.12092,-0.82228 -9.75,-3.76578 -2.90755,-3.25528 -2.91693,-3.30783 -2.91693,-16.35 l 0,-13.08422 3.4,-3.4 3.4,-3.4 33.08422,0 33.08423,0 3.26577,2.91729 3.26578,2.91729 0.5,46.83271 0.5,46.83271 6.83307,0.5 c 6.15874,0.45066 7.12092,0.82228 9.75,3.76578 2.90755,3.25528 2.91693,3.30783 2.91693,16.35 l 0,13.08422 -3.4,3.4 -3.4,3.4 -43.2,0 -43.2,0 -3.4,-3.4 z m 20,-170 -3.4,-3.4 0,-18.2 0,-18.2 3.4,-3.4 3.4,-3.4 23.2,0 23.2,0 3.4,3.4 3.4,3.4 0,18.2 0,18.2 -3.4,3.4 -3.4,3.4 -23.2,0 -23.2,0 -3.4,-3.4 z"
       id="path3011"
       inkscape:connector-curvature="0"
       inkscape:transform-center-x="207.14286"
       inkscape:transform-center-y="-22.857143" />
    <path
       style="fill:#000000"
       d=""
       id="path3009"
       inkscape:connector-curvature="0" />
    <path
       style="fill:#000000"
       d=""
       id="path3007"
       inkscape:connector-curvature="0" />
  </g>
</svg>
