<?xml version="1.0" encoding="utf-8"?>
<!-- Generator: Adobe Illustrator 14.0.0, SVG Export Plug-In . SVG Version: 6.00 Build 43363)  -->
<!DOCTYPE svg PUBLIC "-//W3C//DTD SVG 1.1//EN" "http://www.w3.org/Graphics/SVG/1.1/DTD/svg11.dtd">
<svg version="1.1" id="Ebene_1" xmlns="http://www.w3.org/2000/svg" xmlns:xlink="http://www.w3.org/1999/xlink" x="0px" y="0px"
	 width="22px" height="22px" viewBox="0 0 22 22" enable-background="new 0 0 22 22" xml:space="preserve">
<g>
	<g>
		<path fill="#FFFFFF" d="M19.637,10.125h-1.616c-0.177-1.626-0.888-3.032-2.102-4.244c-1.186-1.184-2.56-1.867-4.229-2.039V2.227
			c0-0.13-0.084-0.269-0.216-0.269h-1.193c-0.131,0-0.22,0.138-0.22,0.269v1.616c-1.67,0.173-3.041,0.864-4.227,2.061
			c-1.189,1.199-1.886,2.596-2.057,4.222H2.122c-0.131,0-0.247,0.113-0.247,0.245v1.19c0,0.131,0.115,0.231,0.247,0.231h1.661
			c0.176,1.624,0.871,3.004,2.052,4.191c1.186,1.197,2.557,1.894,4.227,2.068V19.7c0,0.132,0.089,0.258,0.22,0.258h1.193
			c0.132,0,0.216-0.126,0.216-0.258v-1.649c1.669-0.175,3.051-0.871,4.249-2.065c1.19-1.19,1.898-2.57,2.076-4.194h1.621
			c0.13,0,0.238-0.101,0.238-0.231v-1.19C19.875,10.238,19.767,10.125,19.637,10.125z M16.508,13.266
			c-0.286,0.706-0.724,1.352-1.299,1.925c-0.001,0-0.001,0.001-0.001,0.001c-0.59,0.602-1.252,1.061-1.965,1.361
			c-0.712,0.301-1.501,0.453-2.342,0.453c-0.842,0-1.631-0.149-2.345-0.443c-0.714-0.293-1.375-0.741-1.965-1.325
			c-0.589-0.591-1.038-1.25-1.332-1.964c-0.294-0.709-0.443-1.495-0.443-2.336c0-0.839,0.148-1.624,0.443-2.331
			C5.553,7.898,6.001,7.245,6.59,6.665c0.589-0.581,1.251-1.022,1.965-1.311c0.714-0.291,1.503-0.438,2.346-0.438
			c0.841,0,1.63,0.147,2.34,0.438c0.708,0.289,1.363,0.729,1.946,1.311c0.583,0.581,1.023,1.233,1.314,1.94
			c0.289,0.708,0.438,1.494,0.438,2.333C16.94,11.778,16.796,12.561,16.508,13.266z"/>
		<path fill="#FFFFFF" d="M10.888,6.87c-1.122,0-2.089,0.394-2.875,1.171C7.225,8.82,6.825,9.784,6.825,10.907
			c0,1.121,0.399,2.089,1.187,2.879c0.787,0.783,1.755,1.185,2.877,1.185c1.122,0,2.091-0.408,2.877-1.215
			c0.771-0.771,1.16-1.728,1.16-2.849c0-1.122-0.396-2.086-1.174-2.865C12.974,7.266,12.01,6.87,10.888,6.87z"/>
	</g>
</g>
</svg>
