<?xml version="1.0" encoding="utf-8"?>
<!-- Generator: Adobe Illustrator 14.0.0, SVG Export Plug-In . SVG Version: 6.00 Build 43363)  -->
<!DOCTYPE svg PUBLIC "-//W3C//DTD SVG 1.1//EN" "http://www.w3.org/Graphics/SVG/1.1/DTD/svg11.dtd">
<svg version="1.1" id="Ebene_1" xmlns="http://www.w3.org/2000/svg" xmlns:xlink="http://www.w3.org/1999/xlink" x="0px" y="0px"
	 width="22px" height="22px" viewBox="0 0 22 22" enable-background="new 0 0 22 22" xml:space="preserve">
<g>
	<path fill="#FFFFFF" stroke="#FFFFFF" stroke-width="0.25" d="M8.415,2.606c0.062,0.063,0.097,0.146,0.097,0.232L8.491,19.156
		c0.001,0.184-0.146,0.33-0.328,0.331l-5.087,0.023c-0.183,0.002-0.329-0.146-0.329-0.328L2.768,2.865
		c-0.001-0.181,0.146-0.33,0.329-0.331l5.086-0.023C8.271,2.51,8.354,2.546,8.415,2.606z M7.835,18.831l0.018-15.66l-4.429,0.02
		L3.406,18.851L7.835,18.831z"/>
	<g>
		<path fill="#FFFFFF" stroke="#FFFFFF" stroke-width="0.25" d="M5.945,15.218c0.06,0.057,0.097,0.14,0.098,0.231
			c0,0.181-0.147,0.329-0.331,0.329L3.193,15.79c-0.181,0.002-0.328-0.145-0.327-0.326c-0.001-0.183,0.147-0.332,0.329-0.332
			l2.52-0.012C5.804,15.12,5.886,15.156,5.945,15.218z"/>
		<path fill="#FFFFFF" stroke="#FFFFFF" stroke-width="0.25" d="M5.951,10.31c0.06,0.061,0.095,0.143,0.097,0.234
			c-0.001,0.183-0.148,0.33-0.33,0.33l-2.519,0.01c-0.181,0.001-0.328-0.145-0.328-0.325c0-0.183,0.148-0.332,0.329-0.332
			l2.519-0.011C5.81,10.215,5.892,10.251,5.951,10.31z"/>
		<path fill="#FFFFFF" stroke="#FFFFFF" stroke-width="0.25" d="M4.499,17.552c0.05,0.053,0.083,0.122,0.083,0.2
			c0.001,0.156-0.126,0.282-0.282,0.282H3.201c-0.155,0-0.281-0.126-0.284-0.282c0-0.157,0.125-0.284,0.282-0.282h1.099
			C4.376,17.47,4.448,17.501,4.499,17.552z"/>
		<path fill="#FFFFFF" stroke="#FFFFFF" stroke-width="0.25" d="M4.494,12.909c0.051,0.052,0.083,0.121,0.083,0.201
			c0,0.155-0.125,0.281-0.28,0.281h-1.1c-0.156,0.001-0.283-0.126-0.283-0.283c-0.001-0.156,0.125-0.281,0.28-0.28l1.101-0.001
			C4.372,12.828,4.442,12.857,4.494,12.909z"/>
	</g>
</g>
<g>
	<path fill="#FFFFFF" stroke="#FFFFFF" stroke-width="0.25" d="M19.651,8.169c-0.062,0.063-0.146,0.098-0.232,0.098L3.106,8.261
		c-0.183,0.002-0.33-0.146-0.331-0.328L2.747,2.844C2.746,2.663,2.892,2.516,3.075,2.516l16.314,0.005
		c0.18-0.001,0.329,0.147,0.332,0.329l0.026,5.087C19.748,8.024,19.712,8.109,19.651,8.169z M3.432,7.604l15.654,0.004l-0.024-4.43
		L3.407,3.173L3.432,7.604z"/>
	<g>
		<path fill="#FFFFFF" stroke="#FFFFFF" stroke-width="0.25" d="M4.492,4.184C4.439,4.234,4.37,4.267,4.292,4.266
			C4.136,4.269,4.01,4.142,4.01,3.986l-0.002-1.1c0-0.157,0.127-0.282,0.284-0.283c0.154,0,0.282,0.124,0.28,0.281l0.002,1.1
			C4.574,4.061,4.542,4.132,4.492,4.184z"/>
		<path fill="#FFFFFF" stroke="#FFFFFF" stroke-width="0.25" d="M6.993,5.704C6.935,5.764,6.852,5.801,6.76,5.802
			c-0.182,0-0.329-0.148-0.33-0.331l-0.013-2.52C6.415,2.769,6.561,2.623,6.744,2.623c0.183,0.001,0.33,0.146,0.331,0.33
			l0.014,2.519C7.089,5.562,7.052,5.645,6.993,5.704z"/>
		<path fill="#FFFFFF" stroke="#FFFFFF" stroke-width="0.25" d="M11.898,5.705c-0.061,0.061-0.141,0.097-0.232,0.098
			c-0.182,0-0.329-0.147-0.331-0.33l-0.015-2.519c-0.001-0.182,0.146-0.331,0.327-0.329c0.183-0.002,0.332,0.146,0.332,0.329
			l0.015,2.52C11.994,5.563,11.959,5.646,11.898,5.705z"/>
		<path fill="#FFFFFF" stroke="#FFFFFF" stroke-width="0.25" d="M16.803,5.707c-0.06,0.06-0.143,0.096-0.232,0.097
			c-0.183-0.001-0.331-0.148-0.331-0.33l-0.012-2.519c-0.002-0.182,0.145-0.328,0.325-0.329c0.182,0.001,0.332,0.149,0.332,0.33
			l0.014,2.52C16.898,5.565,16.861,5.647,16.803,5.707z"/>
		<path fill="#FFFFFF" stroke="#FFFFFF" stroke-width="0.25" d="M9.563,4.26c-0.052,0.05-0.122,0.083-0.2,0.083
			c-0.157,0-0.282-0.126-0.282-0.282L9.08,2.963c0-0.156,0.126-0.282,0.281-0.283c0.156,0,0.284,0.124,0.282,0.28l0.002,1.1
			C9.646,4.138,9.614,4.209,9.563,4.26z"/>
		<path fill="#FFFFFF" stroke="#FFFFFF" stroke-width="0.25" d="M14.204,4.251c-0.052,0.052-0.123,0.083-0.201,0.083
			c-0.155,0.001-0.281-0.124-0.281-0.279l-0.001-1.1c-0.002-0.155,0.125-0.283,0.282-0.283c0.156-0.002,0.282,0.125,0.281,0.28
			l0.002,1.099C14.286,4.129,14.255,4.2,14.204,4.251z"/>
	</g>
</g>
</svg>
