<?xml version="1.0" encoding="utf-8"?>
<!-- Generator: Adobe Illustrator 22.1.0, SVG Export Plug-In . SVG Version: 6.00 Build 0)  -->
<svg version="1.1" id="Ebene_1" xmlns="http://www.w3.org/2000/svg" xmlns:xlink="http://www.w3.org/1999/xlink" x="0px" y="0px"
	 viewBox="0 0 251 35" style="enable-background:new 0 0 251 35;" xml:space="preserve">
<style type="text/css">
	.st0{fill:#E30613;}
	.st1{fill:#FBFBFB;}
	.st2{fill:#FFFFFF;}
</style>
<rect class="st0" width="251" height="35"/>
<path class="st1" d="M23.3,4h-4.2v3.6h-3.5V4h-4v3.6H8.2V4H4v7.7h19.3V4L23.3,4z M12.7,25.9c0-1-0.6-1.5-1.6-1.5H8v2.9h3.1
	C12.1,27.4,12.7,26.9,12.7,25.9 M8,21h1.6c1,0,1.6-0.6,1.6-1.5s-0.6-1.5-1.6-1.5H8V21L8,21z M16.9,26.1c0,2.9-2.3,4.9-5.4,4.9H4
	V14.4h5.8c3.1,0,5.4,2,5.4,4.9c0,1.1-0.4,2.1-1,2.8C15.8,22.8,16.9,24.1,16.9,26.1 M23.3,31h-4.2V14.4h4.2V31L23.3,31z"/>
<g>
	<path class="st2" d="M39.9,23l-0.9,0.6c-0.5-0.8-1.4-1.2-2.3-1.2c-0.9,0-1.7,0.5-1.7,1.4c0,0.9,0.7,1.2,1.6,1.7l1.1,0.5
		c1.4,0.7,2.3,1.4,2.3,2.7c0,1.7-1.4,2.7-3.2,2.7c-1.6,0-2.9-0.8-3.6-2.1l0.9-0.6c0.6,0.9,1.5,1.7,2.7,1.7c1.2,0,2-0.6,2-1.6
		c0-0.9-0.7-1.3-1.6-1.7l-1.1-0.5c-1.1-0.6-2.2-1.3-2.2-2.6c0-1.6,1.4-2.6,3-2.6C38.2,21.4,39.3,22.1,39.9,23z"/>
	<path class="st2" d="M46.1,30.4v1c-0.4,0.1-0.7,0.2-1.2,0.2c-1.4,0-2.4-0.7-2.4-2.4v-4h-1.2v-1h1.2v-2h1.1v2h2.3v1h-2.3v4
		c0,1.1,0.6,1.4,1.5,1.4C45.4,30.5,45.7,30.5,46.1,30.4z"/>
	<path class="st2" d="M53.3,26.9v4.5h-1.1v-0.9c-0.5,0.7-1.4,1.1-2.4,1.1c-1.5,0-2.5-0.8-2.5-2c0-1.2,1-2,2.6-2h2.3v-0.6
		c0-1.2-0.7-1.8-1.8-1.8c-0.9,0-1.6,0.4-2.1,1.2l-0.8-0.6c0.7-1.1,1.8-1.6,3-1.6C52.1,24,53.3,25,53.3,26.9z M52.1,28.6v-0.2H50
		c-1,0-1.6,0.3-1.6,1c0,0.8,0.7,1.1,1.5,1.1C51.1,30.6,52.1,29.7,52.1,28.6z"/>
	<path class="st2" d="M62.6,20.2v11.2h-1.1v-1.1c-0.6,0.8-1.6,1.3-2.7,1.3c-2.1,0-3.6-1.7-3.6-3.8c0-2.1,1.5-3.8,3.6-3.8
		c1.1,0,2.1,0.5,2.7,1.2v-5H62.6z M61.5,27.8c0-1.9-1.3-2.7-2.5-2.7c-1.5,0-2.6,1.1-2.6,2.7c0,1.6,1.1,2.7,2.6,2.7
		C60.2,30.5,61.5,29.7,61.5,27.8z"/>
	<path class="st2" d="M69.1,30.4v1c-0.4,0.1-0.7,0.2-1.2,0.2c-1.4,0-2.4-0.7-2.4-2.4v-4h-1.2v-1h1.2v-2h1.1v2h2.3v1h-2.3v4
		c0,1.1,0.6,1.4,1.5,1.4C68.4,30.5,68.7,30.5,69.1,30.4z"/>
	<path class="st2" d="M78.2,27.7c0,2.1-1.5,3.8-3.6,3.8c-1.1,0-2.1-0.4-2.7-1.2v3.7h-1.1v-10h1.1v1.2c0.6-0.8,1.6-1.3,2.7-1.3
		C76.7,24,78.2,25.6,78.2,27.7z M77.1,27.8c0-1.6-1.1-2.7-2.6-2.7c-1.3,0-2.5,0.8-2.5,2.7s1.3,2.7,2.5,2.7
		C76,30.5,77.1,29.3,77.1,27.8z"/>
	<path class="st2" d="M81.4,31.4h-1.1V20.2h1.1V31.4z"/>
	<path class="st2" d="M89.4,26.9v4.5h-1.1v-0.9c-0.5,0.7-1.4,1.1-2.4,1.1c-1.5,0-2.5-0.8-2.5-2c0-1.2,1-2,2.6-2h2.3v-0.6
		c0-1.2-0.7-1.8-1.8-1.8c-0.9,0-1.6,0.4-2.1,1.2l-0.8-0.6c0.7-1.1,1.8-1.6,3-1.6C88.2,24,89.4,25,89.4,26.9z M88.2,28.6v-0.2h-2.2
		c-1,0-1.6,0.3-1.6,1c0,0.8,0.7,1.1,1.5,1.1C87.2,30.6,88.2,29.7,88.2,28.6z"/>
	<path class="st2" d="M97.8,26.8v4.6h-1.1V27c0-1.1-0.7-1.9-1.8-1.9S93,25.8,93,27v4.4h-1.1v-7.3h1.1v0.8c0.5-0.6,1.3-0.9,2.2-0.9
		C96.8,24,97.8,25.1,97.8,26.8z"/>
</g>
<g>
</g>
<g>
</g>
<g>
</g>
<g>
</g>
<g>
</g>
<g>
</g>
</svg>
