<?xml version="1.0" encoding="UTF-8" standalone="no"?>
<!-- Created with Inkscape (http://www.inkscape.org/) -->

<svg
   xmlns:dc="http://purl.org/dc/elements/1.1/"
   xmlns:cc="http://creativecommons.org/ns#"
   xmlns:rdf="http://www.w3.org/1999/02/22-rdf-syntax-ns#"
   xmlns:svg="http://www.w3.org/2000/svg"
   xmlns="http://www.w3.org/2000/svg"
   xmlns:sodipodi="http://sodipodi.sourceforge.net/DTD/sodipodi-0.dtd"
   xmlns:inkscape="http://www.inkscape.org/namespaces/inkscape"
   width="240"
   height="75"
   viewBox="0 0 240 75.000001"
   id="svg2"
   version="1.1"
   inkscape:version="0.91 r13725"
   sodipodi:docname="logo-sitebar-olkd.svg">
  <defs
     id="defs4" />
  <sodipodi:namedview
     id="base"
     pagecolor="#ffffff"
     bordercolor="#666666"
     borderopacity="1.0"
     inkscape:pageopacity="0.0"
     inkscape:pageshadow="2"
     inkscape:zoom="2.8284271"
     inkscape:cx="52.58865"
     inkscape:cy="51.346616"
     inkscape:document-units="px"
     inkscape:current-layer="layer1"
     showgrid="false"
     units="px"
     inkscape:window-width="1680"
     inkscape:window-height="988"
     inkscape:window-x="-8"
     inkscape:window-y="-8"
     inkscape:window-maximized="1" />
  <metadata
     id="metadata7">
    <rdf:RDF>
      <cc:Work
         rdf:about="">
        <dc:format>image/svg+xml</dc:format>
        <dc:type
           rdf:resource="http://purl.org/dc/dcmitype/StillImage" />
        <dc:title />
      </cc:Work>
    </rdf:RDF>
  </metadata>
  <g
     inkscape:label="Ebene 1"
     inkscape:groupmode="layer"
     id="layer1"
     transform="translate(0,-977.36216)">
    <path
       style="fill:#ee1c25;fill-opacity:1"
       d="m 76.308892,1043.0449 0,-9.0838 72.769488,0 72.76948,0 0,9.0838 0,9.0839 -72.76948,0 -72.769488,0 0,-9.0839 z m 68.869358,4.5358 1.23422,0.027 0,-2.4852 c 0,-2.7089 -0.17947,-3.4221 -1.06706,-4.2409 -0.41445,-0.3822 -0.79126,-0.5016 -1.78318,-0.5648 -1.50261,-0.095 -2.42892,0.1745 -3.13866,0.9152 l -0.52478,0.5478 0.54764,0.656 0.54763,0.6559 0.76202,-0.5171 c 1.15193,-0.7817 2.06981,-0.6193 2.37879,0.4209 0.12746,0.4293 0.0877,0.4444 -1.17127,0.4444 -2.14751,0 -3.26527,0.7282 -3.26527,2.1271 0,1.7032 1.32588,2.5563 3.35707,2.16 0.48875,-0.095 1.44403,-0.1613 2.12285,-0.1463 z m -3.10814,-1.6699 c -0.50501,-0.6085 0.24524,-1.0886 1.70113,-1.0886 0.57596,0 0.58905,0.189 0.0597,0.8619 -0.4623,0.5878 -1.36476,0.7039 -1.76086,0.2267 z m -53.494555,1.3221 c 3.58297,-1.8719 3.58297,-6.8991 0,-8.7708 -1.931519,-1.0091 -4.679938,-0.6583 -6.212393,0.7931 -1.018424,0.9644 -1.404455,1.9518 -1.404455,3.5923 0,1.6403 0.386031,2.6278 1.404455,3.5922 1.532455,1.4513 4.280874,1.8021 6.212393,0.7932 z m -4.128188,-1.8339 c -0.863868,-0.5688 -1.226854,-1.3285 -1.226854,-2.5678 0,-1.9437 1.238477,-3.0859 3.147339,-2.9025 0.862473,0.083 1.159156,0.2214 1.759082,0.8214 0.692395,0.6924 0.721612,0.7772 0.721612,2.0974 0,1.323 -0.02791,1.4036 -0.730488,2.1061 -0.645901,0.6459 -0.863148,0.7389 -1.876006,0.8016 -0.921898,0.057 -1.272253,-0.014 -1.794685,-0.3562 z m 38.407433,2.0849 c 1.2355,-0.5163 1.29845,-0.6333 0.809,-1.5041 -0.23799,-0.4236 -0.48208,-0.7415 -0.54241,-0.7065 -1.38851,0.803 -2.65606,0.8844 -3.39251,0.2179 -0.81894,-0.7411 -0.51213,-0.8665 2.12098,-0.8665 l 2.49144,0 -0.0791,-1.2427 c -0.13379,-2.1019 -1.23333,-3.1017 -3.41104,-3.1017 -1.43134,0 -2.50754,0.5412 -3.2204,1.6195 -0.456,0.6896 -0.54319,1.0326 -0.54276,2.134 5.9e-4,1.6283 0.60485,2.6813 1.90873,3.3268 1.0296,0.5097 2.79817,0.5661 3.85809,0.1237 z m -3.49638,-4.439 c 0,-0.1079 0.17773,-0.3752 0.39495,-0.5924 0.50426,-0.5042 1.60071,-0.5224 2.04289,-0.035 0.60473,0.6682 0.40549,0.8237 -1.05551,0.8237 -0.7899,0 -1.38233,-0.085 -1.38233,-0.1975 z m 39.06146,3.8014 -0.0601,-0.938 -0.72666,0.063 c -1.17816,0.1021 -1.54429,-0.4251 -1.54429,-2.2252 l 0,-1.4707 1.03673,-0.06 1.03676,-0.061 0,-0.8885 0,-0.8888 -1.03676,-0.06 -1.03673,-0.06 0,-0.8782 0,-0.8784 -1.08611,0 -1.08612,0 0,0.8745 0,0.8743 -1.13548,0.1151 c -0.62451,0.063 -1.46871,0.1903 -1.876,0.283 -0.41296,0.094 -0.74053,0.094 -0.74053,0 0,-0.093 -0.48876,-0.1701 -1.08612,-0.1701 l -1.08611,0 0,3.5545 0,3.5546 1.08611,0 1.08612,0 0,-1.8859 c 0,-2.5882 0.36213,-3.2485 1.78175,-3.2485 0.31055,0 0.61038,-0.075 0.66631,-0.1646 0.056,-0.091 0.36417,-0.1266 0.68495,-0.079 l 0.58322,0.086 0.0673,1.9412 c 0.0988,2.8503 0.71926,3.5404 3.1883,3.5457 l 1.34378,0 -0.0601,-0.9381 z m 6.49705,0.6376 c 1.2355,-0.5163 1.29845,-0.6333 0.80899,-1.5041 -0.23797,-0.4236 -0.48206,-0.7415 -0.5424,-0.7065 -1.3885,0.803 -2.65606,0.8844 -3.39252,0.2179 -0.81893,-0.7411 -0.5121,-0.8665 2.121,-0.8665 l 2.49144,0 -0.0791,-1.2427 c -0.13392,-2.1019 -1.23335,-3.1017 -3.41103,-3.1017 -1.43134,0 -2.50754,0.5412 -3.2204,1.6195 -0.45602,0.6896 -0.54321,1.0326 -0.54276,2.134 0,1.6283 0.60484,2.6813 1.9087,3.3268 1.02962,0.5097 2.79818,0.5661 3.8581,0.1237 z m -3.49637,-4.439 c 0,-0.1079 0.17772,-0.3752 0.39495,-0.5924 0.50425,-0.5042 1.60072,-0.5224 2.04288,-0.035 0.60474,0.6682 0.40549,0.8237 -1.05551,0.8237 -0.7899,0 -1.38232,-0.085 -1.38232,-0.1975 z m 19.40191,4.4537 c 0.29868,-0.1558 0.54305,-0.1997 0.54305,-0.098 0,0.1022 0.48875,0.1859 1.08612,0.1859 l 1.0861,0 0,-5.4306 0,-5.4306 -1.0861,0 -1.08612,0 0,2.0618 0,2.0617 -0.54305,-0.2832 c -0.69533,-0.3627 -2.47923,-0.3674 -3.16942,-0.014 -2.60445,1.3551 -2.68372,5.2869 -0.13824,6.8592 0.72346,0.447 2.52245,0.4914 3.3077,0.082 z m -2.42954,-2.1938 c -0.90212,-0.9604 -0.4987,-2.5897 0.76044,-3.0711 0.74772,-0.286 1.7306,0.2467 2.00836,1.0884 0.2806,0.8501 -0.0101,1.9818 -0.58895,2.2915 -0.68976,0.3692 -1.67388,0.2298 -2.17985,-0.3088 z m 16.14524,2.1791 c 1.2355,-0.5163 1.29845,-0.6333 0.80898,-1.5041 -0.23797,-0.4236 -0.48206,-0.7415 -0.54239,-0.7065 -1.38851,0.803 -2.65607,0.8844 -3.39253,0.2179 -0.81893,-0.7411 -0.51211,-0.8665 2.12101,-0.8665 l 2.49144,0 -0.0791,-1.2427 c -0.13379,-2.1019 -1.23336,-3.1017 -3.41105,-3.1017 -1.43133,0 -2.50753,0.5412 -3.22039,1.6195 -0.45602,0.6896 -0.54321,1.0326 -0.54276,2.134 0,1.6283 0.60484,2.6813 1.9087,3.3268 1.02962,0.5097 2.79818,0.5661 3.85811,0.1237 z m -3.49637,-4.439 c 0,-0.1079 0.17771,-0.3752 0.39495,-0.5924 0.50425,-0.5042 1.6007,-0.5224 2.04287,-0.035 0.60475,0.6682 0.4055,0.8237 -1.05551,0.8237 -0.7899,0 -1.38231,-0.085 -1.38231,-0.1975 z m 19.57055,3.9909 c 0.45519,-0.5094 0.57187,-0.8253 0.57187,-1.5483 0,-1.0975 -0.51368,-1.6523 -2.17222,-2.3468 -1.28641,-0.5386 -1.56399,-1.0831 -0.55211,-1.0831 0.36394,0 0.8744,0.1489 1.13436,0.331 0.46004,0.3222 0.48743,0.3133 1.026,-0.3317 0.61938,-0.742 0.54224,-0.9811 -0.48839,-1.5141 -0.41801,-0.2161 -0.98416,-0.2812 -1.9629,-0.226 -1.25518,0.071 -1.42524,0.1338 -1.94475,0.7148 -0.65028,0.7279 -0.7341,1.5167 -0.25884,2.4358 0.22885,0.4424 0.69513,0.7756 1.77363,1.2672 1.09379,0.4984 1.43384,0.7431 1.34696,0.9695 -0.16502,0.4302 -1.22722,0.381 -2.00413,-0.092 -0.84493,-0.5152 -0.92749,-0.5032 -1.43447,0.2088 -0.41939,0.589 -0.42086,0.6126 -0.0629,1.0143 0.63855,0.7166 1.4494,0.959 3.00369,0.8981 1.35638,-0.053 1.49,-0.099 2.02412,-0.6968 z m 6.65505,-0.1895 -0.0601,-0.938 -0.72668,0.063 c -1.17816,0.1021 -1.54429,-0.4251 -1.54429,-2.2252 l 0,-1.4707 1.03675,-0.06 1.03674,-0.061 0,-0.8885 0,-0.8888 -1.03674,-0.06 -1.03675,-0.06 0,-0.8782 0,-0.8784 -1.08611,0 -1.08612,0 0,0.8755 c 0,0.8083 -0.0417,0.8804 -0.54305,0.9381 -0.50271,0.058 -0.54306,0.128 -0.54306,0.9511 0,0.8151 0.0434,0.8936 0.52491,0.9493 0.52341,0.06 0.52511,0.066 0.59243,2.0102 0.099,2.8597 0.71733,3.5489 3.18857,3.5542 l 1.34378,0 -0.0601,-0.9381 z m -122.59334,-1.5394 c 0,-2.1573 0.02604,-2.3061 0.484714,-2.7647 0.583282,-0.5833 0.901543,-0.6057 1.517523,-0.1079 0.43566,0.3523 0.470516,0.5335 0.532114,2.7646 l 0.06589,2.3877 1.069564,0 1.069578,0 0,-2.3451 c 0,-2.8762 -0.09264,-3.3698 -0.789453,-4.2047 -0.607507,-0.728 -0.09926,-0.665 -4.789209,-0.5938 l -1.332959,0.02 0,3.5618 0,3.5617 1.086107,0 1.086122,0 0,-2.2799 z m 8.49142,-3.1506 0,-5.4306 -1.08611,0 -1.08611,0 0,5.4306 0,5.4306 1.08611,0 1.08611,0 0,-5.4306 z m 3.94949,1.876 0,-3.5545 -1.0861,0 -1.08611,0 0,3.5545 0,3.5546 1.08611,0 1.0861,0 0,-3.5546 z m 3.94951,1.2746 c 0,-2.1573 0.026,-2.3061 0.48471,-2.7647 0.58329,-0.5833 0.90155,-0.6057 1.51753,-0.1079 0.43566,0.3523 0.47051,0.5335 0.5321,2.7646 l 0.0659,2.3877 1.06958,0 1.06956,0 0,-2.3451 c 0,-2.8762 -0.0926,-3.3698 -0.78945,-4.2047 -0.60749,-0.728 -0.0993,-0.665 -4.78921,-0.5938 l -1.33296,0.02 0,3.5618 0,3.5617 1.08612,0 1.08611,0 0,-2.2799 z m 21.96261,0.068 0.0558,-2.2122 1.8433,2.2122 1.84331,2.2123 1.36675,0 1.36677,0 -2.07576,-2.5011 c -1.79551,-2.1632 -2.04061,-2.5431 -1.8153,-2.8139 0.42795,-0.5144 2.79114,-3.4455 3.07844,-3.8183 0.24785,-0.3216 0.17214,-0.3449 -1.09079,-0.3369 l -1.35713,0.014 -1.5798,1.9613 -1.57979,1.9612 -0.0563,-1.9698 -0.0563,-1.9699 -1.0792,0 -1.0792,0 0,4.7393 0,4.7394 1.07965,0 1.07963,0 0.0558,-2.2123 z m 36.68741,-0.068 c 0,-2.1573 0.026,-2.3061 0.4847,-2.7647 0.58331,-0.5833 0.90156,-0.6057 1.51754,-0.1079 0.43567,0.3523 0.4705,0.5335 0.5321,2.7646 l 0.0659,2.3877 1.06957,0 1.06958,0 0,-2.3451 c 0,-2.8762 -0.0926,-3.3698 -0.78947,-4.2047 -0.60749,-0.728 -0.0991,-0.665 -4.7892,-0.5938 l -1.33296,0.02 0,3.5618 0,3.5617 1.08613,0 1.0861,0 0,-2.2799 z m 17.77274,-1.2746 0,-3.5545 -1.08611,0 -1.08611,0 0,3.5545 0,3.5546 1.08611,0 1.08611,0 0,-3.5546 z m 12.04596,1.2746 c 0,-2.1573 0.026,-2.3061 0.4847,-2.7647 0.58331,-0.5833 0.90156,-0.6057 1.51754,-0.1079 0.43567,0.3523 0.47053,0.5335 0.5321,2.7646 l 0.0659,2.3877 1.06957,0 1.06959,0 0,-2.3451 c 0,-2.8762 -0.0926,-3.3698 -0.78945,-4.2047 -0.60751,-0.728 -0.0993,-0.665 -4.78921,-0.5938 l -1.33296,0.02 0,3.5618 0,3.5617 1.08611,0 1.0861,0 0,-2.2799 z m -70.49852,-2.3607 0,-0.8886 -1.876,0 -1.87601,0 0,0.8886 0,0.8886 1.87601,0 1.876,0 0,-0.8886 z m -22.00946,-4.3355 c 0.88851,-0.8886 0.40468,-2.0824 -0.8439,-2.0824 -0.86375,0 -1.43604,0.4692 -1.43604,1.1776 0,1.2712 1.3699,1.8148 2.27994,0.9048 z m 80.37225,0 c 0.88851,-0.8886 0.40469,-2.0824 -0.84388,-2.0824 -0.86376,0 -1.43605,0.4692 -1.43605,1.1776 0,1.2712 1.3699,1.8148 2.27993,0.9048 z m -185.3391255,-9.6721 0,-22.0316 8.4740485,0 c 8.939396,0 9.982989,0.081 12.524566,0.9697 1.917536,0.6705 3.309732,1.5834 4.971563,3.2599 2.536582,2.5589 3.53021,5.0493 3.512571,8.8038 -0.01151,2.4557 -0.537426,4.3576 -1.713204,6.1956 -0.405995,0.6347 -0.710853,1.1755 -0.677462,1.2018 0.03339,0.026 0.630512,0.3475 1.326931,0.7141 0.696418,0.3665 1.807215,1.2019 2.468435,1.8561 2.146641,2.1243 3.136379,4.6586 3.125253,8.0026 -0.0201,6.0395 -3.817643,10.7493 -10.069073,12.4878 -1.46774,0.4081 -1.987867,0.4285 -12.736928,0.4985 l -11.2067005,0.073 0,-22.0316 z m 20.5990775,12.0897 c 1.14329,-0.3425 2.012213,-1.2924 2.307196,-2.5219 0.601202,-2.506 -0.586099,-4.4898 -2.956284,-4.9393 -0.57547,-0.1094 -2.944747,-0.1984 -5.265063,-0.1984 l -4.218758,0 0,3.9495 0,3.9495 4.667119,0 c 3.084039,0 4.938025,-0.081 5.46579,-0.2394 z m -3.706805,-17.1146 c 2.914597,-1.3239 2.993115,-5.6962 0.125584,-6.9932 -0.763821,-0.3454 -1.4106,-0.4317 -3.73767,-0.4982 l -2.814018,-0.08 0,3.9713 0,3.9716 2.814018,0 c 2.302113,0 2.959195,-0.071 3.612086,-0.3669 z m 23.195132,5.0118 0,-22.0185 5.529291,0 5.529292,0 0,22.0185 0,22.0183 -5.529292,0 -5.529291,0 0,-22.0183 z m 38.100553,0.026 c -1.030752,-0.2779 -1.902259,-0.848 -2.643981,-1.7295 l -0.514981,-0.612 0.740816,-0.5524 0.740802,-0.5524 0.669177,0.5876 c 0.843211,0.7403 1.410453,0.9561 2.514182,0.9561 1.041815,0 1.665678,-0.5064 1.665678,-1.3518 0,-0.7108 -0.319153,-0.9762 -2.2692,-1.8868 -2.103913,-0.9822 -2.763955,-1.5189 -3.167306,-2.5751 -1.338397,-3.5046 3.606735,-5.9368 6.551499,-3.2225 0.472861,0.4359 0.859754,0.8478 0.859754,0.9154 -1.4e-5,0.068 -0.314262,0.3737 -0.69835,0.6803 l -0.698336,0.5571 -0.690856,-0.6066 c -0.566394,-0.4973 -0.861969,-0.6065 -1.640748,-0.6065 -1.130601,0 -1.66798,0.4505 -1.568966,1.3155 0.05682,0.4959 0.310925,0.6856 2.205459,1.6466 1.177713,0.5974 2.352103,1.3319 2.609773,1.6323 1.651264,1.9252 0.515499,4.9006 -2.083399,5.4579 -1.219545,0.2616 -1.42973,0.2572 -2.581017,-0.053 z m 10.699985,0.072 c -0.904895,-0.2136 -1.63357,-0.7805 -2.048054,-1.5934 -0.270646,-0.5307 -0.345349,-1.1786 -0.345594,-2.9974 l -3.88e-4,-2.3203 -0.691158,0 -0.691172,0 0,-0.9874 0,-0.9874 0.691172,0 0.691158,0 0,-1.0861 0,-1.0861 1.086107,0 1.086122,0 0,1.0861 0,1.0861 1.283589,0 1.283575,0 0,0.9874 0,0.9874 -1.283575,0 -1.283589,0 0,1.8889 c 0,1.7917 0.18009,2.5688 0.671349,2.8968 0.119542,0.081 0.683821,0.1464 1.254027,0.1482 l 1.036737,0 0,0.9615 c 0,0.9578 -0.0029,0.9621 -0.740528,1.0839 -0.878599,0.1453 -1.119812,0.1367 -1.999864,-0.071 z m 6.587031,0.019 c -1.362291,-0.3363 -2.069359,-1.1925 -2.069359,-2.5058 0,-1.7196 1.099874,-2.4745 3.801396,-2.609 1.611115,-0.081 1.727905,-0.1151 1.727905,-0.5116 0,-0.6533 -0.51152,-1.2378 -1.204509,-1.3765 -0.809822,-0.1618 -1.991692,0.1604 -2.451721,0.6688 l -0.361877,0.3999 -0.558123,-0.5347 c -0.306968,-0.2942 -0.558122,-0.651 -0.558122,-0.7928 0,-0.4462 1.564563,-1.4142 2.649865,-1.6395 1.895327,-0.3934 3.577937,0.2361 4.273137,1.5988 0.33401,0.6547 0.38357,1.1738 0.38357,4.0181 l 0,3.2662 -0.98737,0 c -0.85572,0 -0.98738,-0.053 -0.98738,-0.395 0,-0.4845 -0.0187,-0.4849 -0.82797,-0.019 -0.778467,0.4484 -2.004601,0.6355 -2.829442,0.4318 z m 2.882702,-2.1752 c 0.31749,-0.3175 0.57724,-0.7618 0.57724,-0.9874 0,-0.3757 -0.11479,-0.4101 -1.368228,-0.4101 -1.419099,0 -1.988845,0.2683 -1.988845,0.9366 0,1.1252 1.814682,1.426 2.779833,0.4609 z m 8.57497,2.1711 c -1.86783,-0.4507 -3.25833,-2.3529 -3.25833,-4.4572 0,-2.2473 1.50666,-4.145 3.59002,-4.5219 0.83476,-0.151 2.41194,0.1902 2.74738,0.5943 0.12515,0.1509 0.35004,0.2743 0.49966,0.2743 0.21811,0 0.27203,-0.5481 0.27203,-2.7647 l 0,-2.7646 1.08612,0 1.0861,0 0,6.8129 0,6.8129 -0.98738,0 c -0.90273,0 -0.98736,-0.04 -0.98736,-0.4608 0,-0.7048 -0.21958,-0.7761 -0.77622,-0.2516 -0.48423,0.4562 -1.75287,0.9292 -2.38338,0.8885 -0.16293,-0.014 -0.56281,-0.083 -0.88864,-0.1621 z m 2.66933,-2.3184 c 0.7548,-0.4459 1.08533,-1.1321 1.06928,-2.2201 -0.0243,-1.6475 -1.0689,-2.5456 -2.7056,-2.3261 -1.39965,0.1876 -2.06831,1.1962 -1.9234,2.9011 0.13378,1.5735 2.12383,2.4933 3.55972,1.6451 z m 9.30215,2.304 c -0.9049,-0.2138 -1.63357,-0.7806 -2.04806,-1.5935 -0.27064,-0.5308 -0.34534,-1.1787 -0.34559,-2.9975 l -3.9e-4,-2.3203 -0.69116,0 -0.69117,0 0,-0.9874 0,-0.9873 0.69117,0 0.69116,0 0,-1.0861 0,-1.0862 1.08611,0 1.08612,0 0,1.0862 0,1.0861 1.28358,0 1.28359,0 0,0.9873 0,0.9874 -1.28359,0 -1.28358,0 0,1.8891 c 0,1.7915 0.18009,2.5686 0.67135,2.8966 0.11954,0.079 0.68382,0.1466 1.25403,0.1482 l 1.03673,0 0,0.9615 c 0,0.9576 -0.003,0.9619 -0.74052,1.0839 -0.8786,0.1452 -1.11982,0.1367 -1.99987,-0.072 z m 30.28814,0.023 c -3.03588,-0.7872 -4.48571,-3.8035 -3.13293,-6.5182 0.63996,-1.2843 1.70466,-2.0939 3.14738,-2.3934 2.77387,-0.5758 5.21383,1.5352 4.98293,4.3112 l -0.0606,0.7274 -3.11024,0.055 c -2.89651,0.05 -3.11022,0.081 -3.11022,0.4268 0,0.5592 1.077,1.3544 2.02712,1.4969 0.7603,0.1137 1.46295,-0.034 2.71676,-0.5731 0.3645,-0.1566 1.07625,0.9302 0.90369,1.38 -0.27748,0.723 -3.07828,1.4213 -4.36398,1.088 z m 2.86338,-5.6654 c 0,-0.1713 -0.25975,-0.5712 -0.57724,-0.8887 -1.03327,-1.0333 -2.78376,-0.7213 -3.47719,0.6196 l -0.30017,0.5804 2.1773,0 c 1.85093,0 2.1773,-0.046 2.1773,-0.3113 z m 13.13207,5.6654 c -3.03588,-0.7872 -4.48569,-3.8035 -3.13291,-6.5182 0.63995,-1.2843 1.70467,-2.0939 3.14737,-2.3934 2.77387,-0.5758 5.21384,1.5352 4.98292,4.3112 l -0.0606,0.7274 -3.11022,0.055 c -2.89653,0.05 -3.11023,0.081 -3.11023,0.4268 0,0.5592 1.077,1.3544 2.02711,1.4969 0.76031,0.1137 1.46296,-0.034 2.71676,-0.5731 0.36451,-0.1566 1.07627,0.9302 0.90368,1.38 -0.27746,0.723 -3.07827,1.4213 -4.36397,1.088 z m 2.86339,-5.6654 c 0,-0.1713 -0.25976,-0.5712 -0.57724,-0.8887 -1.03327,-1.0333 -2.78376,-0.7213 -3.47719,0.6196 l -0.30017,0.5804 2.17731,0 c 1.85093,0 2.17729,-0.046 2.17729,-0.3113 z m 14.31693,5.6654 c -3.03588,-0.7872 -4.4857,-3.8035 -3.13292,-6.5182 0.63996,-1.2843 1.70466,-2.0939 3.14738,-2.3934 2.77387,-0.5758 5.21382,1.5352 4.98292,4.3112 l -0.0606,0.7274 -3.11022,0.055 c -2.89653,0.05 -3.11024,0.081 -3.11024,0.4268 0,0.5592 1.07701,1.3544 2.02712,1.4969 0.76029,0.1137 1.46295,-0.034 2.71676,-0.5731 0.36449,-0.1566 1.07625,0.9302 0.90368,1.38 -0.27747,0.723 -3.07827,1.4213 -4.36397,1.088 z m 2.86339,-5.6654 c 0,-0.1713 -0.25976,-0.5712 -0.57724,-0.8887 -1.03327,-1.0333 -2.78376,-0.7213 -3.47719,0.6196 l -0.30017,0.5804 2.17729,0 c 1.85094,0 2.17731,-0.046 2.17731,-0.3113 z m 12.73712,5.6572 c -1.86783,-0.4507 -3.25833,-2.3529 -3.25833,-4.4572 0,-2.2472 1.50667,-4.145 3.59001,-4.5219 0.83477,-0.151 2.41196,0.1902 2.74739,0.5943 0.12515,0.1509 0.35005,0.2743 0.49964,0.2743 0.21813,0 0.27206,-0.548 0.27206,-2.7647 l 0,-2.7646 1.08611,0 1.0861,0 0,6.8129 0,6.8129 -0.98736,0 c -0.90274,0 -0.98738,-0.04 -0.98738,-0.4607 0,-0.7049 -0.21958,-0.7761 -0.77622,-0.2516 -0.48423,0.4561 -1.75287,0.9291 -2.38338,0.8884 -0.16291,-0.014 -0.56281,-0.083 -0.88864,-0.1621 z m 2.66933,-2.3184 c 0.75481,-0.4459 1.08534,-1.1321 1.06929,-2.22 -0.0243,-1.6476 -1.06892,-2.5457 -2.70561,-2.3262 -1.39963,0.1876 -2.06831,1.1962 -1.9234,2.9011 0.13378,1.5735 2.12383,2.4933 3.55972,1.6451 z m -71.29182,-3.7186 0,-6.023 2.22158,0 c 1.22188,0 2.57017,0.085 2.99621,0.1843 2.17169,0.5038 3.28342,2.7544 2.29597,4.6481 -0.22621,0.4338 -0.32543,0.8173 -0.22043,0.8523 0.49388,0.1647 1.27247,0.957 1.51823,1.5453 0.84292,2.0174 -0.28093,4.0873 -2.49634,4.5978 -0.48656,0.1122 -2.10655,0.206 -3.59995,0.2086 l -2.71527,0 0,-6.023 z m 5.89895,3.83 c 1.10109,-0.3838 1.36636,-1.6182 0.52794,-2.4566 -0.44693,-0.4469 -0.63165,-0.4848 -2.3697,-0.4848 l -1.88498,0 0,1.5798 0,1.5798 1.55034,0 c 0.85267,0 1.83205,-0.098 2.1764,-0.2182 z m -0.56604,-5.4561 c 0.31155,-0.396 0.39313,-0.698 0.30614,-1.1328 -0.18868,-0.9434 -0.56481,-1.17 -2.08514,-1.2559 l -1.3817,-0.078 0,1.5034 0,1.5034 1.36799,0 c 1.25523,0 1.403,-0.045 1.79271,-0.5401 z m 6.31809,3.2059 0,-4.4432 1.0861,0 1.08613,0 0,4.4432 0,4.4432 -1.08613,0 -1.0861,0 0,-4.4432 z m 15.79799,-2.3697 0,-6.8129 1.0861,0 1.08612,0 0,6.8129 0,6.8129 -1.08612,0 -1.0861,0 0,-6.8129 z m 16.39042,3.357 0,-3.4558 -0.69118,0 -0.69115,0 0,-0.9874 0,-0.9873 0.69115,0 0.69118,0 0,-1.3031 c 0,-0.7876 0.12544,-1.5676 0.31721,-1.9717 0.53362,-1.1245 2.17095,-1.8259 3.59646,-1.5409 0.60291,0.1208 0.62824,0.1645 0.62824,1.0884 l 0,0.9626 -0.7899,0 c -1.1235,0 -1.5798,0.5134 -1.5798,1.7773 l 0,0.9874 0.98738,0 0.98737,0 0,0.9873 0,0.9874 -0.98737,0 -0.98738,0 0,3.4558 0,3.4559 -1.08611,0 -1.0861,0 0,-3.4559 z m 16.78535,-3.357 0,-6.8129 1.08612,0 1.08611,0 0,6.8129 0,6.8129 -1.08611,0 -1.08612,0 0,-6.8129 z m -48.84841,-4.4575 c -0.62175,-0.4891 -0.71201,-1.5289 -0.17472,-2.0131 0.9973,-0.8988 2.41906,-0.3372 2.41906,0.9556 0,1.306 -1.20599,1.8743 -2.24434,1.0575 z M 2.0583445,989.33188 l 0,-10.26868 5.430559,0 5.4305595,0 0,4.83808 0,4.83822 4.739397,0 4.739397,0 0,-4.83822 0,-4.83808 5.233084,0 5.233085,0 0,4.83808 0,4.83822 4.640657,0 4.640666,0 0,-4.83822 0,-4.83808 5.529291,0 5.529292,0 0,10.26868 0,10.26867 -25.572991,0 -25.5729965,0 0,-10.26867 z"
       id="path4145"
       inkscape:connector-curvature="0" />
  </g>
</svg>
