<?xml version="1.0" encoding="utf-8"?>
<!-- Generator: Adobe Illustrator 25.2.3, SVG Export Plug-In . SVG Version: 6.00 Build 0)  -->
<svg version="1.1" id="Ebene_1" xmlns="http://www.w3.org/2000/svg" xmlns:xlink="http://www.w3.org/1999/xlink" x="0px" y="0px"
	 viewBox="0 0 377.8 198.4" style="enable-background:new 0 0 377.8 198.4;" xml:space="preserve">
<style type="text/css">
	.st0{fill:#FF6900;}
	.st1{fill:#002855;}
	.st2{display:none;}
	.st3{display:inline;opacity:0.38;fill:#BDBCBC;enable-background:new    ;}
</style>
<g id="MOBIEL">
	<path class="st0" d="M264.7,108.6c-3-5.7-4.5-12.3-3.7-19.5c1.4-13.3,11.2-25,24.1-28.9c7.2-2.2,15.8-2.7,24.2,0
		c8,2.6,15.2,5.2,24,8.8c0.4,0.2,1,0.3,1.4,0.3c1.1,0.1,1.9-0.3,2.6-1.1c0.2-0.3,0.5-0.7,0.6-1.1c1.5-3.3,7.7-18.1,8.9-21.2
		c0.2-0.4,0.3-1,0.3-1.4c0.1-1.1-0.3-1.9-1.1-2.6c-0.3-0.2-0.7-0.5-1-0.6c-9.4-3.9-18.5-7.1-27.8-10c-8.8-2.8-17.8-3.5-25.6-3
		c-28.9,1.9-51,24.3-49.3,49.3c0.9,13.6,8.7,25.3,20.3,32.9c0.6,0.4,1.4,0.4,1.9-0.1C264.9,110.1,265,109.2,264.7,108.6z"/>
	<g>
		<path class="st1" d="M64.7,84.3c-2.3,0-4.2,0.4-5.8,1.3c-1.6,0.9-3.1,2.2-4.4,3.8c-0.8-1.7-2-3-3.5-3.8c-1.5-0.8-3.3-1.3-5.3-1.3
			c-2,0-3.8,0.4-5.3,1.3c-1.5,0.9-2.8,2.1-3.9,3.5h-0.1V85h-7.6v30.2h8V98.8c0-2.6,0.6-4.6,1.7-6c1.1-1.4,2.5-2.1,4.2-2.1
			c1.7,0,3,0.5,3.9,1.6c0.9,1.1,1.3,2.8,1.3,5.1v17.8h8V98.7c0-2.6,0.6-4.6,1.7-5.9c1.1-1.4,2.5-2.1,4.2-2.1c1.7,0,3,0.5,3.9,1.6
			c0.9,1.1,1.3,2.8,1.3,5.1v17.8h8V95.3c0-3.6-0.9-6.3-2.8-8.2C70.1,85.2,67.6,84.3,64.7,84.3z"/>
		<path class="st1" d="M102.9,86.2c-2.3-1.3-5-1.9-8.2-1.9c-3.1,0-5.9,0.7-8.2,1.9s-4.1,3.1-5.4,5.5c-1.2,2.4-1.9,5.2-1.9,8.4
			c0,3.2,0.6,6,1.9,8.4c1.2,2.4,3,4.2,5.4,5.5s5.1,1.9,8.2,1.9c3.1,0,5.9-0.6,8.2-1.9c2.3-1.3,4.1-3.1,5.4-5.5
			c1.3-2.4,1.9-5.2,1.9-8.4s-0.6-6-1.9-8.4C107,89.4,105.2,87.5,102.9,86.2z M100,107.5c-1.3,1.7-3.1,2.5-5.4,2.5
			c-2.3,0-4.1-0.8-5.4-2.5c-1.3-1.7-2-4.1-2-7.3c0-3.2,0.7-5.6,2-7.3s3.1-2.5,5.4-2.5c2.3,0,4.1,0.8,5.4,2.5c1.3,1.7,2,4.1,2,7.3
			C102,103.3,101.4,105.8,100,107.5z"/>
		<path class="st1" d="M142,93.7v-0.1c3.6-1.5,5.4-4.2,5.4-8.1c0-3.4-1.2-6.1-3.5-8c-2.4-2-5.8-2.9-10.3-2.9h-18.6v40.7h19.4
			c4.8,0,8.4-1,10.8-3.1c2.5-2.1,3.7-5,3.7-8.8c0-2.4-0.6-4.4-1.8-6C145.8,95.7,144.1,94.5,142,93.7z M123.4,81.1h8.5
			c4.6,0,7,1.7,7,5.2c0,3.4-2.3,5.1-7,5.1h-8.5V81.1z M132.6,108.5h-9.2V97.4h9.2c5,0,7.5,1.8,7.5,5.5
			C140.1,106.6,137.6,108.5,132.6,108.5z"/>
		<path class="st1" d="M157.2,70.7c-1.3,0-2.5,0.5-3.5,1.4c-1,1-1.5,2.1-1.5,3.4c0,1.3,0.5,2.5,1.5,3.4c1,1,2.1,1.4,3.5,1.4
			c1.3,0,2.5-0.5,3.5-1.4s1.5-2.1,1.5-3.4c0-1.3-0.5-2.5-1.5-3.4C159.7,71.2,158.5,70.7,157.2,70.7z"/>
		<rect x="153.2" y="85" class="st1" width="8" height="30.2"/>
		<path class="st1" d="M188.8,86.3c-2.3-1.3-5-2-8.2-2c-3.1,0-5.8,0.7-8.1,1.9s-4,3.1-5.2,5.5c-1.2,2.4-1.8,5.2-1.8,8.4
			c0,3.2,0.6,6,1.9,8.4c1.2,2.4,3,4.2,5.3,5.5s5,1.9,8,1.9c4.3,0,7.7-1,10.1-2.9c2.4-1.9,4-4.2,4.7-6.8l-8.2-0.6
			c-0.4,1.3-1.1,2.4-2.1,3.3c-1,0.9-2.5,1.4-4.5,1.4c-2.1,0-3.8-0.8-5-2.3c-1.3-1.6-1.9-3.6-1.9-6.2h22c0-0.4,0.1-1,0.1-1.8
			c0-3-0.6-5.7-1.7-8.1C192.8,89.5,191.1,87.7,188.8,86.3z M173.7,96.7c0.1-2.1,0.8-3.7,2-5c1.2-1.3,2.8-1.9,4.9-1.9
			c2.1,0,3.7,0.7,4.9,2s1.8,3,2,5H173.7z"/>
		<rect x="200.2" y="73.9" class="st1" width="8" height="41.3"/>
		<path class="st1" d="M349.7,120.6c-0.9-13.6-8.7-25.3-20.3-32.9c-0.6-0.4-1.4-0.3-1.9,0.1c-0.6,0.5-0.7,1.3-0.4,1.9
			c3,5.7,4.5,12.3,3.7,19.5c-1.4,13.4-11.2,25-24.1,28.9c-7.2,2.2-15.8,2.7-24.2,0c-8-2.6-23.6-8.5-32.4-12.1
			c-0.4-0.1-1-0.3-1.4-0.3c-1.1-0.1-1.9,0.3-2.6,1.1c-0.2,0.3-0.5,0.7-0.6,1.1c-1.4,3.2-7.7,18.1-8.9,21.2c-0.2,0.4-0.3,1-0.3,1.4
			c-0.1,1.1,0.3,1.9,1.1,2.6c0.3,0.2,0.7,0.5,1,0.6c9.4,3.9,26.9,10.4,36.2,13.3c8.8,2.8,17.8,3.5,25.6,2.9
			C329.3,168,351.4,145.6,349.7,120.6z"/>
	</g>
</g>
<g id="Abstände" class="st2">
	<rect x="349.8" y="170" class="st3" width="28.3" height="28.4"/>
	<rect x="349.8" y="-0.1" class="st3" width="28.3" height="28.3"/>
	<rect x="208.1" y="170" class="st3" width="28.3" height="28.4"/>
	<rect x="0.4" y="170" class="st3" width="28.3" height="28.4"/>
</g>
</svg>
